{
.appVersion = "983";
copyright = "(C) 2009-2012, GujaratiLexicon.com <info@gujaratilexicon.com>";
customParameters = (
{
name = note;
value = "";
},
{
name = openTypeNameUniqueID;
value = "Fontographer 4.7 Kalapi";
},
{
name = openTypeNameVersion;
value = "Fontographer 4.7 10/15/09 FG4M­0000004045";
},
{
name = openTypeOS2FamilyClass;
value = (
0,
0
);
},
{
name = openTypeOS2Panose;
value = (
0,
0,
4,
0,
0,
0,
0,
0,
0,
0
);
},
{
name = openTypeOS2StrikeoutPosition;
value = 375;
},
{
name = openTypeOS2StrikeoutSize;
value = 72;
},
{
name = openTypeOS2SubscriptXOffset;
value = 0;
},
{
name = openTypeOS2SubscriptXSize;
value = 1014;
},
{
name = openTypeOS2SubscriptYOffset;
value = 207;
},
{
name = openTypeOS2SubscriptYSize;
value = 941;
},
{
name = openTypeOS2SuperscriptXOffset;
value = 0;
},
{
name = openTypeOS2SuperscriptXSize;
value = 1014;
},
{
name = openTypeOS2SuperscriptYOffset;
value = 656;
},
{
name = openTypeOS2SuperscriptYSize;
value = 941;
},
{
name = fsType;
value = (
);
},
{
name = vendorID;
value = Pyrs;
}
);
date = "2009-10-15 16:54:45 +0000";
disablesNiceNames = 1;
familyName = Kalapi;
featurePrefixes = (
{

glyphs = (
{
glyphname = uni0A85;
lastChange = "2017-06-08 06:27:27 +0000";
layers = (
{
anchors = (
{
name = "Anchor-4";
position = "{869, 737}";
}
);
layerId = "8D630CB6-6CFC-4A7D-AC95-7C82CE00D513";
paths = (
{
closed = 1;
nodes = (
"1098 88 QCURVE SMOOTH",
"1033 -20 OFFCURVE",
"972 -20 QCURVE SMOOTH",
"902 -20 OFFCURVE",
"818 53 OFFCURVE",
"818 122 QCURVE SMOOTH",
"818 788 LINE SMOOTH",
"818 805 OFFCURVE",
"847 805 QCURVE SMOOTH",
"876 805 OFFCURVE",
"876 788 QCURVE SMOOTH",
"876 122 LINE SMOOTH",
"876 38 OFFCURVE",
"972 38 QCURVE SMOOTH",
"998 38 OFFCURVE",
"1044 111 QCURVE",
"1050 117 OFFCURVE",
"1060 117 QCURVE",
"1060 117 LINE",
"1073 117 OFFCURVE",
"1088 110 QCURVE",
"1105 100 OFFCURVE"
);
},
{
closed = 1;
nodes = (
"161 381 QCURVE",
"145 404 OFFCURVE",
"117 404 QCURVE SMOOTH",
"106 404 OFFCURVE",
"101 395 QCURVE SMOOTH",
"97 388 OFFCURVE",
"103 382 QCURVE SMOOTH",
"120 364 OFFCURVE"
);
},
{
closed = 1;
nodes = (
"591 494 QCURVE",
"592 502 OFFCURVE",
"583 540 OFFCURVE",
"575 536 QCURVE SMOOTH",
"569 533 OFFCURVE",
"569 527 QCURVE SMOOTH",
"569 505 OFFCURVE"
);
},
{
closed = 1;
nodes = (
"822 436 LINE",
"802 418 OFFCURVE",
"750 395 QCURVE",
"737 392 OFFCURVE",
"720 392 QCURVE SMOOTH",
"688 392 OFFCURVE",
"641 401 QCURVE",
"625 330 OFFCURVE",
"569 259 QCURVE SMOOTH",
"508 181 OFFCURVE",
"410 180 QCURVE",
"315 178 OFFCURVE",
"213 285 QCURVE SMOOTH",
"200 298 OFFCURVE",
"187 330 QCURVE",
"149 319 OFFCURVE",
"122 319 QCURVE SMOOTH",
"42 319 OFFCURVE",
"42 394 QCURVE SMOOTH",
"42 459 OFFCURVE",
"116 462 QCURVE SMOOTH",
"161 464 OFFCURVE",
"204 398 QCURVE",
"349 465 OFFCURVE",
"349 589 QCURVE SMOOTH",
"349 634 OFFCURVE",
"319 681 QCURVE",
"282 736 OFFCURVE",
"213 736 QCURVE SMOOTH",
"182 736 OFFCURVE",
"126 710 QCURVE SMOOTH",
"70 683 LINE",
"58 683 OFFCURVE",
"48 698 QCURVE SMOOTH",
"39 710 OFFCURVE",
"39 723 QCURVE SMOOTH",
"39 730 OFFCURVE",
"43 731 QCURVE",
"148 794 OFFCURVE",
"213 794 QCURVE SMOOTH",
"311 794 OFFCURVE",
"362 724 QCURVE SMOOTH",
"407 663 OFFCURVE",
"407 589 QCURVE SMOOTH",
"407 440 OFFCURVE",
"236 349 QCURVE",
"241 341 OFFCURVE",
"256 324 QCURVE SMOOTH",
"338 236 OFFCURVE",
"410 237 QCURVE SMOOTH",
"492 239 OFFCURVE",
"537 310 QCURVE SMOOTH",
"577 372 OFFCURVE",
"586 429 QCURVE",
"566 442 OFFCURVE",
"533 475 QCURVE",
"517 501 OFFCURVE",
"517 531 QCURVE SMOOTH",
"517 587 OFFCURVE",
"576 594 QCURVE SMOOTH",
"644 601 OFFCURVE",
"656 502 QCURVE SMOOTH",
"656 494 OFFCURVE",
"652 463 OFFCURVE",
"652 455 QCURVE",
"692 446 OFFCURVE",
"738 453 QCURVE SMOOTH",
"756 456 OFFCURVE",
"782 473 QCURVE SMOOTH",
"817 497 OFFCURVE",
"822 500 QCURVE"
);
}
);
width = 1193;
}
);
unicode = 0A85;
},
{
glyphname = uni0A86;
lastChange = "2017-06-08 06:27:27 +0000";
layers = (
{
anchors = (
{
name = "Anchor-4";
position = "{1199, 759}";
}
);
layerId = "8D630CB6-6CFC-4A7D-AC95-7C82CE00D513";
paths = (
{
closed = 1;
nodes = (
"161 381 QCURVE",
"145 404 OFFCURVE",
"117 404 QCURVE SMOOTH",
"106 404 OFFCURVE",
"101 395 QCURVE SMOOTH",
"97 388 OFFCURVE",
"103 382 QCURVE SMOOTH",
"120 364 OFFCURVE"
);
},
{
closed = 1;
nodes = (
"591 494 QCURVE",
"592 502 OFFCURVE",
"583 540 OFFCURVE",
"575 536 QCURVE SMOOTH",
"569 533 OFFCURVE",
"569 527 QCURVE SMOOTH",
"569 505 OFFCURVE"
);
},
{
closed = 1;
nodes = (
"822 436 LINE",
"802 418 OFFCURVE",
"750 395 QCURVE",
"737 392 OFFCURVE",
"720 392 QCURVE SMOOTH",
"688 392 OFFCURVE",
"641 401 QCURVE",
"625 330 OFFCURVE",
"569 259 QCURVE SMOOTH",
"508 181 OFFCURVE",
"410 180 QCURVE",
"315 178 OFFCURVE",
"213 285 QCURVE SMOOTH",
"200 298 OFFCURVE",
"187 330 QCURVE",
"149 319 OFFCURVE",
"122 319 QCURVE SMOOTH",
"42 319 OFFCURVE",
"42 394 QCURVE SMOOTH",
"42 459 OFFCURVE",
"116 462 QCURVE SMOOTH",
"161 464 OFFCURVE",
"204 398 QCURVE",
"349 465 OFFCURVE",
"349 589 QCURVE SMOOTH",
"349 634 OFFCURVE",
"319 681 QCURVE",
"282 736 OFFCURVE",
"213 736 QCURVE SMOOTH",
"182 736 OFFCURVE",
"126 710 QCURVE SMOOTH",
"70 683 LINE",
"58 683 OFFCURVE",
"48 698 QCURVE SMOOTH",
"39 710 OFFCURVE",
"39 723 QCURVE SMOOTH",
"39 730 OFFCURVE",
"43 731 QCURVE",
"148 794 OFFCURVE",
"213 794 QCURVE SMOOTH",
"311 794 OFFCURVE",
"362 724 QCURVE SMOOTH",
"407 663 OFFCURVE",
"407 589 QCURVE SMOOTH",
"407 440 OFFCURVE",
"236 349 QCURVE",
"241 341 OFFCURVE",
"256 324 QCURVE SMOOTH",
"338 236 OFFCURVE",
"410 237 QCURVE SMOOTH",
"492 239 OFFCURVE",
"537 310 QCURVE SMOOTH",
"577 372 OFFCURVE",
"586 429 QCURVE",
"566 442 OFFCURVE",
"533 475 QCURVE",
"517 501 OFFCURVE",
"517 531 QCURVE SMOOTH",
"517 587 OFFCURVE",
"576 594 QCURVE SMOOTH",
"644 601 OFFCURVE",
"656 502 QCURVE SMOOTH",
"656 494 OFFCURVE",
"652 463 OFFCURVE",
"652 455 QCURVE",
"692 446 OFFCURVE",
"738 453 QCURVE SMOOTH",
"756 456 OFFCURVE",
"782 473 QCURVE SMOOTH",
"817 497 OFFCURVE",
"822 500 QCURVE"
);
},
{
closed = 0;
nodes = (
"822 500 LINE SMOOTH"
);
},
{
closed = 1;
nodes = (
"1098 88 QCURVE SMOOTH",
"1033 -20 OFFCURVE",
"972 -20 QCURVE SMOOTH",
"902 -20 OFFCURVE",
"818 53 OFFCURVE",
"818 122 QCURVE SMOOTH",
"818 788 LINE SMOOTH",
"818 805 OFFCURVE",
"847 805 QCURVE SMOOTH",
"876 805 OFFCURVE",
"876 788 QCURVE SMOOTH",
"876 122 LINE SMOOTH",
"876 38 OFFCURVE",
"972 38 QCURVE SMOOTH",
"998 38 OFFCURVE",
"1044 111 QCURVE",
"1050 117 OFFCURVE",
"1060 117 QCURVE",
"1060 117 LINE",
"1073 117 OFFCURVE",
"1088 110 QCURVE",
"1105 100 OFFCURVE"
);
},
{
closed = 1;
nodes = (
"1429 88 QCURVE SMOOTH",
"1365 -20 OFFCURVE",
"1303 -20 QCURVE SMOOTH",
"1234 -20 OFFCURVE",
"1150 53 OFFCURVE",
"1150 122 QCURVE SMOOTH",
"1150 788 LINE SMOOTH",
"1150 805 OFFCURVE",
"1179 805 QCURVE SMOOTH",
"1208 805 OFFCURVE",
"1208 788 QCURVE SMOOTH",
"1208 122 LINE SMOOTH",
"1208 38 OFFCURVE",
"1303 38 QCURVE SMOOTH",
"1329 38 OFFCURVE",
"1376 111 QCURVE",
"1382 117 OFFCURVE",
"1392 117 QCURVE",
"1392 117 LINE",
"1405 117 OFFCURVE",
"1419 110 QCURVE",
"1436 100 OFFCURVE"
);
}
);
width = 1552;
}
);
unicode = 0A86;
},
{
glyphname = uni0A87;
lastChange = "2017-06-08 06:27:27 +0000";
layers = (
{
layerId = "8D630CB6-6CFC-4A7D-AC95-7C82CE00D513";
paths = (
{
closed = 1;
nodes = (
"300 436 QCURVE",
"323 442 OFFCURVE",
"369 450 QCURVE",
"388 452 OFFCURVE",
"388 459 QCURVE SMOOTH",
"388 473 OFFCURVE",
"372 473 QCURVE SMOOTH",
"355 473 OFFCURVE"
);
},
{
closed = 1;
nodes = (
"220 450 QCURVE",
"223 453 OFFCURVE",
"252 473 QCURVE SMOOTH",
"314 517 OFFCURVE",
"384 517 QCURVE SMOOTH",
"445 517 OFFCURVE",
"445 469 QCURVE SMOOTH",
"445 426 OFFCURVE",
"350 388 QCURVE SMOOTH",
"297 366 OFFCURVE",
"232 385 QCURVE",
"167 325 OFFCURVE",
"164 255 QCURVE SMOOTH",
"159 163 OFFCURVE",
"228 103 QCURVE SMOOTH",
"293 46 OFFCURVE",
"387 46 QCURVE SMOOTH",
"496 46 OFFCURVE",
"640 199 OFFCURVE",
"640 308 QCURVE SMOOTH",
"640 409 OFFCURVE",
"602 494 QCURVE SMOOTH",
"573 560 OFFCURVE",
"502 662 QCURVE SMOOTH",
"345 889 OFFCURVE",
"345 990 QCURVE SMOOTH",
"345 1077 OFFCURVE",
"432 1137 QCURVE SMOOTH",
"504 1186 OFFCURVE",
"585 1192 QCURVE SMOOTH",
"605 1193 OFFCURVE",
"605 1160 QCURVE SMOOTH",
"605 1138 OFFCURVE",
"591 1134 QCURVE SMOOTH",
"504 1110 OFFCURVE",
"469 1090 QCURVE SMOOTH",
"403 1052 OFFCURVE",
"403 990 QCURVE SMOOTH",
"403 904 OFFCURVE",
"549 694 QCURVE SMOOTH",
"629 579 OFFCURVE",
"657 513 QCURVE SMOOTH",
"698 419 OFFCURVE",
"698 308 QCURVE SMOOTH",
"698 175 OFFCURVE",
"609 83 QCURVE",
"519 -12 OFFCURVE",
"387 -12 QCURVE SMOOTH",
"267 -12 OFFCURVE",
"185 62 QCURVE SMOOTH",
"98 140 OFFCURVE",
"106 258 QCURVE SMOOTH",
"111 346 OFFCURVE",
"175 410 QCURVE",
"123 442 OFFCURVE",
"78 499 QCURVE SMOOTH",
"28 564 OFFCURVE",
"28 617 QCURVE SMOOTH",
"28 672 OFFCURVE",
"94 728 QCURVE SMOOTH",
"141 768 OFFCURVE",
"210 801 QCURVE SMOOTH",
"222 806 OFFCURVE",
"243 778 OFFCURVE",
"243 765 QCURVE SMOOTH",
"243 753 OFFCURVE",
"236 749 QCURVE SMOOTH",
"162 707 OFFCURVE",
"145 694 QCURVE SMOOTH",
"85 650 OFFCURVE",
"85 617 QCURVE SMOOTH",
"85 573 OFFCURVE",
"133 520 QCURVE SMOOTH",
"173 475 OFFCURVE"
);
}
);
width = 811;
}
);
unicode = 0A87;
},
{
glyphname = uni0A88;
lastChange = "2017-06-08 06:27:27 +0000";
layers = (
{
layerId = "8D630CB6-6CFC-4A7D-AC95-7C82CE00D513";
paths = (
{
closed = 1;
nodes = (
"227 449 QCURVE",
"251 474 OFFCURVE",
"345 514 OFFCURVE",
"379 514 QCURVE SMOOTH",
"433 514 OFFCURVE",
"433 471 QCURVE SMOOTH",
"433 415 OFFCURVE",
"314 387 QCURVE SMOOTH",
"278 378 OFFCURVE",
"240 385 QCURVE",
"160 317 OFFCURVE",
"165 227 QCURVE SMOOTH",
"169 148 OFFCURVE",
"238 93 QCURVE SMOOTH",
"304 41 OFFCURVE",
"385 41 QCURVE SMOOTH",
"500 41 OFFCURVE",
"575 130 QCURVE SMOOTH",
"647 215 OFFCURVE",
"643 332 QCURVE SMOOTH",
"638 468 OFFCURVE",
"476 702 QCURVE SMOOTH",
"453 735 OFFCURVE",
"390 831 QCURVE SMOOTH",
"349 893 OFFCURVE",
"348 979 QCURVE",
"346 1049 OFFCURVE",
"384 1100 QCURVE",
"426 1154 OFFCURVE",
"494 1158 QCURVE SMOOTH",
"626 1166 OFFCURVE",
"809 1051 QCURVE",
"812 1034 OFFCURVE",
"784 1011 OFFCURVE",
"766 1011 QCURVE",
"609 1107 OFFCURVE",
"497 1100 QCURVE SMOOTH",
"451 1098 OFFCURVE",
"426 1060 QCURVE SMOOTH",
"404 1027 OFFCURVE",
"405 979 QCURVE SMOOTH",
"407 900 OFFCURVE",
"447 844 QCURVE SMOOTH",
"467 817 OFFCURVE",
"526 734 QCURVE",
"696 488 OFFCURVE",
"701 334 QCURVE SMOOTH",
"705 192 OFFCURVE",
"617 91 QCURVE SMOOTH",
"526 -14 OFFCURVE",
"385 -14 QCURVE SMOOTH",
"280 -14 OFFCURVE",
"198 52 QCURVE SMOOTH",
"112 121 OFFCURVE",
"107 224 QCURVE SMOOTH",
"102 334 OFFCURVE",
"184 416 QCURVE",
"29 524 OFFCURVE",
"26 607 QCURVE SMOOTH",
"23 678 OFFCURVE",
"114 743 QCURVE SMOOTH",
"169 782 OFFCURVE",
"211 798 QCURVE SMOOTH",
"223 802 OFFCURVE",
"248 773 OFFCURVE",
"248 760 QCURVE SMOOTH",
"248 751 OFFCURVE",
"240 749 QCURVE SMOOTH",
"80 690 OFFCURVE",
"84 610 QCURVE SMOOTH",
"88 530 OFFCURVE"
);
}
);
width = 834;
}
);
unicode = 0A88;
},
{
glyphname = uni0A89;
lastChange = "2017-06-08 06:27:27 +0000";
layers = (
{
layerId = "8D630CB6-6CFC-4A7D-AC95-7C82CE00D513";
paths = (
{
closed = 1;
nodes = (
"440 455 QCURVE",
"416 462 OFFCURVE",
"394 462 QCURVE SMOOTH",
"363 462 OFFCURVE",
"349 452 QCURVE",
"358 446 OFFCURVE",
"410 447 QCURVE SMOOTH",
"428 448 OFFCURVE"
);
},
{
closed = 1;
nodes = (
"450 1105 QCURVE SMOOTH",
"246 1105 OFFCURVE",
"153 902 QCURVE SMOOTH",
"85 753 OFFCURVE",
"85 521 QCURVE SMOOTH",
"85 340 OFFCURVE",
"153 210 QCURVE SMOOTH",
"239 48 OFFCURVE",
"404 48 QCURVE SMOOTH",
"477 48 OFFCURVE",
"579 155 OFFCURVE",
"579 229 QCURVE SMOOTH",
"579 279 OFFCURVE",
"533 387 OFFCURVE",
"497 420 QCURVE",
"446 390 OFFCURVE",
"413 390 QCURVE SMOOTH",
"377 390 OFFCURVE",
"347 401 QCURVE SMOOTH",
"307 417 OFFCURVE",
"307 446 QCURVE SMOOTH",
"307 477 OFFCURVE",
"362 520 OFFCURVE",
"394 520 QCURVE SMOOTH",
"452 520 OFFCURVE",
"501 487 QCURVE",
"578 542 OFFCURVE",
"578 608 QCURVE SMOOTH",
"578 682 OFFCURVE",
"494 770 OFFCURVE",
"420 770 QCURVE SMOOTH",
"355 770 OFFCURVE",
"301 730 QCURVE SMOOTH",
"298 727 OFFCURVE",
"294 727 QCURVE SMOOTH",
"283 727 OFFCURVE",
"264 755 OFFCURVE",
"264 766 QCURVE SMOOTH",
"264 775 OFFCURVE",
"269 779 QCURVE SMOOTH",
"335 828 OFFCURVE",
"420 828 QCURVE SMOOTH",
"521 828 OFFCURVE",
"636 710 OFFCURVE",
"636 608 QCURVE SMOOTH",
"636 526 OFFCURVE",
"543 452 QCURVE",
"583 411 OFFCURVE",
"637 284 OFFCURVE",
"637 229 QCURVE SMOOTH",
"637 133 OFFCURVE",
"499 -10 OFFCURVE",
"404 -10 QCURVE SMOOTH",
"214 -10 OFFCURVE",
"111 169 QCURVE",
"28 317 OFFCURVE",
"28 521 QCURVE SMOOTH",
"28 782 OFFCURVE",
"116 951 QCURVE SMOOTH",
"226 1163 OFFCURVE",
"450 1163 QCURVE SMOOTH",
"468 1163 OFFCURVE",
"468 1131 QCURVE SMOOTH",
"468 1105 OFFCURVE"
);
}
);
width = 776;
}
);
unicode = 0A89;
},
{
glyphname = uni0A8A;
lastChange = "2017-06-08 06:27:27 +0000";
layers = (
{
layerId = "8D630CB6-6CFC-4A7D-AC95-7C82CE00D513";
paths = (
{
closed = 1;
nodes = (
"440 455 QCURVE",
"416 462 OFFCURVE",
"394 462 QCURVE SMOOTH",
"363 462 OFFCURVE",
"349 452 QCURVE",
"358 446 OFFCURVE",
"410 447 QCURVE SMOOTH",
"428 448 OFFCURVE"
);
},
{
closed = 1;
nodes = (
"501 487 QCURVE",
"578 542 OFFCURVE",
"578 608 QCURVE SMOOTH",
"578 682 OFFCURVE",
"494 770 OFFCURVE",
"420 770 QCURVE SMOOTH",
"389 770 OFFCURVE",
"301 730 QCURVE SMOOTH",
"288 724 OFFCURVE",
"264 752 OFFCURVE",
"264 766 QCURVE SMOOTH",
"264 774 OFFCURVE",
"269 779 QCURVE SMOOTH",
"328 828 OFFCURVE",
"420 828 QCURVE SMOOTH",
"521 828 OFFCURVE",
"636 710 OFFCURVE",
"636 608 QCURVE SMOOTH",
"636 526 OFFCURVE",
"543 452 QCURVE",
"583 411 OFFCURVE",
"637 284 OFFCURVE",
"637 229 QCURVE SMOOTH",
"637 133 OFFCURVE",
"499 -10 OFFCURVE",
"404 -10 QCURVE SMOOTH",
"214 -10 OFFCURVE",
"111 169 QCURVE",
"28 317 OFFCURVE",
"28 521 QCURVE SMOOTH",
"28 782 OFFCURVE",
"116 951 QCURVE SMOOTH",
"226 1163 OFFCURVE",
"450 1163 QCURVE SMOOTH",
"647 1163 OFFCURVE",
"753 1070 QCURVE SMOOTH",
"866 972 OFFCURVE",
"867 778 QCURVE SMOOTH",
"872 135 LINE SMOOTH",
"872 38 OFFCURVE",
"963 43 QCURVE SMOOTH",
"994 45 OFFCURVE",
"1011 68 QCURVE",
"1027 97 OFFCURVE",
"1044 125 QCURVE",
"1093 93 LINE",
"1045 22 OFFCURVE",
"1038 16 QCURVE",
"1011 -13 OFFCURVE",
"966 -14 QCURVE SMOOTH",
"894 -17 OFFCURVE",
"814 62 OFFCURVE",
"814 135 QCURVE SMOOTH",
"809 778 LINE SMOOTH",
"808 943 OFFCURVE",
"710 1026 QCURVE SMOOTH",
"618 1105 OFFCURVE",
"450 1105 QCURVE SMOOTH",
"246 1105 OFFCURVE",
"153 902 QCURVE SMOOTH",
"85 753 OFFCURVE",
"85 521 QCURVE SMOOTH",
"85 340 OFFCURVE",
"153 210 QCURVE SMOOTH",
"239 48 OFFCURVE",
"404 48 QCURVE SMOOTH",
"477 48 OFFCURVE",
"579 155 OFFCURVE",
"579 229 QCURVE SMOOTH",
"579 279 OFFCURVE",
"533 387 OFFCURVE",
"497 420 QCURVE",
"446 390 OFFCURVE",
"413 390 QCURVE SMOOTH",
"377 390 OFFCURVE",
"347 401 QCURVE SMOOTH",
"307 417 OFFCURVE",
"307 446 QCURVE SMOOTH",
"307 477 OFFCURVE",
"362 520 OFFCURVE",
"394 520 QCURVE SMOOTH",
"452 520 OFFCURVE"
);
}
);
width = 1112;
}
);
unicode = 0A8A;
},
{
glyphname = uni0A8B;
lastChange = "2017-06-08 06:27:27 +0000";
layers = (
{
anchors = (
{
name = "Anchor-4";
position = "{550, 770}";
}
);
layerId = "8D630CB6-6CFC-4A7D-AC95-7C82CE00D513";
paths = (
{
closed = 1;
nodes = (
"481 385 QCURVE",
"429 437 OFFCURVE",
"360 479 QCURVE SMOOTH",
"273 533 OFFCURVE",
"214 531 QCURVE SMOOTH",
"171 530 OFFCURVE",
"136 511 QCURVE SMOOTH",
"119 502 OFFCURVE",
"72 465 QCURVE SMOOTH",
"70 463 OFFCURVE",
"66 463 QCURVE SMOOTH",
"56 463 OFFCURVE",
"40 492 OFFCURVE",
"40 502 QCURVE SMOOTH",
"40 511 OFFCURVE",
"45 514 QCURVE SMOOTH",
"70 529 OFFCURVE",
"117 562 QCURVE",
"165 588 OFFCURVE",
"214 589 QCURVE SMOOTH",
"282 591 OFFCURVE",
"375 534 QCURVE SMOOTH",
"446 491 OFFCURVE",
"498 437 QCURVE",
"498 332 LINE",
"373 240 OFFCURVE",
"166 71 QCURVE SMOOTH",
"163 68 OFFCURVE",
"161 68 QCURVE SMOOTH",
"151 68 OFFCURVE",
"134 98 OFFCURVE",
"134 109 QCURVE SMOOTH",
"134 116 OFFCURVE",
"138 120 QCURVE SMOOTH",
"188 173 OFFCURVE"
);
},
{
closed = 1;
nodes = (
"744 442 QCURVE",
"855 503 OFFCURVE",
"855 579 QCURVE SMOOTH",
"855 608 OFFCURVE",
"807 644 OFFCURVE",
"776 644 QCURVE SMOOTH",
"736 644 OFFCURVE",
"685 579 OFFCURVE",
"685 538 QCURVE SMOOTH",
"685 497 OFFCURVE"
);
},
{
closed = 1;
nodes = (
"886 291 QCURVE",
"952 309 LINE",
"978 271 OFFCURVE",
"978 224 QCURVE SMOOTH",
"978 203 OFFCURVE",
"973 179 QCURVE SMOOTH",
"959 120 OFFCURVE",
"874 48 OFFCURVE",
"814 48 QCURVE SMOOTH",
"794 48 OFFCURVE",
"769 54 QCURVE SMOOTH",
"756 57 OFFCURVE",
"757 77 QCURVE SMOOTH",
"758 98 OFFCURVE",
"770 105 QCURVE",
"844 103 OFFCURVE",
"870 119 QCURVE SMOOTH",
"907 141 OFFCURVE",
"920 190 QCURVE",
"933 244 OFFCURVE",
"906 286 QCURVE",
"842 313 OFFCURVE",
"744 384 QCURVE",
"641 333 OFFCURVE",
"540 333 QCURVE",
"540 388 LINE",
"605 384 OFFCURVE",
"698 421 QCURVE",
"631 485 OFFCURVE",
"631 538 QCURVE SMOOTH",
"631 602 OFFCURVE",
"713 699 OFFCURVE",
"776 699 QCURVE SMOOTH",
"830 699 OFFCURVE",
"909 632 OFFCURVE",
"909 579 QCURVE SMOOTH",
"909 482 OFFCURVE",
"789 407 QCURVE",
"850 364 OFFCURVE",
"866 356 QCURVE SMOOTH",
"896 339 OFFCURVE",
"925 341 QCURVE SMOOTH",
"936 342 OFFCURVE",
"952 309 OFFCURVE",
"952 297 QCURVE SMOOTH",
"952 284 OFFCURVE",
"944 288 QCURVE SMOOTH",
"933 294 OFFCURVE",
"916 294 QCURVE SMOOTH",
"902 294 OFFCURVE"
);
},
{
closed = 1;
nodes = (
"698 117 QCURVE SMOOTH",
"694 64 OFFCURVE",
"635 -1 OFFCURVE",
"593 -1 QCURVE SMOOTH",
"491 -1 OFFCURVE",
"491 122 QCURVE SMOOTH",
"491 788 LINE SMOOTH",
"491 805 OFFCURVE",
"520 805 QCURVE SMOOTH",
"549 805 OFFCURVE",
"549 788 QCURVE SMOOTH",
"549 122 LINE SMOOTH",
"549 51 OFFCURVE",
"586 51 QCURVE SMOOTH",
"593 51 OFFCURVE",
"601 52 QCURVE SMOOTH",
"628 57 OFFCURVE",
"638 103 QCURVE SMOOTH",
"647 146 OFFCURVE",
"661 146 QCURVE",
"661 146 LINE",
"674 146 OFFCURVE",
"690 138 QCURVE SMOOTH",
"700 132 OFFCURVE"
);
}
);
width = 1112;
}
);
unicode = 0A8B;
},
{
glyphname = uni0A8C;
lastChange = "2017-06-08 06:27:27 +0000";
layers = (
{
anchors = (
{
name = "Anchor-4";
position = "{737, 858}";
}
);
layerId = "8D630CB6-6CFC-4A7D-AC95-7C82CE00D513";
paths = (
{
closed = 1;
nodes = (
"392 453 QCURVE",
"385 429 OFFCURVE",
"385 407 QCURVE SMOOTH",
"385 376 OFFCURVE",
"395 362 QCURVE",
"401 373 OFFCURVE",
"400 423 QCURVE SMOOTH",
"399 441 OFFCURVE"
);
},
{
closed = 1;
nodes = (
"799 417 LINE",
"799 490 OFFCURVE",
"692 592 OFFCURVE",
"618 592 QCURVE SMOOTH",
"568 592 OFFCURVE",
"461 546 OFFCURVE",
"427 510 QCURVE",
"458 459 OFFCURVE",
"458 426 QCURVE SMOOTH",
"458 390 OFFCURVE",
"446 360 QCURVE SMOOTH",
"430 320 OFFCURVE",
"401 320 QCURVE SMOOTH",
"370 320 OFFCURVE",
"348 349 QCURVE",
"327 375 OFFCURVE",
"327 407 QCURVE SMOOTH",
"327 465 OFFCURVE",
"361 514 QCURVE",
"306 591 OFFCURVE",
"239 591 QCURVE SMOOTH",
"165 591 OFFCURVE",
"77 507 OFFCURVE",
"77 433 QCURVE SMOOTH",
"77 404 OFFCURVE",
"136 274 QCURVE SMOOTH",
"192 151 OFFCURVE",
"216 122 QCURVE SMOOTH",
"219 119 OFFCURVE",
"219 114 QCURVE SMOOTH",
"219 104 OFFCURVE",
"190 84 OFFCURVE",
"180 84 QCURVE SMOOTH",
"171 84 OFFCURVE",
"167 90 QCURVE SMOOTH",
"136 129 OFFCURVE",
"80 256 QCURVE SMOOTH",
"19 393 OFFCURVE",
"19 433 QCURVE SMOOTH",
"19 534 OFFCURVE",
"137 649 OFFCURVE",
"239 649 QCURVE SMOOTH",
"321 649 OFFCURVE",
"395 556 QCURVE",
"436 596 OFFCURVE",
"563 650 OFFCURVE",
"618 650 QCURVE SMOOTH",
"714 650 OFFCURVE",
"857 512 OFFCURVE",
"857 417 QCURVE"
);
},
{
closed = 1;
nodes = (
"675 644 LINE",
"675 886 LINE SMOOTH",
"675 904 OFFCURVE",
"704 904 QCURVE SMOOTH",
"733 904 OFFCURVE",
"733 886 QCURVE SMOOTH",
"733 617 LINE"
);
},
{
closed = 1;
nodes = (
"963 109 QCURVE SMOOTH",
"888 1 OFFCURVE",
"752 1 QCURVE SMOOTH",
"652 1 OFFCURVE",
"591 46 QCURVE SMOOTH",
"523 96 OFFCURVE",
"523 193 QCURVE SMOOTH",
"523 254 OFFCURVE",
"589 303 QCURVE SMOOTH",
"606 315 OFFCURVE",
"688 362 QCURVE SMOOTH",
"790 421 OFFCURVE",
"825 439 QCURVE SMOOTH",
"837 445 OFFCURVE",
"847 428 QCURVE",
"854 414 OFFCURVE",
"854 401 QCURVE SMOOTH",
"854 389 OFFCURVE",
"846 384 QCURVE SMOOTH",
"796 356 LINE SMOOTH",
"684 293 OFFCURVE",
"581 240 OFFCURVE",
"581 193 QCURVE SMOOTH",
"581 59 OFFCURVE",
"752 59 QCURVE SMOOTH",
"804 59 OFFCURVE",
"846 91 QCURVE SMOOTH",
"865 106 OFFCURVE",
"922 149 QCURVE SMOOTH",
"926 152 OFFCURVE",
"931 152 QCURVE",
"931 152 LINE",
"946 152 OFFCURVE",
"972 122 OFFCURVE"
);
}
);
width = 1008;
}
);
unicode = 0A8C;
},
{
glyphname = uni0A8D;
lastChange = "2017-06-08 06:27:27 +0000";
layers = (
{
anchors = (
{
name = "Anchor-4";
position = "{869, 770}";
}
);
layerId = "8D630CB6-6CFC-4A7D-AC95-7C82CE00D513";
paths = (
{
closed = 1;
nodes = (
"1098 88 QCURVE SMOOTH",
"1033 -20 OFFCURVE",
"972 -20 QCURVE SMOOTH",
"902 -20 OFFCURVE",
"818 53 OFFCURVE",
"818 122 QCURVE SMOOTH",
"818 788 LINE SMOOTH",
"818 805 OFFCURVE",
"847 805 QCURVE SMOOTH",
"876 805 OFFCURVE",
"876 788 QCURVE SMOOTH",
"876 122 LINE SMOOTH",
"876 38 OFFCURVE",
"972 38 QCURVE SMOOTH",
"998 38 OFFCURVE",
"1044 111 QCURVE",
"1050 117 OFFCURVE",
"1060 117 QCURVE",
"1060 117 LINE",
"1073 117 OFFCURVE",
"1088 110 QCURVE",
"1105 100 OFFCURVE"
);
},
{
closed = 1;
nodes = (
"437 1187 QCURVE",
"437 1187 LINE",
"437 1200 OFFCURVE",
"460 1203 QCURVE SMOOTH",
"485 1206 OFFCURVE",
"494 1190 QCURVE SMOOTH",
"588 1012 OFFCURVE",
"598 998 QCURVE SMOOTH",
"666 898 OFFCURVE",
"741 898 QCURVE SMOOTH",
"774 898 OFFCURVE",
"821 918 QCURVE SMOOTH",
"835 924 OFFCURVE",
"856 895 OFFCURVE",
"856 880 QCURVE SMOOTH",
"856 870 OFFCURVE",
"847 866 QCURVE SMOOTH",
"807 846 LINE",
"788 840 OFFCURVE",
"741 840 QCURVE SMOOTH",
"660 840 OFFCURVE",
"572 963 QCURVE SMOOTH",
"557 984 OFFCURVE",
"437 1181 OFFCURVE"
);
},
{
closed = 1;
nodes = (
"161 381 QCURVE",
"145 404 OFFCURVE",
"117 404 QCURVE SMOOTH",
"106 404 OFFCURVE",
"101 395 QCURVE SMOOTH",
"97 388 OFFCURVE",
"103 382 QCURVE SMOOTH",
"120 364 OFFCURVE"
);
},
{
closed = 1;
nodes = (
"591 494 QCURVE",
"592 502 OFFCURVE",
"583 540 OFFCURVE",
"575 536 QCURVE SMOOTH",
"569 533 OFFCURVE",
"569 527 QCURVE SMOOTH",
"569 505 OFFCURVE"
);
},
{
closed = 1;
nodes = (
"822 436 LINE",
"802 418 OFFCURVE",
"750 395 QCURVE",
"737 392 OFFCURVE",
"720 392 QCURVE SMOOTH",
"688 392 OFFCURVE",
"641 401 QCURVE",
"625 330 OFFCURVE",
"569 259 QCURVE SMOOTH",
"508 181 OFFCURVE",
"410 180 QCURVE",
"315 178 OFFCURVE",
"213 285 QCURVE SMOOTH",
"200 298 OFFCURVE",
"187 330 QCURVE",
"149 319 OFFCURVE",
"122 319 QCURVE SMOOTH",
"42 319 OFFCURVE",
"42 394 QCURVE SMOOTH",
"42 459 OFFCURVE",
"116 462 QCURVE SMOOTH",
"161 464 OFFCURVE",
"204 398 QCURVE",
"349 465 OFFCURVE",
"349 589 QCURVE SMOOTH",
"349 634 OFFCURVE",
"319 681 QCURVE",
"282 736 OFFCURVE",
"213 736 QCURVE SMOOTH",
"182 736 OFFCURVE",
"126 710 QCURVE SMOOTH",
"70 683 LINE",
"58 683 OFFCURVE",
"48 698 QCURVE SMOOTH",
"39 710 OFFCURVE",
"39 723 QCURVE SMOOTH",
"39 730 OFFCURVE",
"43 731 QCURVE",
"148 794 OFFCURVE",
"213 794 QCURVE SMOOTH",
"311 794 OFFCURVE",
"362 724 QCURVE SMOOTH",
"407 663 OFFCURVE",
"407 589 QCURVE SMOOTH",
"407 440 OFFCURVE",
"236 349 QCURVE",
"241 341 OFFCURVE",
"256 324 QCURVE SMOOTH",
"338 236 OFFCURVE",
"410 237 QCURVE SMOOTH",
"492 239 OFFCURVE",
"537 310 QCURVE SMOOTH",
"577 372 OFFCURVE",
"586 429 QCURVE",
"566 442 OFFCURVE",
"533 475 QCURVE",
"517 501 OFFCURVE",
"517 531 QCURVE SMOOTH",
"517 587 OFFCURVE",
"576 594 QCURVE SMOOTH",
"644 601 OFFCURVE",
"656 502 QCURVE SMOOTH",
"656 494 OFFCURVE",
"652 463 OFFCURVE",
"652 455 QCURVE",
"692 446 OFFCURVE",
"738 453 QCURVE SMOOTH",
"756 456 OFFCURVE",
"782 473 QCURVE SMOOTH",
"817 497 OFFCURVE",
"822 500 QCURVE"
);
}
);
width = 1193;
}
);
unicode = 0A8D;
},
{
glyphname = uni0A8F;
lastChange = "2017-06-08 06:27:27 +0000";
layers = (
{
anchors = (
{
name = "Anchor-4";
position = "{880, 770}";
}
);
layerId = "8D630CB6-6CFC-4A7D-AC95-7C82CE00D513";
paths = (
{
closed = 1;
nodes = (
"1098 88 QCURVE SMOOTH",
"1033 -20 OFFCURVE",
"972 -20 QCURVE SMOOTH",
"902 -20 OFFCURVE",
"818 53 OFFCURVE",
"818 122 QCURVE SMOOTH",
"818 788 LINE SMOOTH",
"818 805 OFFCURVE",
"847 805 QCURVE SMOOTH",
"876 805 OFFCURVE",
"876 788 QCURVE SMOOTH",
"876 122 LINE SMOOTH",
"876 38 OFFCURVE",
"972 38 QCURVE SMOOTH",
"998 38 OFFCURVE",
"1044 111 QCURVE",
"1050 117 OFFCURVE",
"1060 117 QCURVE",
"1060 117 LINE",
"1073 117 OFFCURVE",
"1088 110 QCURVE",
"1105 100 OFFCURVE"
);
},
{
closed = 1;
nodes = (
"834 856 QCURVE",
"834 856 LINE",
"834 843 OFFCURVE",
"811 840 QCURVE SMOOTH",
"786 837 OFFCURVE",
"778 853 QCURVE SMOOTH",
"683 1031 OFFCURVE",
"673 1045 QCURVE SMOOTH",
"605 1145 OFFCURVE",
"530 1145 QCURVE SMOOTH",
"498 1145 OFFCURVE",
"450 1125 QCURVE SMOOTH",
"437 1119 OFFCURVE",
"425 1135 QCURVE SMOOTH",
"416 1148 OFFCURVE",
"416 1163 QCURVE SMOOTH",
"416 1173 OFFCURVE",
"424 1177 QCURVE SMOOTH",
"465 1197 LINE",
"484 1203 OFFCURVE",
"530 1203 QCURVE SMOOTH",
"611 1203 OFFCURVE",
"699 1080 QCURVE",
"716 1058 OFFCURVE",
"773 963 QCURVE SMOOTH",
"834 863 OFFCURVE"
);
},
{
closed = 1;
nodes = (
"161 381 QCURVE",
"145 404 OFFCURVE",
"117 404 QCURVE SMOOTH",
"106 404 OFFCURVE",
"101 395 QCURVE SMOOTH",
"97 388 OFFCURVE",
"103 382 QCURVE SMOOTH",
"120 364 OFFCURVE"
);
},
{
closed = 1;
nodes = (
"591 494 QCURVE",
"592 502 OFFCURVE",
"583 540 OFFCURVE",
"575 536 QCURVE SMOOTH",
"569 533 OFFCURVE",
"569 527 QCURVE SMOOTH",
"569 505 OFFCURVE"
);
},
{
closed = 1;
nodes = (
"822 436 LINE",
"802 418 OFFCURVE",
"750 395 QCURVE",
"737 392 OFFCURVE",
"720 392 QCURVE SMOOTH",
"688 392 OFFCURVE",
"641 401 QCURVE",
"625 330 OFFCURVE",
"569 259 QCURVE SMOOTH",
"508 181 OFFCURVE",
"410 180 QCURVE",
"315 178 OFFCURVE",
"213 285 QCURVE SMOOTH",
"200 298 OFFCURVE",
"187 330 QCURVE",
"149 319 OFFCURVE",
"122 319 QCURVE SMOOTH",
"42 319 OFFCURVE",
"42 394 QCURVE SMOOTH",
"42 459 OFFCURVE",
"116 462 QCURVE SMOOTH",
"161 464 OFFCURVE",
"204 398 QCURVE",
"349 465 OFFCURVE",
"349 589 QCURVE SMOOTH",
"349 634 OFFCURVE",
"319 681 QCURVE",
"282 736 OFFCURVE",
"213 736 QCURVE SMOOTH",
"182 736 OFFCURVE",
"126 710 QCURVE SMOOTH",
"70 683 LINE",
"58 683 OFFCURVE",
"48 698 QCURVE SMOOTH",
"39 710 OFFCURVE",
"39 723 QCURVE SMOOTH",
"39 730 OFFCURVE",
"43 731 QCURVE",
"148 794 OFFCURVE",
"213 794 QCURVE SMOOTH",
"311 794 OFFCURVE",
"362 724 QCURVE SMOOTH",
"407 663 OFFCURVE",
"407 589 QCURVE SMOOTH",
"407 440 OFFCURVE",
"236 349 QCURVE",
"241 341 OFFCURVE",
"256 324 QCURVE SMOOTH",
"338 236 OFFCURVE",
"410 237 QCURVE SMOOTH",
"492 239 OFFCURVE",
"537 310 QCURVE SMOOTH",
"577 372 OFFCURVE",
"586 429 QCURVE",
"566 442 OFFCURVE",
"533 475 QCURVE",
"517 501 OFFCURVE",
"517 531 QCURVE SMOOTH",
"517 587 OFFCURVE",
"576 594 QCURVE SMOOTH",
"644 601 OFFCURVE",
"656 502 QCURVE SMOOTH",
"656 494 OFFCURVE",
"652 463 OFFCURVE",
"652 455 QCURVE",
"692 446 OFFCURVE",
"738 453 QCURVE SMOOTH",
"756 456 OFFCURVE",
"782 473 QCURVE SMOOTH",
"817 497 OFFCURVE",
"822 500 QCURVE"
);
}
);
width = 1193;
}
);
unicode = 0A8F;
},
{
glyphname = uni0A90;
lastChange = "2017-06-08 06:27:27 +0000";
layers = (
{
anchors = (
{
name = "Anchor-4";
position = "{913, 858}";
}
);
layerId = "8D630CB6-6CFC-4A7D-AC95-7C82CE00D513";
paths = (
{
closed = 1;
nodes = (
"1098 88 QCURVE SMOOTH",
"1033 -20 OFFCURVE",
"972 -20 QCURVE SMOOTH",
"902 -20 OFFCURVE",
"818 53 OFFCURVE",
"818 122 QCURVE SMOOTH",
"818 788 LINE SMOOTH",
"818 805 OFFCURVE",
"847 805 QCURVE SMOOTH",
"876 805 OFFCURVE",
"876 788 QCURVE SMOOTH",
"876 122 LINE SMOOTH",
"876 38 OFFCURVE",
"972 38 QCURVE SMOOTH",
"998 38 OFFCURVE",
"1044 111 QCURVE",
"1050 117 OFFCURVE",
"1060 117 QCURVE",
"1060 117 LINE",
"1073 117 OFFCURVE",
"1088 110 QCURVE",
"1105 100 OFFCURVE"
);
},
{
closed = 1;
nodes = (
"856 901 QCURVE SMOOTH",
"861 887 OFFCURVE",
"831 864 OFFCURVE",
"817 864 QCURVE SMOOTH",
"807 864 OFFCURVE",
"804 872 QCURVE SMOOTH",
"743 1024 OFFCURVE",
"699 1090 QCURVE SMOOTH",
"632 1192 OFFCURVE",
"539 1221 QCURVE SMOOTH",
"514 1228 OFFCURVE",
"471 1213 QCURVE SMOOTH",
"458 1209 OFFCURVE",
"436 1239 OFFCURVE",
"436 1253 QCURVE SMOOTH",
"436 1263 OFFCURVE",
"445 1266 QCURVE SMOOTH",
"519 1285 OFFCURVE",
"571 1268 QCURVE SMOOTH",
"722 1220 OFFCURVE"
);
},
{
closed = 1;
nodes = (
"757 867 QCURVE",
"762 864 OFFCURVE",
"762 854 QCURVE",
"762 854 LINE",
"762 839 OFFCURVE",
"736 809 OFFCURVE",
"723 821 QCURVE SMOOTH",
"595 940 OFFCURVE",
"563 963 QCURVE SMOOTH",
"477 1027 OFFCURVE",
"401 1027 QCURVE SMOOTH",
"369 1027 OFFCURVE",
"321 1006 QCURVE SMOOTH",
"308 1001 OFFCURVE",
"287 1030 OFFCURVE",
"287 1044 QCURVE SMOOTH",
"287 1054 OFFCURVE",
"295 1058 QCURVE SMOOTH",
"336 1079 LINE",
"355 1085 OFFCURVE",
"401 1085 QCURVE SMOOTH",
"482 1085 OFFCURVE",
"581 1015 QCURVE SMOOTH",
"623 985 OFFCURVE"
);
},
{
closed = 1;
nodes = (
"161 381 QCURVE",
"145 404 OFFCURVE",
"117 404 QCURVE SMOOTH",
"106 404 OFFCURVE",
"101 395 QCURVE SMOOTH",
"97 388 OFFCURVE",
"103 382 QCURVE SMOOTH",
"120 364 OFFCURVE"
);
},
{
closed = 1;
nodes = (
"591 494 QCURVE",
"592 502 OFFCURVE",
"583 540 OFFCURVE",
"575 536 QCURVE SMOOTH",
"569 533 OFFCURVE",
"569 527 QCURVE SMOOTH",
"569 505 OFFCURVE"
);
},
{
closed = 1;
nodes = (
"822 436 LINE",
"802 418 OFFCURVE",
"750 395 QCURVE",
"737 392 OFFCURVE",
"720 392 QCURVE SMOOTH",
"688 392 OFFCURVE",
"641 401 QCURVE",
"625 330 OFFCURVE",
"569 259 QCURVE SMOOTH",
"508 181 OFFCURVE",
"410 180 QCURVE",
"315 178 OFFCURVE",
"213 285 QCURVE SMOOTH",
"200 298 OFFCURVE",
"187 330 QCURVE",
"149 319 OFFCURVE",
"122 319 QCURVE SMOOTH",
"42 319 OFFCURVE",
"42 394 QCURVE SMOOTH",
"42 459 OFFCURVE",
"116 462 QCURVE SMOOTH",
"161 464 OFFCURVE",
"204 398 QCURVE",
"349 465 OFFCURVE",
"349 589 QCURVE SMOOTH",
"349 634 OFFCURVE",
"319 681 QCURVE",
"282 736 OFFCURVE",
"213 736 QCURVE SMOOTH",
"182 736 OFFCURVE",
"126 710 QCURVE SMOOTH",
"70 683 LINE",
"58 683 OFFCURVE",
"48 698 QCURVE SMOOTH",
"39 710 OFFCURVE",
"39 723 QCURVE SMOOTH",
"39 730 OFFCURVE",
"43 731 QCURVE",
"148 794 OFFCURVE",
"213 794 QCURVE SMOOTH",
"311 794 OFFCURVE",
"362 724 QCURVE SMOOTH",
"407 663 OFFCURVE",
"407 589 QCURVE SMOOTH",
"407 440 OFFCURVE",
"236 349 QCURVE",
"241 341 OFFCURVE",
"256 324 QCURVE SMOOTH",
"338 236 OFFCURVE",
"410 237 QCURVE SMOOTH",
"492 239 OFFCURVE",
"537 310 QCURVE SMOOTH",
"577 372 OFFCURVE",
"586 429 QCURVE",
"566 442 OFFCURVE",
"533 475 QCURVE",
"517 501 OFFCURVE",
"517 531 QCURVE SMOOTH",
"517 587 OFFCURVE",
"576 594 QCURVE SMOOTH",
"644 601 OFFCURVE",
"656 502 QCURVE SMOOTH",
"656 494 OFFCURVE",
"652 463 OFFCURVE",
"652 455 QCURVE",
"692 446 OFFCURVE",
"738 453 QCURVE SMOOTH",
"756 456 OFFCURVE",
"782 473 QCURVE SMOOTH",
"817 497 OFFCURVE",
"822 500 QCURVE"
);
}
);
width = 1193;
}
);
unicode = 0A90;
},
{
glyphname = uni0A91;
lastChange = "2017-06-08 06:27:27 +0000";
layers = (
{
anchors = (
{
name = "Anchor-4";
position = "{1210, 781}";
}
);
layerId = "8D630CB6-6CFC-4A7D-AC95-7C82CE00D513";
paths = (
{
closed = 1;
nodes = (
"1098 88 QCURVE SMOOTH",
"1033 -20 OFFCURVE",
"972 -20 QCURVE SMOOTH",
"902 -20 OFFCURVE",
"818 53 OFFCURVE",
"818 122 QCURVE SMOOTH",
"818 788 LINE SMOOTH",
"818 805 OFFCURVE",
"847 805 QCURVE SMOOTH",
"876 805 OFFCURVE",
"876 788 QCURVE SMOOTH",
"876 122 LINE SMOOTH",
"876 38 OFFCURVE",
"972 38 QCURVE SMOOTH",
"998 38 OFFCURVE",
"1044 111 QCURVE",
"1050 117 OFFCURVE",
"1060 117 QCURVE",
"1060 117 LINE",
"1073 117 OFFCURVE",
"1088 110 QCURVE",
"1105 100 OFFCURVE"
);
},
{
closed = 1;
nodes = (
"1429 88 QCURVE SMOOTH",
"1365 -20 OFFCURVE",
"1303 -20 QCURVE SMOOTH",
"1234 -20 OFFCURVE",
"1150 53 OFFCURVE",
"1150 122 QCURVE SMOOTH",
"1150 788 LINE SMOOTH",
"1150 805 OFFCURVE",
"1179 805 QCURVE SMOOTH",
"1208 805 OFFCURVE",
"1208 788 QCURVE SMOOTH",
"1208 122 LINE SMOOTH",
"1208 38 OFFCURVE",
"1303 38 QCURVE SMOOTH",
"1329 38 OFFCURVE",
"1376 111 QCURVE",
"1382 117 OFFCURVE",
"1392 117 QCURVE",
"1392 117 LINE",
"1405 117 OFFCURVE",
"1419 110 QCURVE",
"1436 100 OFFCURVE"
);
},
{
closed = 1;
nodes = (
"814 1216 QCURVE",
"814 1216 LINE",
"814 1229 OFFCURVE",
"837 1232 QCURVE SMOOTH",
"862 1235 OFFCURVE",
"870 1219 QCURVE SMOOTH",
"965 1041 OFFCURVE",
"975 1027 QCURVE SMOOTH",
"1043 927 OFFCURVE",
"1118 927 QCURVE SMOOTH",
"1150 927 OFFCURVE",
"1197 947 QCURVE SMOOTH",
"1211 953 OFFCURVE",
"1232 924 OFFCURVE",
"1232 909 QCURVE SMOOTH",
"1232 899 OFFCURVE",
"1224 895 QCURVE SMOOTH",
"1183 875 LINE",
"1164 869 OFFCURVE",
"1118 869 QCURVE SMOOTH",
"1037 869 OFFCURVE",
"948 992 QCURVE SMOOTH",
"934 1013 OFFCURVE",
"814 1210 OFFCURVE"
);
},
{
closed = 1;
nodes = (
"161 381 QCURVE",
"145 404 OFFCURVE",
"117 404 QCURVE SMOOTH",
"106 404 OFFCURVE",
"101 395 QCURVE SMOOTH",
"97 388 OFFCURVE",
"103 382 QCURVE SMOOTH",
"120 364 OFFCURVE"
);
},
{
closed = 1;
nodes = (
"591 494 QCURVE",
"592 502 OFFCURVE",
"583 540 OFFCURVE",
"575 536 QCURVE SMOOTH",
"569 533 OFFCURVE",
"569 527 QCURVE SMOOTH",
"569 505 OFFCURVE"
);
},
{
closed = 1;
nodes = (
"822 436 LINE",
"802 418 OFFCURVE",
"750 395 QCURVE",
"737 392 OFFCURVE",
"720 392 QCURVE SMOOTH",
"688 392 OFFCURVE",
"641 401 QCURVE",
"625 330 OFFCURVE",
"569 259 QCURVE SMOOTH",
"508 181 OFFCURVE",
"410 180 QCURVE",
"315 178 OFFCURVE",
"213 285 QCURVE SMOOTH",
"200 298 OFFCURVE",
"187 330 QCURVE",
"149 319 OFFCURVE",
"122 319 QCURVE SMOOTH",
"42 319 OFFCURVE",
"42 394 QCURVE SMOOTH",
"42 459 OFFCURVE",
"116 462 QCURVE SMOOTH",
"161 464 OFFCURVE",
"204 398 QCURVE",
"349 465 OFFCURVE",
"349 589 QCURVE SMOOTH",
"349 634 OFFCURVE",
"319 681 QCURVE",
"282 736 OFFCURVE",
"213 736 QCURVE SMOOTH",
"182 736 OFFCURVE",
"126 710 QCURVE SMOOTH",
"70 683 LINE",
"58 683 OFFCURVE",
"48 698 QCURVE SMOOTH",
"39 710 OFFCURVE",
"39 723 QCURVE SMOOTH",
"39 730 OFFCURVE",
"43 731 QCURVE",
"148 794 OFFCURVE",
"213 794 QCURVE SMOOTH",
"311 794 OFFCURVE",
"362 724 QCURVE SMOOTH",
"407 663 OFFCURVE",
"407 589 QCURVE SMOOTH",
"407 440 OFFCURVE",
"236 349 QCURVE",
"241 341 OFFCURVE",
"256 324 QCURVE SMOOTH",
"338 236 OFFCURVE",
"410 237 QCURVE SMOOTH",
"492 239 OFFCURVE",
"537 310 QCURVE SMOOTH",
"577 372 OFFCURVE",
"586 429 QCURVE",
"566 442 OFFCURVE",
"533 475 QCURVE",
"517 501 OFFCURVE",
"517 531 QCURVE SMOOTH",
"517 587 OFFCURVE",
"576 594 QCURVE SMOOTH",
"644 601 OFFCURVE",
"656 502 QCURVE SMOOTH",
"656 494 OFFCURVE",
"652 463 OFFCURVE",
"652 455 QCURVE",
"692 446 OFFCURVE",
"738 453 QCURVE SMOOTH",
"756 456 OFFCURVE",
"782 473 QCURVE SMOOTH",
"817 497 OFFCURVE",
"822 500 QCURVE"
);
}
);
width = 1552;
}
);
unicode = 0A91;
},
{
glyphname = uni0A93;
lastChange = "2017-06-08 06:27:27 +0000";
layers = (
{
anchors = (
{
name = "Anchor-4";
position = "{1232, 803}";
}
);
layerId = "8D630CB6-6CFC-4A7D-AC95-7C82CE00D513";
paths = (
{
closed = 1;
nodes = (
"1098 88 QCURVE SMOOTH",
"1033 -20 OFFCURVE",
"972 -20 QCURVE SMOOTH",
"902 -20 OFFCURVE",
"818 53 OFFCURVE",
"818 122 QCURVE SMOOTH",
"818 788 LINE SMOOTH",
"818 805 OFFCURVE",
"847 805 QCURVE SMOOTH",
"876 805 OFFCURVE",
"876 788 QCURVE SMOOTH",
"876 122 LINE SMOOTH",
"876 38 OFFCURVE",
"972 38 QCURVE SMOOTH",
"998 38 OFFCURVE",
"1044 111 QCURVE",
"1050 117 OFFCURVE",
"1060 117 QCURVE",
"1060 117 LINE",
"1073 117 OFFCURVE",
"1088 110 QCURVE",
"1105 100 OFFCURVE"
);
},
{
closed = 1;
nodes = (
"1429 88 QCURVE SMOOTH",
"1365 -20 OFFCURVE",
"1303 -20 QCURVE SMOOTH",
"1234 -20 OFFCURVE",
"1150 53 OFFCURVE",
"1150 122 QCURVE SMOOTH",
"1150 788 LINE SMOOTH",
"1150 805 OFFCURVE",
"1179 805 QCURVE SMOOTH",
"1208 805 OFFCURVE",
"1208 788 QCURVE SMOOTH",
"1208 122 LINE SMOOTH",
"1208 38 OFFCURVE",
"1303 38 QCURVE SMOOTH",
"1329 38 OFFCURVE",
"1376 111 QCURVE",
"1382 117 OFFCURVE",
"1392 117 QCURVE",
"1392 117 LINE",
"1405 117 OFFCURVE",
"1419 110 QCURVE",
"1436 100 OFFCURVE"
);
},
{
closed = 1;
nodes = (
"1182 856 QCURVE",
"1182 856 LINE",
"1182 843 OFFCURVE",
"1158 840 QCURVE SMOOTH",
"1134 837 OFFCURVE",
"1125 853 QCURVE SMOOTH",
"1031 1031 OFFCURVE",
"1021 1045 QCURVE SMOOTH",
"953 1145 OFFCURVE",
"877 1145 QCURVE SMOOTH",
"845 1145 OFFCURVE",
"798 1125 QCURVE SMOOTH",
"784 1119 OFFCURVE",
"773 1135 QCURVE SMOOTH",
"763 1148 OFFCURVE",
"763 1163 QCURVE SMOOTH",
"763 1173 OFFCURVE",
"772 1177 QCURVE SMOOTH",
"812 1197 LINE",
"831 1203 OFFCURVE",
"877 1203 QCURVE SMOOTH",
"959 1203 OFFCURVE",
"1047 1080 QCURVE SMOOTH",
"1063 1058 OFFCURVE",
"1121 963 QCURVE SMOOTH",
"1182 863 OFFCURVE"
);
},
{
closed = 1;
nodes = (
"161 381 QCURVE",
"145 404 OFFCURVE",
"117 404 QCURVE SMOOTH",
"106 404 OFFCURVE",
"101 395 QCURVE SMOOTH",
"97 388 OFFCURVE",
"103 382 QCURVE SMOOTH",
"120 364 OFFCURVE"
);
},
{
closed = 1;
nodes = (
"591 494 QCURVE",
"592 502 OFFCURVE",
"583 540 OFFCURVE",
"575 536 QCURVE SMOOTH",
"569 533 OFFCURVE",
"569 527 QCURVE SMOOTH",
"569 505 OFFCURVE"
);
},
{
closed = 1;
nodes = (
"822 436 LINE",
"802 418 OFFCURVE",
"750 395 QCURVE",
"737 392 OFFCURVE",
"720 392 QCURVE SMOOTH",
"688 392 OFFCURVE",
"641 401 QCURVE",
"625 330 OFFCURVE",
"569 259 QCURVE SMOOTH",
"508 181 OFFCURVE",
"410 180 QCURVE",
"315 178 OFFCURVE",
"213 285 QCURVE SMOOTH",
"200 298 OFFCURVE",
"187 330 QCURVE",
"149 319 OFFCURVE",
"122 319 QCURVE SMOOTH",
"42 319 OFFCURVE",
"42 394 QCURVE SMOOTH",
"42 459 OFFCURVE",
"116 462 QCURVE SMOOTH",
"161 464 OFFCURVE",
"204 398 QCURVE",
"349 465 OFFCURVE",
"349 589 QCURVE SMOOTH",
"349 634 OFFCURVE",
"319 681 QCURVE",
"282 736 OFFCURVE",
"213 736 QCURVE SMOOTH",
"182 736 OFFCURVE",
"126 710 QCURVE SMOOTH",
"70 683 LINE",
"58 683 OFFCURVE",
"48 698 QCURVE SMOOTH",
"39 710 OFFCURVE",
"39 723 QCURVE SMOOTH",
"39 730 OFFCURVE",
"43 731 QCURVE",
"148 794 OFFCURVE",
"213 794 QCURVE SMOOTH",
"311 794 OFFCURVE",
"362 724 QCURVE SMOOTH",
"407 663 OFFCURVE",
"407 589 QCURVE SMOOTH",
"407 440 OFFCURVE",
"236 349 QCURVE",
"241 341 OFFCURVE",
"256 324 QCURVE SMOOTH",
"338 236 OFFCURVE",
"410 237 QCURVE SMOOTH",
"492 239 OFFCURVE",
"537 310 QCURVE SMOOTH",
"577 372 OFFCURVE",
"586 429 QCURVE",
"566 442 OFFCURVE",
"533 475 QCURVE",
"517 501 OFFCURVE",
"517 531 QCURVE SMOOTH",
"517 587 OFFCURVE",
"576 594 QCURVE SMOOTH",
"644 601 OFFCURVE",
"656 502 QCURVE SMOOTH",
"656 494 OFFCURVE",
"652 463 OFFCURVE",
"652 455 QCURVE",
"692 446 OFFCURVE",
"738 453 QCURVE SMOOTH",
"756 456 OFFCURVE",
"782 473 QCURVE SMOOTH",
"817 497 OFFCURVE",
"822 500 QCURVE"
);
}
);
width = 1552;
}
);
unicode = 0A93;
},
{
glyphname = uni0A94;
lastChange = "2017-06-08 06:27:27 +0000";
layers = (
{
anchors = (
{
name = "Anchor-4";
position = "{1221, 902}";
}
);
layerId = "8D630CB6-6CFC-4A7D-AC95-7C82CE00D513";
paths = (
{
closed = 1;
nodes = (
"1098 88 QCURVE SMOOTH",
"1033 -20 OFFCURVE",
"972 -20 QCURVE SMOOTH",
"902 -20 OFFCURVE",
"818 53 OFFCURVE",
"818 122 QCURVE SMOOTH",
"818 788 LINE SMOOTH",
"818 805 OFFCURVE",
"847 805 QCURVE SMOOTH",
"876 805 OFFCURVE",
"876 788 QCURVE SMOOTH",
"876 122 LINE SMOOTH",
"876 38 OFFCURVE",
"972 38 QCURVE SMOOTH",
"998 38 OFFCURVE",
"1044 111 QCURVE",
"1050 117 OFFCURVE",
"1060 117 QCURVE",
"1060 117 LINE",
"1073 117 OFFCURVE",
"1088 110 QCURVE",
"1105 100 OFFCURVE"
);
},
{
closed = 1;
nodes = (
"1429 88 QCURVE SMOOTH",
"1365 -20 OFFCURVE",
"1303 -20 QCURVE SMOOTH",
"1234 -20 OFFCURVE",
"1150 53 OFFCURVE",
"1150 122 QCURVE SMOOTH",
"1150 788 LINE SMOOTH",
"1150 805 OFFCURVE",
"1179 805 QCURVE SMOOTH",
"1208 805 OFFCURVE",
"1208 788 QCURVE SMOOTH",
"1208 122 LINE SMOOTH",
"1208 38 OFFCURVE",
"1303 38 QCURVE SMOOTH",
"1329 38 OFFCURVE",
"1376 111 QCURVE",
"1382 117 OFFCURVE",
"1392 117 QCURVE",
"1392 117 LINE",
"1405 117 OFFCURVE",
"1419 110 QCURVE",
"1436 100 OFFCURVE"
);
},
{
closed = 1;
nodes = (
"1189 901 QCURVE SMOOTH",
"1195 887 OFFCURVE",
"1164 864 OFFCURVE",
"1150 864 QCURVE SMOOTH",
"1140 864 OFFCURVE",
"1137 872 QCURVE SMOOTH",
"1076 1024 OFFCURVE",
"1032 1090 QCURVE SMOOTH",
"965 1192 OFFCURVE",
"872 1221 QCURVE SMOOTH",
"847 1228 OFFCURVE",
"804 1213 QCURVE SMOOTH",
"791 1209 OFFCURVE",
"769 1239 OFFCURVE",
"769 1253 QCURVE SMOOTH",
"769 1263 OFFCURVE",
"778 1266 QCURVE SMOOTH",
"852 1285 OFFCURVE",
"904 1268 QCURVE SMOOTH",
"1055 1220 OFFCURVE"
);
},
{
closed = 1;
nodes = (
"1090 867 QCURVE",
"1095 864 OFFCURVE",
"1095 854 QCURVE",
"1095 854 LINE",
"1095 839 OFFCURVE",
"1069 809 OFFCURVE",
"1056 821 QCURVE SMOOTH",
"928 940 OFFCURVE",
"896 963 QCURVE SMOOTH",
"810 1027 OFFCURVE",
"734 1027 QCURVE SMOOTH",
"702 1027 OFFCURVE",
"654 1006 QCURVE SMOOTH",
"641 1001 OFFCURVE",
"620 1030 OFFCURVE",
"620 1044 QCURVE SMOOTH",
"620 1054 OFFCURVE",
"628 1058 QCURVE SMOOTH",
"669 1079 LINE",
"688 1085 OFFCURVE",
"734 1085 QCURVE SMOOTH",
"815 1085 OFFCURVE",
"914 1015 QCURVE SMOOTH",
"956 985 OFFCURVE"
);
},
{
closed = 1;
nodes = (
"161 381 QCURVE",
"145 404 OFFCURVE",
"117 404 QCURVE SMOOTH",
"106 404 OFFCURVE",
"101 395 QCURVE SMOOTH",
"97 388 OFFCURVE",
"103 382 QCURVE SMOOTH",
"120 364 OFFCURVE"
);
},
{
closed = 1;
nodes = (
"591 494 QCURVE",
"592 502 OFFCURVE",
"583 540 OFFCURVE",
"575 536 QCURVE SMOOTH",
"569 533 OFFCURVE",
"569 527 QCURVE SMOOTH",
"569 505 OFFCURVE"
);
},
{
closed = 1;
nodes = (
"822 436 LINE",
"802 418 OFFCURVE",
"750 395 QCURVE",
"737 392 OFFCURVE",
"720 392 QCURVE SMOOTH",
"688 392 OFFCURVE",
"641 401 QCURVE",
"625 330 OFFCURVE",
"569 259 QCURVE SMOOTH",
"508 181 OFFCURVE",
"410 180 QCURVE",
"315 178 OFFCURVE",
"213 285 QCURVE SMOOTH",
"200 298 OFFCURVE",
"187 330 QCURVE",
"149 319 OFFCURVE",
"122 319 QCURVE SMOOTH",
"42 319 OFFCURVE",
"42 394 QCURVE SMOOTH",
"42 459 OFFCURVE",
"116 462 QCURVE SMOOTH",
"161 464 OFFCURVE",
"204 398 QCURVE",
"349 465 OFFCURVE",
"349 589 QCURVE SMOOTH",
"349 634 OFFCURVE",
"319 681 QCURVE",
"282 736 OFFCURVE",
"213 736 QCURVE SMOOTH",
"182 736 OFFCURVE",
"126 710 QCURVE SMOOTH",
"70 683 LINE",
"58 683 OFFCURVE",
"48 698 QCURVE SMOOTH",
"39 710 OFFCURVE",
"39 723 QCURVE SMOOTH",
"39 730 OFFCURVE",
"43 731 QCURVE",
"148 794 OFFCURVE",
"213 794 QCURVE SMOOTH",
"311 794 OFFCURVE",
"362 724 QCURVE SMOOTH",
"407 663 OFFCURVE",
"407 589 QCURVE SMOOTH",
"407 440 OFFCURVE",
"236 349 QCURVE",
"241 341 OFFCURVE",
"256 324 QCURVE SMOOTH",
"338 236 OFFCURVE",
"410 237 QCURVE SMOOTH",
"492 239 OFFCURVE",
"537 310 QCURVE SMOOTH",
"577 372 OFFCURVE",
"586 429 QCURVE",
"566 442 OFFCURVE",
"533 475 QCURVE",
"517 501 OFFCURVE",
"517 531 QCURVE SMOOTH",
"517 587 OFFCURVE",
"576 594 QCURVE SMOOTH",
"644 601 OFFCURVE",
"656 502 QCURVE SMOOTH",
"656 494 OFFCURVE",
"652 463 OFFCURVE",
"652 455 QCURVE",
"692 446 OFFCURVE",
"738 453 QCURVE SMOOTH",
"756 456 OFFCURVE",
"782 473 QCURVE SMOOTH",
"817 497 OFFCURVE",
"822 500 QCURVE"
);
}
);
width = 1552;
}
);
unicode = 0A94;
},
{
glyphname = uni0ABE;
lastChange = "2017-06-08 06:27:28 +0000";
layers = (
{
anchors = (
{
name = "Anchor-1";
position = "{66, 748}";
},
{
name = "Anchor-3";
position = "{66, 748}";
}
);
layerId = "8D630CB6-6CFC-4A7D-AC95-7C82CE00D513";
paths = (
{
closed = 1;
nodes = (
"279 88 QCURVE SMOOTH",
"215 -20 OFFCURVE",
"153 -20 QCURVE SMOOTH",
"84 -20 OFFCURVE",
"0 53 OFFCURVE",
"0 122 QCURVE SMOOTH",
"0 788 LINE SMOOTH",
"0 805 OFFCURVE",
"29 805 QCURVE SMOOTH",
"58 805 OFFCURVE",
"58 788 QCURVE SMOOTH",
"58 122 LINE SMOOTH",
"58 38 OFFCURVE",
"153 38 QCURVE SMOOTH",
"180 38 OFFCURVE",
"226 111 QCURVE",
"232 117 OFFCURVE",
"242 117 QCURVE",
"242 117 LINE",
"255 117 OFFCURVE",
"269 110 QCURVE SMOOTH",
"287 100 OFFCURVE"
);
}
);
width = 371;
}
);
unicode = 0ABE;
},
{
glyphname = uni0ABF;
lastChange = "2017-06-08 06:27:28 +0000";
layers = (
{
anchors = (
{
name = "Anchor-3";
position = "{825, 979}";
}
);
layerId = "8D630CB6-6CFC-4A7D-AC95-7C82CE00D513";
paths = (
{
closed = 1;
nodes = (
"58 122 LINE SMOOTH",
"58 38 OFFCURVE",
"153 38 QCURVE SMOOTH",
"180 38 OFFCURVE",
"226 111 QCURVE",
"232 117 OFFCURVE",
"242 117 QCURVE",
"242 117 LINE",
"255 117 OFFCURVE",
"269 110 QCURVE SMOOTH",
"287 100 OFFCURVE",
"279 88 QCURVE SMOOTH",
"215 -20 OFFCURVE",
"153 -20 QCURVE SMOOTH",
"84 -20 OFFCURVE",
"0 53 OFFCURVE",
"0 122 QCURVE SMOOTH",
"0 970 LINE SMOOTH",
"0 1063 OFFCURVE",
"53 1124 QCURVE SMOOTH",
"77 1152 OFFCURVE",
"144 1169 QCURVE SMOOTH",
"202 1184 OFFCURVE",
"255 1184 QCURVE SMOOTH",
"495 1184 OFFCURVE",
"613 1147 QCURVE SMOOTH",
"800 1087 OFFCURVE",
"850 915 QCURVE SMOOTH",
"854 901 OFFCURVE",
"827 901 QCURVE SMOOTH",
"794 901 OFFCURVE",
"785 927 QCURVE SMOOTH",
"747 1037 OFFCURVE",
"609 1085 QCURVE SMOOTH",
"484 1129 OFFCURVE",
"255 1129 QCURVE SMOOTH",
"216 1129 OFFCURVE",
"169 1119 QCURVE SMOOTH",
"113 1106 OFFCURVE",
"96 1087 QCURVE SMOOTH",
"58 1044 OFFCURVE",
"58 980 QCURVE SMOOTH"
);
}
);
width = 336;
}
);
unicode = 0ABF;
},
{
glyphname = uni0AC0;
lastChange = "2017-06-08 06:27:28 +0000";
layers = (
{
anchors = (
{
name = "Anchor-3";
position = "{66, 1045}";
}
);
layerId = "8D630CB6-6CFC-4A7D-AC95-7C82CE00D513";
paths = (
{
closed = 1;
nodes = (
"278 85 QCURVE SMOOTH",
"236 22 OFFCURVE",
"219 6 QCURVE SMOOTH",
"190 -20 OFFCURVE",
"138 -20 QCURVE SMOOTH",
"0 -20 OFFCURVE",
"0 144 QCURVE SMOOTH",
"0 956 LINE SMOOTH",
"0 1012 OFFCURVE",
"-35 1054 QCURVE SMOOTH",
"-73 1100 OFFCURVE",
"-127 1100 QCURVE SMOOTH",
"-182 1100 OFFCURVE",
"-207 1090 QCURVE SMOOTH",
"-243 1076 OFFCURVE",
"-263 1032 QCURVE SMOOTH",
"-299 955 OFFCURVE",
"-298 855 QCURVE SMOOTH",
"-298 838 OFFCURVE",
"-327 838 QCURVE SMOOTH",
"-356 838 OFFCURVE",
"-356 855 QCURVE SMOOTH",
"-359 1017 OFFCURVE",
"-302 1089 QCURVE SMOOTH",
"-247 1158 OFFCURVE",
"-127 1158 QCURVE SMOOTH",
"-49 1158 OFFCURVE",
"6 1095 QCURVE SMOOTH",
"58 1036 OFFCURVE",
"58 956 QCURVE SMOOTH",
"58 144 LINE SMOOTH",
"58 38 OFFCURVE",
"138 38 QCURVE SMOOTH",
"171 38 OFFCURVE",
"194 67 QCURVE SMOOTH",
"226 108 LINE",
"232 114 OFFCURVE",
"242 114 QCURVE",
"242 114 LINE",
"252 114 OFFCURVE",
"280 99 OFFCURVE",
"280 90 QCURVE SMOOTH",
"280 88 OFFCURVE"
);
}
);
width = 312;
}
);
unicode = 0AC0;
},
{
glyphname = uni0AC9;
lastChange = "2017-06-08 06:27:28 +0000";
layers = (
{
anchors = (
{
name = "Anchor-3";
position = "{55, 957}";
}
);
layerId = "8D630CB6-6CFC-4A7D-AC95-7C82CE00D513";
paths = (
{
closed = 1;
nodes = (
"279 88 QCURVE SMOOTH",
"215 -20 OFFCURVE",
"153 -20 QCURVE SMOOTH",
"84 -20 OFFCURVE",
"0 53 OFFCURVE",
"0 122 QCURVE SMOOTH",
"0 788 LINE SMOOTH",
"0 805 OFFCURVE",
"29 805 QCURVE SMOOTH",
"58 805 OFFCURVE",
"58 788 QCURVE SMOOTH",
"58 122 LINE SMOOTH",
"58 38 OFFCURVE",
"153 38 QCURVE SMOOTH",
"180 38 OFFCURVE",
"226 111 QCURVE",
"232 117 OFFCURVE",
"242 117 QCURVE",
"242 117 LINE",
"255 117 OFFCURVE",
"269 110 QCURVE SMOOTH",
"287 100 OFFCURVE"
);
},
{
closed = 1;
nodes = (
"-351 1187 QCURVE",
"-351 1187 LINE",
"-351 1200 OFFCURVE",
"-327 1203 QCURVE SMOOTH",
"-303 1206 OFFCURVE",
"-294 1190 QCURVE SMOOTH",
"-200 1012 OFFCURVE",
"-190 998 QCURVE SMOOTH",
"-122 898 OFFCURVE",
"-47 898 QCURVE SMOOTH",
"-14 898 OFFCURVE",
"33 918 QCURVE SMOOTH",
"47 924 OFFCURVE",
"68 895 OFFCURVE",
"68 880 QCURVE SMOOTH",
"68 870 OFFCURVE",
"59 866 QCURVE SMOOTH",
"19 846 LINE",
"0 840 OFFCURVE",
"-47 840 QCURVE SMOOTH",
"-128 840 OFFCURVE",
"-216 963 QCURVE SMOOTH",
"-231 984 OFFCURVE",
"-351 1181 OFFCURVE"
);
}
);
width = 371;
}
);
unicode = 0AC9;
},
{
glyphname = uni0ACB;
lastChange = "2017-06-08 06:27:28 +0000";
layers = (
{
anchors = (
{
name = "Anchor-3";
position = "{55, 957}";
}
);
layerId = "8D630CB6-6CFC-4A7D-AC95-7C82CE00D513";
paths = (
{
closed = 1;
nodes = (
"279 88 QCURVE SMOOTH",
"215 -20 OFFCURVE",
"153 -20 QCURVE SMOOTH",
"84 -20 OFFCURVE",
"0 53 OFFCURVE",
"0 122 QCURVE SMOOTH",
"0 788 LINE SMOOTH",
"0 805 OFFCURVE",
"29 805 QCURVE SMOOTH",
"58 805 OFFCURVE",
"58 788 QCURVE SMOOTH",
"58 122 LINE SMOOTH",
"58 38 OFFCURVE",
"153 38 QCURVE SMOOTH",
"180 38 OFFCURVE",
"226 111 QCURVE",
"232 117 OFFCURVE",
"242 117 QCURVE",
"242 117 LINE",
"255 117 OFFCURVE",
"269 110 QCURVE SMOOTH",
"287 100 OFFCURVE"
);
},
{
closed = 1;
nodes = (
"32 856 QCURVE",
"32 856 LINE",
"32 843 OFFCURVE",
"8 840 QCURVE SMOOTH",
"-16 837 OFFCURVE",
"-25 853 QCURVE SMOOTH",
"-119 1031 OFFCURVE",
"-129 1045 QCURVE SMOOTH",
"-197 1145 OFFCURVE",
"-272 1145 QCURVE SMOOTH",
"-305 1145 OFFCURVE",
"-352 1125 QCURVE SMOOTH",
"-366 1119 OFFCURVE",
"-377 1135 QCURVE SMOOTH",
"-387 1148 OFFCURVE",
"-387 1163 QCURVE SMOOTH",
"-387 1173 OFFCURVE",
"-378 1177 QCURVE SMOOTH",
"-338 1197 LINE",
"-319 1203 OFFCURVE",
"-272 1203 QCURVE SMOOTH",
"-191 1203 OFFCURVE",
"-103 1080 QCURVE SMOOTH",
"-87 1058 OFFCURVE",
"-29 963 QCURVE SMOOTH",
"32 863 OFFCURVE"
);
}
);
width = 371;
}
);
unicode = 0ACB;
},
{
glyphname = uni0ACC;
lastChange = "2017-06-08 06:27:28 +0000";
layers = (
{
anchors = (
{
name = "Anchor-3";
position = "{33, 979}";
}
);
layerId = "8D630CB6-6CFC-4A7D-AC95-7C82CE00D513";
paths = (
{
closed = 1;
nodes = (
"279 88 QCURVE SMOOTH",
"215 -20 OFFCURVE",
"153 -20 QCURVE SMOOTH",
"84 -20 OFFCURVE",
"0 53 OFFCURVE",
"0 122 QCURVE SMOOTH",
"0 788 LINE SMOOTH",
"0 805 OFFCURVE",
"29 805 QCURVE SMOOTH",
"58 805 OFFCURVE",
"58 788 QCURVE SMOOTH",
"58 122 LINE SMOOTH",
"58 38 OFFCURVE",
"153 38 QCURVE SMOOTH",
"180 38 OFFCURVE",
"226 111 QCURVE",
"232 117 OFFCURVE",
"242 117 QCURVE",
"242 117 LINE",
"255 117 OFFCURVE",
"269 110 QCURVE SMOOTH",
"287 100 OFFCURVE"
);
},
{
closed = 1;
nodes = (
"39 901 QCURVE SMOOTH",
"45 887 OFFCURVE",
"14 864 OFFCURVE",
"0 864 QCURVE SMOOTH",
"-10 864 OFFCURVE",
"-13 872 QCURVE SMOOTH",
"-74 1024 OFFCURVE",
"-117 1090 QCURVE SMOOTH",
"-185 1192 OFFCURVE",
"-278 1221 QCURVE SMOOTH",
"-302 1228 OFFCURVE",
"-346 1213 QCURVE SMOOTH",
"-359 1209 OFFCURVE",
"-381 1239 OFFCURVE",
"-381 1253 QCURVE SMOOTH",
"-381 1263 OFFCURVE",
"-372 1266 QCURVE SMOOTH",
"-298 1285 OFFCURVE",
"-246 1268 QCURVE SMOOTH",
"-95 1220 OFFCURVE"
);
},
{
closed = 1;
nodes = (
"-254 963 LINE",
"-340 1027 OFFCURVE",
"-416 1027 QCURVE SMOOTH",
"-448 1027 OFFCURVE",
"-495 1006 QCURVE",
"-509 1001 OFFCURVE",
"-530 1030 OFFCURVE",
"-530 1044 QCURVE SMOOTH",
"-530 1054 OFFCURVE",
"-521 1058 QCURVE SMOOTH",
"-481 1079 LINE",
"-462 1085 OFFCURVE",
"-416 1085 QCURVE SMOOTH",
"-335 1085 OFFCURVE",
"-236 1015 QCURVE SMOOTH",
"-194 985 OFFCURVE",
"-60 867 QCURVE",
"-55 864 OFFCURVE",
"-55 854 QCURVE",
"-55 854 LINE",
"-55 844 OFFCURVE",
"-82 820 QCURVE"
);
}
);
width = 371;
}
);
unicode = 0ACC;
},
{
glyphname = uni0AC0_uni0AB0_uni0ACD.zz06_uni0A81.zz26;
lastChange = "2017-06-08 06:27:28 +0000";
layers = (
{
anchors = (
{
name = "Anchor-3";
position = "{66, 979}";
}
);
layerId = "8D630CB6-6CFC-4A7D-AC95-7C82CE00D513";
paths = (
{
closed = 1;
nodes = (
"339 988 QCURVE SMOOTH",
"297 892 OFFCURVE",
"215 890 QCURVE SMOOTH",
"182 890 OFFCURVE",
"103 950 OFFCURVE",
"89 985 QCURVE",
"89 985 LINE",
"89 993 OFFCURVE",
"104 999 QCURVE SMOOTH",
"121 1005 OFFCURVE",
"125 999 QCURVE SMOOTH",
"170 926 OFFCURVE",
"215 927 QCURVE SMOOTH",
"257 927 OFFCURVE",
"292 972 QCURVE",
"292 972 LINE",
"292 972 LINE",
"293 974 OFFCURVE",
"294 974 QCURVE",
"294 972 OFFCURVE",
"294 973 OFFCURVE",
"294 974 QCURVE SMOOTH",
"296 979 OFFCURVE",
"302 992 QCURVE SMOOTH",
"306 1000 OFFCURVE",
"322 1000 QCURVE SMOOTH",
"344 1000 OFFCURVE"
);
},
{
closed = 1;
nodes = (
"278 93 QCURVE SMOOTH",
"236 30 OFFCURVE",
"219 14 QCURVE SMOOTH",
"190 -12 OFFCURVE",
"138 -12 QCURVE SMOOTH",
"0 -12 OFFCURVE",
"0 152 QCURVE SMOOTH",
"0 964 LINE SMOOTH",
"0 1020 OFFCURVE",
"-36 1062 QCURVE",
"-73 1108 OFFCURVE",
"-127 1108 QCURVE SMOOTH",
"-182 1108 OFFCURVE",
"-207 1098 QCURVE SMOOTH",
"-243 1084 OFFCURVE",
"-264 1040 QCURVE SMOOTH",
"-300 963 OFFCURVE",
"-298 863 QCURVE SMOOTH",
"-298 846 OFFCURVE",
"-327 846 QCURVE SMOOTH",
"-356 846 OFFCURVE",
"-356 863 QCURVE SMOOTH",
"-359 1025 OFFCURVE",
"-302 1097 QCURVE SMOOTH",
"-248 1166 OFFCURVE",
"-127 1166 QCURVE SMOOTH",
"-49 1166 OFFCURVE",
"5 1103 QCURVE",
"58 1044 OFFCURVE",
"58 964 QCURVE SMOOTH",
"58 152 LINE SMOOTH",
"58 46 OFFCURVE",
"138 46 QCURVE SMOOTH",
"171 46 OFFCURVE",
"194 75 QCURVE SMOOTH",
"226 116 LINE",
"232 122 OFFCURVE",
"242 122 QCURVE",
"242 122 LINE",
"252 122 OFFCURVE",
"279 107 OFFCURVE",
"279 98 QCURVE SMOOTH",
"279 96 OFFCURVE"
);
},
{
closed = 1;
nodes = (
"0 979 LINE",
"5 1153 OFFCURVE",
"175 1160 QCURVE SMOOTH",
"245 1163 OFFCURVE",
"282 1133 QCURVE SMOOTH",
"288 1128 OFFCURVE",
"288 1120 QCURVE",
"288 1120 LINE",
"288 1105 OFFCURVE",
"263 1076 OFFCURVE",
"250 1084 QCURVE SMOOTH",
"215 1104 OFFCURVE",
"178 1102 QCURVE SMOOTH",
"63 1098 OFFCURVE",
"57 976 QCURVE"
);
},
{
closed = 1;
nodes = (
"258 1008 QCURVE SMOOTH",
"258 991 OFFCURVE",
"232 963 OFFCURVE",
"214 963 QCURVE SMOOTH",
"168 963 OFFCURVE",
"168 1008 QCURVE SMOOTH",
"168 1026 OFFCURVE",
"196 1053 OFFCURVE",
"214 1053 QCURVE SMOOTH",
"232 1053 OFFCURVE",
"258 1026 OFFCURVE"
);
}
);
width = 371;
}
);
},
{
glyphname = uni0AC0_uni0AB0_uni0ACD.zz06_uni0A82.zz26;
lastChange = "2017-06-08 06:27:28 +0000";
layers = (
{
anchors = (
{
name = "Anchor-3";
position = "{55, 968}";
}
);
layerId = "8D630CB6-6CFC-4A7D-AC95-7C82CE00D513";
paths = (
{
closed = 1;
nodes = (
"278 93 QCURVE SMOOTH",
"236 30 OFFCURVE",
"219 14 QCURVE SMOOTH",
"190 -12 OFFCURVE",
"138 -12 QCURVE SMOOTH",
"0 -12 OFFCURVE",
"0 152 QCURVE SMOOTH",
"0 964 LINE SMOOTH",
"0 1020 OFFCURVE",
"-36 1062 QCURVE",
"-73 1108 OFFCURVE",
"-127 1108 QCURVE SMOOTH",
"-182 1108 OFFCURVE",
"-207 1098 QCURVE SMOOTH",
"-243 1084 OFFCURVE",
"-264 1040 QCURVE SMOOTH",
"-300 963 OFFCURVE",
"-298 863 QCURVE SMOOTH",
"-298 846 OFFCURVE",
"-327 846 QCURVE SMOOTH",
"-356 846 OFFCURVE",
"-356 863 QCURVE SMOOTH",
"-359 1025 OFFCURVE",
"-302 1097 QCURVE SMOOTH",
"-248 1166 OFFCURVE",
"-127 1166 QCURVE SMOOTH",
"-49 1166 OFFCURVE",
"5 1103 QCURVE",
"58 1044 OFFCURVE",
"58 964 QCURVE SMOOTH",
"58 152 LINE SMOOTH",
"58 46 OFFCURVE",
"138 46 QCURVE SMOOTH",
"171 46 OFFCURVE",
"194 75 QCURVE SMOOTH",
"226 116 LINE",
"232 122 OFFCURVE",
"242 122 QCURVE",
"242 122 LINE",
"252 122 OFFCURVE",
"279 107 OFFCURVE",
"279 98 QCURVE SMOOTH",
"279 96 OFFCURVE"
);
},
{
closed = 1;
nodes = (
"0 979 LINE",
"5 1153 OFFCURVE",
"175 1160 QCURVE SMOOTH",
"245 1163 OFFCURVE",
"282 1133 QCURVE SMOOTH",
"288 1128 OFFCURVE",
"288 1120 QCURVE",
"288 1120 LINE",
"288 1105 OFFCURVE",
"263 1076 OFFCURVE",
"250 1084 QCURVE SMOOTH",
"215 1104 OFFCURVE",
"178 1102 QCURVE SMOOTH",
"63 1098 OFFCURVE",
"57 976 QCURVE"
);
},
{
closed = 1;
nodes = (
"232 998 QCURVE SMOOTH",
"232 976 OFFCURVE",
"198 942 OFFCURVE",
"176 942 QCURVE SMOOTH",
"153 942 OFFCURVE",
"119 975 OFFCURVE",
"119 998 QCURVE SMOOTH",
"119 1020 OFFCURVE",
"154 1054 OFFCURVE",
"176 1054 QCURVE SMOOTH",
"198 1054 OFFCURVE",
"232 1021 OFFCURVE"
);
}
);
width = 371;
}
);
},
{
glyphname = uni0ACB_uni0AB0_uni0ACD.zz06_uni0A81.zz26;
lastChange = "2017-06-08 06:27:28 +0000";
layers = (
{
anchors = (
{
name = "Anchor-3";
position = "{55, 990}";
}
);
layerId = "8D630CB6-6CFC-4A7D-AC95-7C82CE00D513";
paths = (
{
closed = 1;
nodes = (
"282 88 QCURVE SMOOTH",
"218 -20 OFFCURVE",
"156 -20 QCURVE SMOOTH",
"87 -20 OFFCURVE",
"3 53 OFFCURVE",
"3 122 QCURVE SMOOTH",
"3 788 LINE SMOOTH",
"3 805 OFFCURVE",
"32 805 QCURVE SMOOTH",
"60 805 OFFCURVE",
"60 788 QCURVE SMOOTH",
"60 122 LINE SMOOTH",
"60 38 OFFCURVE",
"156 38 QCURVE SMOOTH",
"182 38 OFFCURVE",
"228 111 QCURVE",
"234 117 OFFCURVE",
"244 117 QCURVE",
"244 117 LINE",
"258 117 OFFCURVE",
"272 110 QCURVE",
"289 100 OFFCURVE"
);
},
{
closed = 1;
nodes = (
"49 856 QCURVE",
"45 849 OFFCURVE",
"26 840 QCURVE",
"1 837 OFFCURVE",
"-8 853 QCURVE SMOOTH",
"-77 984 OFFCURVE",
"-119 1045 QCURVE SMOOTH",
"-188 1145 OFFCURVE",
"-255 1145 QCURVE SMOOTH",
"-269 1145 OFFCURVE",
"-331 1130 OFFCURVE",
"-343 1130 QCURVE SMOOTH",
"-353 1130 OFFCURVE",
"-359 1134 QCURVE SMOOTH",
"-370 1140 OFFCURVE",
"-370 1163 QCURVE SMOOTH",
"-370 1184 OFFCURVE",
"-322 1195 QCURVE SMOOTH",
"-289 1203 OFFCURVE",
"-255 1203 QCURVE SMOOTH",
"-174 1203 OFFCURVE",
"-86 1080 QCURVE SMOOTH",
"-70 1057 OFFCURVE",
"-12 963 QCURVE SMOOTH",
"49 863 OFFCURVE"
);
},
{
closed = 1;
nodes = (
"-23 880 QCURVE SMOOTH",
"-39 943 OFFCURVE",
"-38 980 QCURVE SMOOTH",
"-32 1154 OFFCURVE",
"137 1161 QCURVE SMOOTH",
"208 1164 OFFCURVE",
"245 1133 QCURVE SMOOTH",
"250 1129 OFFCURVE",
"250 1120 QCURVE",
"250 1120 LINE",
"250 1106 OFFCURVE",
"226 1077 OFFCURVE",
"213 1084 QCURVE SMOOTH",
"178 1104 OFFCURVE",
"140 1103 QCURVE SMOOTH",
"26 1099 OFFCURVE",
"20 977 QCURVE SMOOTH",
"19 954 OFFCURVE",
"35 884 QCURVE",
"38 880 OFFCURVE",
"12 862 OFFCURVE",
"-1 862 QCURVE SMOOTH",
"-19 862 OFFCURVE"
);
},
{
closed = 1;
nodes = (
"307 979 QCURVE SMOOTH",
"266 883 OFFCURVE",
"184 882 QCURVE SMOOTH",
"150 881 OFFCURVE",
"71 941 OFFCURVE",
"57 976 QCURVE",
"57 976 LINE",
"57 985 OFFCURVE",
"72 990 QCURVE",
"89 997 OFFCURVE",
"93 990 QCURVE SMOOTH",
"138 917 OFFCURVE",
"184 918 QCURVE SMOOTH",
"225 919 OFFCURVE",
"260 964 QCURVE",
"260 964 LINE",
"260 964 LINE",
"261 965 OFFCURVE",
"262 965 QCURVE",
"262 963 OFFCURVE",
"262 964 OFFCURVE",
"262 965 QCURVE SMOOTH",
"264 970 OFFCURVE",
"270 983 QCURVE SMOOTH",
"274 992 OFFCURVE",
"290 992 QCURVE SMOOTH",
"313 992 OFFCURVE"
);
},
{
closed = 1;
nodes = (
"226 1000 QCURVE SMOOTH",
"226 982 OFFCURVE",
"200 954 OFFCURVE",
"182 954 QCURVE SMOOTH",
"137 954 OFFCURVE",
"137 1000 QCURVE SMOOTH",
"137 1018 OFFCURVE",
"164 1044 OFFCURVE",
"182 1044 QCURVE SMOOTH",
"200 1044 OFFCURVE",
"226 1018 OFFCURVE"
);
}
);
width = 371;
}
);
},
{
glyphname = uni0ACB_uni0AB0_uni0ACD.zz06_uni0A82.zz26;
lastChange = "2017-06-08 06:27:28 +0000";
layers = (
{
anchors = (
{
name = "Anchor-3";
position = "{55, 990}";
}
);
layerId = "8D630CB6-6CFC-4A7D-AC95-7C82CE00D513";
paths = (
{
closed = 1;
nodes = (
"282 88 QCURVE SMOOTH",
"218 -20 OFFCURVE",
"156 -20 QCURVE SMOOTH",
"87 -20 OFFCURVE",
"3 53 OFFCURVE",
"3 122 QCURVE SMOOTH",
"3 788 LINE SMOOTH",
"3 805 OFFCURVE",
"32 805 QCURVE SMOOTH",
"60 805 OFFCURVE",
"60 788 QCURVE SMOOTH",
"60 122 LINE SMOOTH",
"60 38 OFFCURVE",
"156 38 QCURVE SMOOTH",
"182 38 OFFCURVE",
"228 111 QCURVE",
"234 117 OFFCURVE",
"244 117 QCURVE",
"244 117 LINE",
"258 117 OFFCURVE",
"272 110 QCURVE",
"289 100 OFFCURVE"
);
},
{
closed = 1;
nodes = (
"200 969 QCURVE SMOOTH",
"200 947 OFFCURVE",
"167 912 OFFCURVE",
"145 912 QCURVE SMOOTH",
"121 912 OFFCURVE",
"88 946 OFFCURVE",
"88 969 QCURVE SMOOTH",
"88 991 OFFCURVE",
"122 1025 OFFCURVE",
"145 1025 QCURVE SMOOTH",
"167 1025 OFFCURVE",
"200 991 OFFCURVE"
);
},
{
closed = 1;
nodes = (
"49 856 QCURVE",
"45 849 OFFCURVE",
"26 840 QCURVE",
"1 837 OFFCURVE",
"-8 853 QCURVE SMOOTH",
"-77 984 OFFCURVE",
"-119 1045 QCURVE SMOOTH",
"-188 1145 OFFCURVE",
"-255 1145 QCURVE SMOOTH",
"-269 1145 OFFCURVE",
"-331 1130 OFFCURVE",
"-343 1130 QCURVE SMOOTH",
"-353 1130 OFFCURVE",
"-359 1134 QCURVE SMOOTH",
"-370 1140 OFFCURVE",
"-370 1163 QCURVE SMOOTH",
"-370 1184 OFFCURVE",
"-322 1195 QCURVE SMOOTH",
"-289 1203 OFFCURVE",
"-255 1203 QCURVE SMOOTH",
"-174 1203 OFFCURVE",
"-86 1080 QCURVE SMOOTH",
"-70 1058 OFFCURVE",
"-12 963 QCURVE SMOOTH",
"49 863 OFFCURVE"
);
},
{
closed = 1;
nodes = (
"-23 880 QCURVE SMOOTH",
"-39 943 OFFCURVE",
"-38 980 QCURVE SMOOTH",
"-32 1154 OFFCURVE",
"137 1161 QCURVE SMOOTH",
"208 1164 OFFCURVE",
"245 1133 QCURVE SMOOTH",
"250 1129 OFFCURVE",
"250 1120 QCURVE",
"250 1120 LINE",
"250 1106 OFFCURVE",
"226 1077 OFFCURVE",
"213 1084 QCURVE SMOOTH",
"178 1104 OFFCURVE",
"140 1103 QCURVE SMOOTH",
"26 1099 OFFCURVE",
"20 977 QCURVE SMOOTH",
"19 954 OFFCURVE",
"35 884 QCURVE",
"38 880 OFFCURVE",
"12 862 OFFCURVE",
"-1 862 QCURVE SMOOTH",
"-19 862 OFFCURVE"
);
}
);
width = 371;
}
);
},
{
glyphname = uni0ACC_uni0AB0_uni0ACD.zz06_uni0A81.zz26;
lastChange = "2017-06-08 06:27:28 +0000";
layers = (
{
anchors = (
{
name = "Anchor-3";
position = "{55, 968}";
}
);
layerId = "8D630CB6-6CFC-4A7D-AC95-7C82CE00D513";
paths = (
{
closed = 1;
nodes = (
"282 88 QCURVE SMOOTH",
"218 -20 OFFCURVE",
"156 -20 QCURVE SMOOTH",
"87 -20 OFFCURVE",
"3 53 OFFCURVE",
"3 122 QCURVE SMOOTH",
"3 788 LINE SMOOTH",
"3 805 OFFCURVE",
"32 805 QCURVE SMOOTH",
"60 805 OFFCURVE",
"60 788 QCURVE SMOOTH",
"60 122 LINE SMOOTH",
"60 38 OFFCURVE",
"156 38 QCURVE SMOOTH",
"182 38 OFFCURVE",
"228 111 QCURVE",
"234 117 OFFCURVE",
"244 117 QCURVE",
"244 117 LINE",
"258 117 OFFCURVE",
"272 110 QCURVE",
"289 100 OFFCURVE"
);
},
{
closed = 1;
nodes = (
"49 856 QCURVE",
"45 849 OFFCURVE",
"26 840 QCURVE",
"1 837 OFFCURVE",
"-8 853 QCURVE SMOOTH",
"-77 984 OFFCURVE",
"-119 1045 QCURVE SMOOTH",
"-188 1145 OFFCURVE",
"-255 1145 QCURVE SMOOTH",
"-269 1145 OFFCURVE",
"-331 1130 OFFCURVE",
"-343 1130 QCURVE SMOOTH",
"-353 1130 OFFCURVE",
"-359 1134 QCURVE SMOOTH",
"-370 1140 OFFCURVE",
"-370 1163 QCURVE SMOOTH",
"-370 1184 OFFCURVE",
"-322 1195 QCURVE SMOOTH",
"-289 1203 OFFCURVE",
"-255 1203 QCURVE SMOOTH",
"-174 1203 OFFCURVE",
"-86 1080 QCURVE SMOOTH",
"-70 1057 OFFCURVE",
"-12 963 QCURVE SMOOTH",
"49 863 OFFCURVE"
);
},
{
closed = 1;
nodes = (
"-23 880 QCURVE SMOOTH",
"-39 943 OFFCURVE",
"-38 980 QCURVE SMOOTH",
"-32 1154 OFFCURVE",
"137 1161 QCURVE SMOOTH",
"208 1164 OFFCURVE",
"245 1133 QCURVE SMOOTH",
"250 1129 OFFCURVE",
"250 1120 QCURVE",
"250 1120 LINE",
"250 1106 OFFCURVE",
"226 1077 OFFCURVE",
"213 1084 QCURVE SMOOTH",
"178 1104 OFFCURVE",
"140 1103 QCURVE SMOOTH",
"26 1099 OFFCURVE",
"20 977 QCURVE SMOOTH",
"19 954 OFFCURVE",
"35 884 QCURVE",
"38 880 OFFCURVE",
"12 862 OFFCURVE",
"-1 862 QCURVE SMOOTH",
"-19 862 OFFCURVE"
);
},
{
closed = 1;
nodes = (
"307 979 QCURVE SMOOTH",
"266 883 OFFCURVE",
"184 882 QCURVE SMOOTH",
"150 881 OFFCURVE",
"71 941 OFFCURVE",
"57 976 QCURVE",
"57 976 LINE",
"57 985 OFFCURVE",
"72 990 QCURVE",
"89 997 OFFCURVE",
"93 990 QCURVE SMOOTH",
"138 917 OFFCURVE",
"184 918 QCURVE SMOOTH",
"225 919 OFFCURVE",
"260 964 QCURVE",
"260 964 LINE",
"260 964 LINE",
"261 965 OFFCURVE",
"262 965 QCURVE",
"262 963 OFFCURVE",
"262 964 OFFCURVE",
"262 965 QCURVE SMOOTH",
"264 970 OFFCURVE",
"270 983 QCURVE SMOOTH",
"274 992 OFFCURVE",
"290 992 QCURVE SMOOTH",
"313 992 OFFCURVE"
);
},
{
closed = 1;
nodes = (
"226 1000 QCURVE SMOOTH",
"226 982 OFFCURVE",
"200 954 OFFCURVE",
"182 954 QCURVE SMOOTH",
"137 954 OFFCURVE",
"137 1000 QCURVE SMOOTH",
"137 1018 OFFCURVE",
"164 1044 OFFCURVE",
"182 1044 QCURVE SMOOTH",
"200 1044 OFFCURVE",
"226 1018 OFFCURVE"
);
},
{
closed = 1;
nodes = (
"-67 867 QCURVE SMOOTH",
"-63 863 OFFCURVE",
"-63 856 QCURVE",
"-63 856 LINE",
"-63 842 OFFCURVE",
"-85 817 OFFCURVE",
"-96 827 QCURVE SMOOTH",
"-206 929 OFFCURVE",
"-233 948 QCURVE",
"-306 1003 OFFCURVE",
"-371 1003 QCURVE SMOOTH",
"-399 1003 OFFCURVE",
"-439 986 QCURVE SMOOTH",
"-451 981 OFFCURVE",
"-469 1005 OFFCURVE",
"-469 1018 QCURVE SMOOTH",
"-469 1026 OFFCURVE",
"-462 1030 QCURVE SMOOTH",
"-417 1052 OFFCURVE",
"-371 1052 QCURVE SMOOTH",
"-302 1052 OFFCURVE",
"-218 993 QCURVE SMOOTH",
"-181 967 OFFCURVE"
);
}
);
width = 371;
}
);
},
{
glyphname = uni0ACC_uni0AB0_uni0ACD.zz06_uni0A82.zz26;
lastChange = "2017-06-08 06:27:28 +0000";
layers = (
{
anchors = (
{
name = "Anchor-3";
position = "{55, 979}";
}
);
layerId = "8D630CB6-6CFC-4A7D-AC95-7C82CE00D513";
paths = (
{
closed = 1;
nodes = (
"282 88 QCURVE SMOOTH",
"218 -20 OFFCURVE",
"156 -20 QCURVE SMOOTH",
"87 -20 OFFCURVE",
"3 53 OFFCURVE",
"3 122 QCURVE SMOOTH",
"3 788 LINE SMOOTH",
"3 805 OFFCURVE",
"32 805 QCURVE SMOOTH",
"60 805 OFFCURVE",
"60 788 QCURVE SMOOTH",
"60 122 LINE SMOOTH",
"60 38 OFFCURVE",
"156 38 QCURVE SMOOTH",
"182 38 OFFCURVE",
"228 111 QCURVE",
"234 117 OFFCURVE",
"244 117 QCURVE",
"244 117 LINE",
"258 117 OFFCURVE",
"272 110 QCURVE",
"289 100 OFFCURVE"
);
},
{
closed = 1;
nodes = (
"200 969 QCURVE SMOOTH",
"200 947 OFFCURVE",
"167 912 OFFCURVE",
"145 912 QCURVE SMOOTH",
"121 912 OFFCURVE",
"88 946 OFFCURVE",
"88 969 QCURVE SMOOTH",
"88 991 OFFCURVE",
"122 1025 OFFCURVE",
"145 1025 QCURVE SMOOTH",
"167 1025 OFFCURVE",
"200 991 OFFCURVE"
);
},
{
closed = 1;
nodes = (
"49 856 QCURVE",
"45 849 OFFCURVE",
"26 840 QCURVE",
"1 837 OFFCURVE",
"-8 853 QCURVE SMOOTH",
"-77 984 OFFCURVE",
"-119 1045 QCURVE SMOOTH",
"-188 1145 OFFCURVE",
"-255 1145 QCURVE SMOOTH",
"-269 1145 OFFCURVE",
"-331 1130 OFFCURVE",
"-343 1130 QCURVE SMOOTH",
"-353 1130 OFFCURVE",
"-359 1134 QCURVE SMOOTH",
"-370 1140 OFFCURVE",
"-370 1163 QCURVE SMOOTH",
"-370 1184 OFFCURVE",
"-322 1195 QCURVE SMOOTH",
"-289 1203 OFFCURVE",
"-255 1203 QCURVE SMOOTH",
"-174 1203 OFFCURVE",
"-86 1080 QCURVE SMOOTH",
"-70 1057 OFFCURVE",
"-12 963 QCURVE SMOOTH",
"49 863 OFFCURVE"
);
},
{
closed = 1;
nodes = (
"-23 880 QCURVE SMOOTH",
"-39 943 OFFCURVE",
"-38 980 QCURVE SMOOTH",
"-32 1154 OFFCURVE",
"137 1161 QCURVE SMOOTH",
"208 1164 OFFCURVE",
"245 1133 QCURVE SMOOTH",
"250 1129 OFFCURVE",
"250 1120 QCURVE",
"250 1120 LINE",
"250 1106 OFFCURVE",
"226 1077 OFFCURVE",
"213 1084 QCURVE SMOOTH",
"178 1104 OFFCURVE",
"140 1103 QCURVE SMOOTH",
"26 1099 OFFCURVE",
"20 977 QCURVE SMOOTH",
"19 954 OFFCURVE",
"35 884 QCURVE",
"38 880 OFFCURVE",
"12 862 OFFCURVE",
"-1 862 QCURVE SMOOTH",
"-19 862 OFFCURVE"
);
},
{
closed = 1;
nodes = (
"-67 867 QCURVE SMOOTH",
"-63 863 OFFCURVE",
"-63 856 QCURVE",
"-63 856 LINE",
"-63 842 OFFCURVE",
"-85 817 OFFCURVE",
"-96 827 QCURVE SMOOTH",
"-206 929 OFFCURVE",
"-233 948 QCURVE",
"-306 1003 OFFCURVE",
"-371 1003 QCURVE SMOOTH",
"-399 1003 OFFCURVE",
"-439 986 QCURVE SMOOTH",
"-451 981 OFFCURVE",
"-469 1005 OFFCURVE",
"-469 1018 QCURVE SMOOTH",
"-469 1026 OFFCURVE",
"-462 1030 QCURVE SMOOTH",
"-417 1052 OFFCURVE",
"-371 1052 QCURVE SMOOTH",
"-302 1052 OFFCURVE",
"-218 993 QCURVE SMOOTH",
"-181 967 OFFCURVE"
);
}
);
width = 371;
}
);
},
{
glyphname = uni0A87_uni0A81.zz24;
lastChange = "2017-06-08 06:27:27 +0000";
layers = (
{
layerId = "8D630CB6-6CFC-4A7D-AC95-7C82CE00D513";
paths = (
{
closed = 1;
nodes = (
"300 436 QCURVE",
"323 442 OFFCURVE",
"369 450 QCURVE",
"388 452 OFFCURVE",
"388 459 QCURVE SMOOTH",
"388 473 OFFCURVE",
"372 473 QCURVE SMOOTH",
"355 473 OFFCURVE"
);
},
{
closed = 1;
nodes = (
"220 450 QCURVE",
"223 453 OFFCURVE",
"252 473 QCURVE SMOOTH",
"314 517 OFFCURVE",
"384 517 QCURVE SMOOTH",
"445 517 OFFCURVE",
"445 469 QCURVE SMOOTH",
"445 426 OFFCURVE",
"350 388 QCURVE SMOOTH",
"297 366 OFFCURVE",
"232 385 QCURVE",
"167 325 OFFCURVE",
"164 255 QCURVE SMOOTH",
"159 163 OFFCURVE",
"228 103 QCURVE SMOOTH",
"293 46 OFFCURVE",
"387 46 QCURVE SMOOTH",
"496 46 OFFCURVE",
"640 199 OFFCURVE",
"640 308 QCURVE SMOOTH",
"640 409 OFFCURVE",
"602 494 QCURVE SMOOTH",
"573 560 OFFCURVE",
"502 662 QCURVE SMOOTH",
"345 889 OFFCURVE",
"345 990 QCURVE SMOOTH",
"345 1077 OFFCURVE",
"432 1137 QCURVE SMOOTH",
"504 1186 OFFCURVE",
"585 1192 QCURVE SMOOTH",
"605 1193 OFFCURVE",
"605 1160 QCURVE SMOOTH",
"605 1138 OFFCURVE",
"591 1134 QCURVE SMOOTH",
"504 1110 OFFCURVE",
"469 1090 QCURVE SMOOTH",
"403 1052 OFFCURVE",
"403 990 QCURVE SMOOTH",
"403 904 OFFCURVE",
"549 694 QCURVE SMOOTH",
"629 579 OFFCURVE",
"657 513 QCURVE SMOOTH",
"698 419 OFFCURVE",
"698 308 QCURVE SMOOTH",
"698 175 OFFCURVE",
"609 83 QCURVE",
"519 -12 OFFCURVE",
"387 -12 QCURVE SMOOTH",
"267 -12 OFFCURVE",
"185 62 QCURVE SMOOTH",
"98 140 OFFCURVE",
"106 258 QCURVE SMOOTH",
"111 346 OFFCURVE",
"175 410 QCURVE",
"123 442 OFFCURVE",
"78 499 QCURVE SMOOTH",
"28 564 OFFCURVE",
"28 617 QCURVE SMOOTH",
"28 672 OFFCURVE",
"94 728 QCURVE SMOOTH",
"141 768 OFFCURVE",
"210 801 QCURVE SMOOTH",
"222 806 OFFCURVE",
"243 778 OFFCURVE",
"243 765 QCURVE SMOOTH",
"243 753 OFFCURVE",
"236 749 QCURVE SMOOTH",
"162 707 OFFCURVE",
"145 694 QCURVE SMOOTH",
"85 650 OFFCURVE",
"85 617 QCURVE SMOOTH",
"85 573 OFFCURVE",
"133 520 QCURVE SMOOTH",
"173 475 OFFCURVE"
);
},
{
closed = 1;
nodes = (
"767 971 QCURVE SMOOTH",
"721 865 OFFCURVE",
"631 863 QCURVE SMOOTH",
"594 863 OFFCURVE",
"507 929 OFFCURVE",
"492 967 QCURVE",
"492 967 LINE",
"492 977 OFFCURVE",
"508 983 QCURVE SMOOTH",
"527 990 OFFCURVE",
"531 983 QCURVE SMOOTH",
"581 902 OFFCURVE",
"631 903 QCURVE SMOOTH",
"677 904 OFFCURVE",
"715 953 QCURVE",
"715 953 LINE",
"715 953 LINE",
"716 955 OFFCURVE",
"717 955 QCURVE",
"717 953 OFFCURVE",
"717 954 OFFCURVE",
"717 955 QCURVE SMOOTH",
"719 960 OFFCURVE",
"726 975 QCURVE SMOOTH",
"731 984 OFFCURVE",
"748 984 QCURVE SMOOTH",
"773 984 OFFCURVE"
);
},
{
closed = 1;
nodes = (
"678 993 QCURVE SMOOTH",
"678 973 OFFCURVE",
"649 943 OFFCURVE",
"629 943 QCURVE SMOOTH",
"608 943 OFFCURVE",
"579 973 OFFCURVE",
"579 993 QCURVE SMOOTH",
"579 1013 OFFCURVE",
"609 1042 OFFCURVE",
"629 1042 QCURVE SMOOTH",
"649 1042 OFFCURVE",
"678 1013 OFFCURVE"
);
}
);
width = 811;
}
);
},
{
glyphname = uni0A88_uni0A81.zz24;
lastChange = "2017-06-08 06:27:27 +0000";
layers = (
{
layerId = "8D630CB6-6CFC-4A7D-AC95-7C82CE00D513";
paths = (
{
closed = 1;
nodes = (
"227 449 QCURVE",
"251 474 OFFCURVE",
"345 514 OFFCURVE",
"379 514 QCURVE SMOOTH",
"433 514 OFFCURVE",
"433 471 QCURVE SMOOTH",
"433 415 OFFCURVE",
"314 387 QCURVE SMOOTH",
"278 378 OFFCURVE",
"240 385 QCURVE",
"160 317 OFFCURVE",
"165 227 QCURVE SMOOTH",
"169 148 OFFCURVE",
"238 93 QCURVE SMOOTH",
"304 41 OFFCURVE",
"385 41 QCURVE SMOOTH",
"500 41 OFFCURVE",
"575 130 QCURVE SMOOTH",
"647 215 OFFCURVE",
"643 332 QCURVE SMOOTH",
"638 468 OFFCURVE",
"476 702 QCURVE SMOOTH",
"453 735 OFFCURVE",
"390 831 QCURVE SMOOTH",
"349 893 OFFCURVE",
"348 979 QCURVE",
"346 1049 OFFCURVE",
"384 1100 QCURVE",
"426 1154 OFFCURVE",
"494 1158 QCURVE SMOOTH",
"626 1166 OFFCURVE",
"809 1051 QCURVE",
"812 1034 OFFCURVE",
"784 1011 OFFCURVE",
"766 1011 QCURVE",
"609 1107 OFFCURVE",
"497 1100 QCURVE SMOOTH",
"451 1098 OFFCURVE",
"426 1060 QCURVE SMOOTH",
"404 1027 OFFCURVE",
"405 979 QCURVE SMOOTH",
"407 900 OFFCURVE",
"447 844 QCURVE SMOOTH",
"467 817 OFFCURVE",
"526 734 QCURVE",
"696 488 OFFCURVE",
"701 334 QCURVE SMOOTH",
"705 192 OFFCURVE",
"617 91 QCURVE SMOOTH",
"526 -14 OFFCURVE",
"385 -14 QCURVE SMOOTH",
"280 -14 OFFCURVE",
"198 52 QCURVE SMOOTH",
"112 121 OFFCURVE",
"107 224 QCURVE SMOOTH",
"102 334 OFFCURVE",
"184 416 QCURVE",
"29 524 OFFCURVE",
"26 607 QCURVE SMOOTH",
"23 678 OFFCURVE",
"114 743 QCURVE SMOOTH",
"169 782 OFFCURVE",
"211 798 QCURVE SMOOTH",
"223 802 OFFCURVE",
"248 773 OFFCURVE",
"248 760 QCURVE SMOOTH",
"248 751 OFFCURVE",
"240 749 QCURVE SMOOTH",
"80 690 OFFCURVE",
"84 610 QCURVE SMOOTH",
"88 530 OFFCURVE"
);
},
{
closed = 1;
nodes = (
"787 911 QCURVE SMOOTH",
"741 805 OFFCURVE",
"651 803 QCURVE SMOOTH",
"614 803 OFFCURVE",
"527 869 OFFCURVE",
"512 907 QCURVE",
"512 907 LINE",
"512 917 OFFCURVE",
"528 923 QCURVE SMOOTH",
"547 930 OFFCURVE",
"551 923 QCURVE SMOOTH",
"601 842 OFFCURVE",
"651 843 QCURVE SMOOTH",
"697 844 OFFCURVE",
"735 893 QCURVE",
"735 893 LINE",
"735 893 LINE",
"736 895 OFFCURVE",
"737 895 QCURVE",
"737 893 OFFCURVE",
"737 894 OFFCURVE",
"737 895 QCURVE SMOOTH",
"739 900 OFFCURVE",
"746 915 QCURVE SMOOTH",
"751 924 OFFCURVE",
"768 924 QCURVE SMOOTH",
"793 924 OFFCURVE"
);
},
{
closed = 1;
nodes = (
"698 933 QCURVE SMOOTH",
"698 913 OFFCURVE",
"669 883 OFFCURVE",
"649 883 QCURVE SMOOTH",
"628 883 OFFCURVE",
"599 913 OFFCURVE",
"599 933 QCURVE SMOOTH",
"599 953 OFFCURVE",
"629 982 OFFCURVE",
"649 982 QCURVE SMOOTH",
"669 982 OFFCURVE",
"698 953 OFFCURVE"
);
}
);
width = 834;
}
);
},
{
glyphname = uni0A88_uni0A82.zz24;
lastChange = "2017-06-08 06:27:27 +0000";
layers = (
{
layerId = "8D630CB6-6CFC-4A7D-AC95-7C82CE00D513";
paths = (
{
closed = 1;
nodes = (
"227 449 QCURVE",
"251 474 OFFCURVE",
"345 514 OFFCURVE",
"379 514 QCURVE SMOOTH",
"433 514 OFFCURVE",
"433 471 QCURVE SMOOTH",
"433 415 OFFCURVE",
"314 387 QCURVE SMOOTH",
"278 378 OFFCURVE",
"240 385 QCURVE",
"160 317 OFFCURVE",
"165 227 QCURVE SMOOTH",
"169 148 OFFCURVE",
"238 93 QCURVE SMOOTH",
"304 41 OFFCURVE",
"385 41 QCURVE SMOOTH",
"500 41 OFFCURVE",
"575 130 QCURVE SMOOTH",
"647 215 OFFCURVE",
"643 332 QCURVE SMOOTH",
"638 468 OFFCURVE",
"476 702 QCURVE SMOOTH",
"453 735 OFFCURVE",
"390 831 QCURVE SMOOTH",
"349 893 OFFCURVE",
"348 979 QCURVE",
"346 1049 OFFCURVE",
"384 1100 QCURVE",
"426 1154 OFFCURVE",
"494 1158 QCURVE SMOOTH",
"626 1166 OFFCURVE",
"809 1051 QCURVE",
"812 1034 OFFCURVE",
"784 1011 OFFCURVE",
"766 1011 QCURVE",
"609 1107 OFFCURVE",
"497 1100 QCURVE SMOOTH",
"451 1098 OFFCURVE",
"426 1060 QCURVE SMOOTH",
"404 1027 OFFCURVE",
"405 979 QCURVE SMOOTH",
"407 900 OFFCURVE",
"447 844 QCURVE SMOOTH",
"467 817 OFFCURVE",
"526 734 QCURVE",
"696 488 OFFCURVE",
"701 334 QCURVE SMOOTH",
"705 192 OFFCURVE",
"617 91 QCURVE SMOOTH",
"526 -14 OFFCURVE",
"385 -14 QCURVE SMOOTH",
"280 -14 OFFCURVE",
"198 52 QCURVE SMOOTH",
"112 121 OFFCURVE",
"107 224 QCURVE SMOOTH",
"102 334 OFFCURVE",
"184 416 QCURVE",
"29 524 OFFCURVE",
"26 607 QCURVE SMOOTH",
"23 678 OFFCURVE",
"114 743 QCURVE SMOOTH",
"169 782 OFFCURVE",
"211 798 QCURVE SMOOTH",
"223 802 OFFCURVE",
"248 773 OFFCURVE",
"248 760 QCURVE SMOOTH",
"248 751 OFFCURVE",
"240 749 QCURVE SMOOTH",
"80 690 OFFCURVE",
"84 610 QCURVE SMOOTH",
"88 530 OFFCURVE"
);
},
{
closed = 1;
nodes = (
"641 953 QCURVE SMOOTH",
"641 925 OFFCURVE",
"600 882 OFFCURVE",
"572 882 QCURVE SMOOTH",
"543 882 OFFCURVE",
"501 924 OFFCURVE",
"501 953 QCURVE SMOOTH",
"501 980 OFFCURVE",
"544 1022 OFFCURVE",
"572 1022 QCURVE SMOOTH",
"600 1022 OFFCURVE",
"641 981 OFFCURVE"
);
}
);
width = 817;
}
);
},
{
glyphname = uni0A89_uni0A81.zz24;
lastChange = "2017-06-08 06:27:27 +0000";
layers = (
{
layerId = "8D630CB6-6CFC-4A7D-AC95-7C82CE00D513";
paths = (
{
closed = 1;
nodes = (
"440 455 QCURVE",
"416 462 OFFCURVE",
"394 462 QCURVE SMOOTH",
"363 462 OFFCURVE",
"349 452 QCURVE",
"358 446 OFFCURVE",
"410 447 QCURVE SMOOTH",
"428 448 OFFCURVE"
);
},
{
closed = 1;
nodes = (
"450 1105 QCURVE SMOOTH",
"246 1105 OFFCURVE",
"153 902 QCURVE SMOOTH",
"85 753 OFFCURVE",
"85 521 QCURVE SMOOTH",
"85 340 OFFCURVE",
"153 210 QCURVE SMOOTH",
"239 48 OFFCURVE",
"404 48 QCURVE SMOOTH",
"477 48 OFFCURVE",
"579 155 OFFCURVE",
"579 229 QCURVE SMOOTH",
"579 279 OFFCURVE",
"533 387 OFFCURVE",
"497 420 QCURVE",
"446 390 OFFCURVE",
"413 390 QCURVE SMOOTH",
"377 390 OFFCURVE",
"347 401 QCURVE SMOOTH",
"307 417 OFFCURVE",
"307 446 QCURVE SMOOTH",
"307 477 OFFCURVE",
"362 520 OFFCURVE",
"394 520 QCURVE SMOOTH",
"452 520 OFFCURVE",
"501 487 QCURVE",
"578 542 OFFCURVE",
"578 608 QCURVE SMOOTH",
"578 682 OFFCURVE",
"494 770 OFFCURVE",
"420 770 QCURVE SMOOTH",
"355 770 OFFCURVE",
"301 730 QCURVE SMOOTH",
"298 727 OFFCURVE",
"294 727 QCURVE SMOOTH",
"283 727 OFFCURVE",
"264 755 OFFCURVE",
"264 766 QCURVE SMOOTH",
"264 775 OFFCURVE",
"269 779 QCURVE SMOOTH",
"335 828 OFFCURVE",
"420 828 QCURVE SMOOTH",
"521 828 OFFCURVE",
"636 710 OFFCURVE",
"636 608 QCURVE SMOOTH",
"636 526 OFFCURVE",
"543 452 QCURVE",
"583 411 OFFCURVE",
"637 284 OFFCURVE",
"637 229 QCURVE SMOOTH",
"637 133 OFFCURVE",
"499 -10 OFFCURVE",
"404 -10 QCURVE SMOOTH",
"214 -10 OFFCURVE",
"111 169 QCURVE",
"28 317 OFFCURVE",
"28 521 QCURVE SMOOTH",
"28 782 OFFCURVE",
"116 951 QCURVE SMOOTH",
"226 1163 OFFCURVE",
"450 1163 QCURVE SMOOTH",
"468 1163 OFFCURVE",
"468 1131 QCURVE SMOOTH",
"468 1105 OFFCURVE"
);
},
{
closed = 1;
nodes = (
"627 981 QCURVE SMOOTH",
"581 875 OFFCURVE",
"491 873 QCURVE SMOOTH",
"454 873 OFFCURVE",
"367 939 OFFCURVE",
"352 977 QCURVE",
"352 977 LINE",
"352 987 OFFCURVE",
"368 993 QCURVE SMOOTH",
"387 1000 OFFCURVE",
"391 993 QCURVE SMOOTH",
"441 912 OFFCURVE",
"491 913 QCURVE SMOOTH",
"537 914 OFFCURVE",
"575 963 QCURVE",
"575 963 LINE",
"575 963 LINE",
"576 965 OFFCURVE",
"577 965 QCURVE",
"577 963 OFFCURVE",
"577 964 OFFCURVE",
"577 965 QCURVE SMOOTH",
"579 970 OFFCURVE",
"586 985 QCURVE SMOOTH",
"591 994 OFFCURVE",
"608 994 QCURVE SMOOTH",
"633 994 OFFCURVE"
);
},
{
closed = 1;
nodes = (
"538 1003 QCURVE SMOOTH",
"538 983 OFFCURVE",
"509 953 OFFCURVE",
"489 953 QCURVE SMOOTH",
"468 953 OFFCURVE",
"439 983 OFFCURVE",
"439 1003 QCURVE SMOOTH",
"439 1023 OFFCURVE",
"469 1052 OFFCURVE",
"489 1052 QCURVE SMOOTH",
"509 1052 OFFCURVE",
"538 1023 OFFCURVE"
);
}
);
width = 776;
}
);
},
{
glyphname = uni0A89_uni0A82.zz24;
lastChange = "2017-06-08 06:27:27 +0000";
layers = (
{
layerId = "8D630CB6-6CFC-4A7D-AC95-7C82CE00D513";
paths = (
{
closed = 1;
nodes = (
"440 455 QCURVE",
"416 462 OFFCURVE",
"394 462 QCURVE SMOOTH",
"363 462 OFFCURVE",
"349 452 QCURVE",
"358 446 OFFCURVE",
"410 447 QCURVE SMOOTH",
"428 448 OFFCURVE"
);
},
{
closed = 1;
nodes = (
"450 1105 QCURVE SMOOTH",
"246 1105 OFFCURVE",
"153 902 QCURVE SMOOTH",
"85 753 OFFCURVE",
"85 521 QCURVE SMOOTH",
"85 340 OFFCURVE",
"153 210 QCURVE SMOOTH",
"239 48 OFFCURVE",
"404 48 QCURVE SMOOTH",
"477 48 OFFCURVE",
"579 155 OFFCURVE",
"579 229 QCURVE SMOOTH",
"579 279 OFFCURVE",
"533 387 OFFCURVE",
"497 420 QCURVE",
"446 390 OFFCURVE",
"413 390 QCURVE SMOOTH",
"377 390 OFFCURVE",
"347 401 QCURVE SMOOTH",
"307 417 OFFCURVE",
"307 446 QCURVE SMOOTH",
"307 477 OFFCURVE",
"362 520 OFFCURVE",
"394 520 QCURVE SMOOTH",
"452 520 OFFCURVE",
"501 487 QCURVE",
"578 542 OFFCURVE",
"578 608 QCURVE SMOOTH",
"578 682 OFFCURVE",
"494 770 OFFCURVE",
"420 770 QCURVE SMOOTH",
"355 770 OFFCURVE",
"301 730 QCURVE SMOOTH",
"298 727 OFFCURVE",
"294 727 QCURVE SMOOTH",
"283 727 OFFCURVE",
"264 755 OFFCURVE",
"264 766 QCURVE SMOOTH",
"264 775 OFFCURVE",
"269 779 QCURVE SMOOTH",
"335 828 OFFCURVE",
"420 828 QCURVE SMOOTH",
"521 828 OFFCURVE",
"636 710 OFFCURVE",
"636 608 QCURVE SMOOTH",
"636 526 OFFCURVE",
"543 452 QCURVE",
"583 411 OFFCURVE",
"637 284 OFFCURVE",
"637 229 QCURVE SMOOTH",
"637 133 OFFCURVE",
"499 -10 OFFCURVE",
"404 -10 QCURVE SMOOTH",
"214 -10 OFFCURVE",
"111 169 QCURVE",
"28 317 OFFCURVE",
"28 521 QCURVE SMOOTH",
"28 782 OFFCURVE",
"116 951 QCURVE SMOOTH",
"226 1163 OFFCURVE",
"450 1163 QCURVE SMOOTH",
"468 1163 OFFCURVE",
"468 1131 QCURVE SMOOTH",
"468 1105 OFFCURVE"
);
},
{
closed = 1;
nodes = (
"668 993 QCURVE SMOOTH",
"668 966 OFFCURVE",
"627 922 OFFCURVE",
"599 922 QCURVE SMOOTH",
"570 922 OFFCURVE",
"528 964 OFFCURVE",
"528 993 QCURVE SMOOTH",
"528 1021 OFFCURVE",
"571 1063 OFFCURVE",
"599 1063 QCURVE SMOOTH",
"627 1063 OFFCURVE",
"668 1021 OFFCURVE"
);
}
);
width = 782;
}
);
},
{
glyphname = uni0A8A_uni0A81.zz24;
lastChange = "2017-06-08 06:27:27 +0000";
layers = (
{
layerId = "8D630CB6-6CFC-4A7D-AC95-7C82CE00D513";
paths = (
{
closed = 1;
nodes = (
"440 455 QCURVE",
"416 462 OFFCURVE",
"394 462 QCURVE SMOOTH",
"363 462 OFFCURVE",
"349 452 QCURVE",
"358 446 OFFCURVE",
"410 447 QCURVE SMOOTH",
"428 448 OFFCURVE"
);
},
{
closed = 1;
nodes = (
"501 487 QCURVE",
"578 542 OFFCURVE",
"578 608 QCURVE SMOOTH",
"578 682 OFFCURVE",
"494 770 OFFCURVE",
"420 770 QCURVE SMOOTH",
"389 770 OFFCURVE",
"301 730 QCURVE SMOOTH",
"288 724 OFFCURVE",
"264 752 OFFCURVE",
"264 766 QCURVE SMOOTH",
"264 774 OFFCURVE",
"269 779 QCURVE SMOOTH",
"328 828 OFFCURVE",
"420 828 QCURVE SMOOTH",
"521 828 OFFCURVE",
"636 710 OFFCURVE",
"636 608 QCURVE SMOOTH",
"636 526 OFFCURVE",
"543 452 QCURVE",
"583 411 OFFCURVE",
"637 284 OFFCURVE",
"637 229 QCURVE SMOOTH",
"637 133 OFFCURVE",
"499 -10 OFFCURVE",
"404 -10 QCURVE SMOOTH",
"214 -10 OFFCURVE",
"111 169 QCURVE",
"28 317 OFFCURVE",
"28 521 QCURVE SMOOTH",
"28 782 OFFCURVE",
"116 951 QCURVE SMOOTH",
"226 1163 OFFCURVE",
"450 1163 QCURVE SMOOTH",
"647 1163 OFFCURVE",
"753 1070 QCURVE SMOOTH",
"866 972 OFFCURVE",
"867 778 QCURVE SMOOTH",
"872 135 LINE SMOOTH",
"872 38 OFFCURVE",
"963 43 QCURVE SMOOTH",
"994 45 OFFCURVE",
"1011 68 QCURVE",
"1027 97 OFFCURVE",
"1044 125 QCURVE",
"1093 93 LINE",
"1045 22 OFFCURVE",
"1038 16 QCURVE",
"1011 -13 OFFCURVE",
"966 -14 QCURVE SMOOTH",
"894 -17 OFFCURVE",
"814 62 OFFCURVE",
"814 135 QCURVE SMOOTH",
"809 778 LINE SMOOTH",
"808 943 OFFCURVE",
"710 1026 QCURVE SMOOTH",
"618 1105 OFFCURVE",
"450 1105 QCURVE SMOOTH",
"246 1105 OFFCURVE",
"153 902 QCURVE SMOOTH",
"85 753 OFFCURVE",
"85 521 QCURVE SMOOTH",
"85 340 OFFCURVE",
"153 210 QCURVE SMOOTH",
"239 48 OFFCURVE",
"404 48 QCURVE SMOOTH",
"477 48 OFFCURVE",
"579 155 OFFCURVE",
"579 229 QCURVE SMOOTH",
"579 279 OFFCURVE",
"533 387 OFFCURVE",
"497 420 QCURVE",
"446 390 OFFCURVE",
"413 390 QCURVE SMOOTH",
"377 390 OFFCURVE",
"347 401 QCURVE SMOOTH",
"307 417 OFFCURVE",
"307 446 QCURVE SMOOTH",
"307 477 OFFCURVE",
"362 520 OFFCURVE",
"394 520 QCURVE SMOOTH",
"452 520 OFFCURVE"
);
},
{
closed = 1;
nodes = (
"1127 1001 QCURVE SMOOTH",
"1081 895 OFFCURVE",
"991 893 QCURVE SMOOTH",
"954 893 OFFCURVE",
"867 959 OFFCURVE",
"852 997 QCURVE",
"852 997 LINE",
"852 1007 OFFCURVE",
"868 1013 QCURVE SMOOTH",
"887 1020 OFFCURVE",
"891 1013 QCURVE SMOOTH",
"941 932 OFFCURVE",
"991 933 QCURVE SMOOTH",
"1037 934 OFFCURVE",
"1075 983 QCURVE",
"1075 983 LINE",
"1075 983 LINE",
"1076 985 OFFCURVE",
"1077 985 QCURVE",
"1077 983 OFFCURVE",
"1077 984 OFFCURVE",
"1077 985 QCURVE SMOOTH",
"1079 990 OFFCURVE",
"1086 1005 QCURVE SMOOTH",
"1091 1014 OFFCURVE",
"1108 1014 QCURVE SMOOTH",
"1133 1014 OFFCURVE"
);
},
{
closed = 1;
nodes = (
"1038 1023 QCURVE SMOOTH",
"1038 1003 OFFCURVE",
"1009 973 OFFCURVE",
"989 973 QCURVE SMOOTH",
"968 973 OFFCURVE",
"939 1003 OFFCURVE",
"939 1023 QCURVE SMOOTH",
"939 1043 OFFCURVE",
"969 1072 OFFCURVE",
"989 1072 QCURVE SMOOTH",
"1009 1072 OFFCURVE",
"1038 1043 OFFCURVE"
);
}
);
width = 1112;
}
);
},
{
glyphname = uni0A8A_uni0A82.zz24;
lastChange = "2017-06-08 06:27:27 +0000";
layers = (
{
layerId = "8D630CB6-6CFC-4A7D-AC95-7C82CE00D513";
paths = (
{
closed = 1;
nodes = (
"440 455 QCURVE",
"416 462 OFFCURVE",
"394 462 QCURVE SMOOTH",
"363 462 OFFCURVE",
"349 452 QCURVE",
"358 446 OFFCURVE",
"410 447 QCURVE SMOOTH",
"428 448 OFFCURVE"
);
},
{
closed = 1;
nodes = (
"501 487 QCURVE",
"578 542 OFFCURVE",
"578 608 QCURVE SMOOTH",
"578 682 OFFCURVE",
"494 770 OFFCURVE",
"420 770 QCURVE SMOOTH",
"389 770 OFFCURVE",
"301 730 QCURVE SMOOTH",
"288 724 OFFCURVE",
"264 752 OFFCURVE",
"264 766 QCURVE SMOOTH",
"264 774 OFFCURVE",
"269 779 QCURVE SMOOTH",
"328 828 OFFCURVE",
"420 828 QCURVE SMOOTH",
"521 828 OFFCURVE",
"636 710 OFFCURVE",
"636 608 QCURVE SMOOTH",
"636 526 OFFCURVE",
"543 452 QCURVE",
"583 411 OFFCURVE",
"637 284 OFFCURVE",
"637 229 QCURVE SMOOTH",
"637 133 OFFCURVE",
"499 -10 OFFCURVE",
"404 -10 QCURVE SMOOTH",
"214 -10 OFFCURVE",
"111 169 QCURVE",
"28 317 OFFCURVE",
"28 521 QCURVE SMOOTH",
"28 782 OFFCURVE",
"116 951 QCURVE SMOOTH",
"226 1163 OFFCURVE",
"450 1163 QCURVE SMOOTH",
"647 1163 OFFCURVE",
"753 1070 QCURVE SMOOTH",
"866 972 OFFCURVE",
"867 778 QCURVE SMOOTH",
"872 135 LINE SMOOTH",
"872 38 OFFCURVE",
"963 43 QCURVE SMOOTH",
"994 45 OFFCURVE",
"1011 68 QCURVE",
"1027 97 OFFCURVE",
"1044 125 QCURVE",
"1093 93 LINE",
"1045 22 OFFCURVE",
"1038 16 QCURVE",
"1011 -13 OFFCURVE",
"966 -14 QCURVE SMOOTH",
"894 -17 OFFCURVE",
"814 62 OFFCURVE",
"814 135 QCURVE SMOOTH",
"809 778 LINE SMOOTH",
"808 943 OFFCURVE",
"710 1026 QCURVE SMOOTH",
"618 1105 OFFCURVE",
"450 1105 QCURVE SMOOTH",
"246 1105 OFFCURVE",
"153 902 QCURVE SMOOTH",
"85 753 OFFCURVE",
"85 521 QCURVE SMOOTH",
"85 340 OFFCURVE",
"153 210 QCURVE SMOOTH",
"239 48 OFFCURVE",
"404 48 QCURVE SMOOTH",
"477 48 OFFCURVE",
"579 155 OFFCURVE",
"579 229 QCURVE SMOOTH",
"579 279 OFFCURVE",
"533 387 OFFCURVE",
"497 420 QCURVE",
"446 390 OFFCURVE",
"413 390 QCURVE SMOOTH",
"377 390 OFFCURVE",
"347 401 QCURVE SMOOTH",
"307 417 OFFCURVE",
"307 446 QCURVE SMOOTH",
"307 477 OFFCURVE",
"362 520 OFFCURVE",
"394 520 QCURVE SMOOTH",
"452 520 OFFCURVE"
);
},
{
closed = 1;
nodes = (
"1128 993 QCURVE SMOOTH",
"1128 966 OFFCURVE",
"1086 922 OFFCURVE",
"1058 922 QCURVE SMOOTH",
"1028 922 OFFCURVE",
"988 963 OFFCURVE",
"988 993 QCURVE SMOOTH",
"988 1022 OFFCURVE",
"1029 1063 OFFCURVE",
"1058 1063 QCURVE SMOOTH",
"1086 1063 OFFCURVE",
"1128 1021 OFFCURVE"
);
}
);
width = 1106;
}
);
},
{
glyphname = uni0AC0_uni0A81.zz26;
lastChange = "2017-06-08 06:27:28 +0000";
layers = (
{
anchors = (
{
name = "Anchor-3";
position = "{55, 968}";
}
);
layerId = "8D630CB6-6CFC-4A7D-AC95-7C82CE00D513";
paths = (
{
closed = 1;
nodes = (
"278 93 QCURVE SMOOTH",
"236 30 OFFCURVE",
"219 14 QCURVE SMOOTH",
"190 -12 OFFCURVE",
"138 -12 QCURVE SMOOTH",
"0 -12 OFFCURVE",
"0 152 QCURVE SMOOTH",
"0 964 LINE SMOOTH",
"0 1020 OFFCURVE",
"-35 1062 QCURVE SMOOTH",
"-73 1108 OFFCURVE",
"-127 1108 QCURVE SMOOTH",
"-182 1108 OFFCURVE",
"-207 1098 QCURVE SMOOTH",
"-242 1084 OFFCURVE",
"-263 1040 QCURVE SMOOTH",
"-299 963 OFFCURVE",
"-298 863 QCURVE SMOOTH",
"-298 846 OFFCURVE",
"-327 846 QCURVE SMOOTH",
"-356 846 OFFCURVE",
"-356 863 QCURVE SMOOTH",
"-359 1025 OFFCURVE",
"-301 1097 QCURVE",
"-247 1166 OFFCURVE",
"-127 1166 QCURVE SMOOTH",
"-49 1166 OFFCURVE",
"6 1103 QCURVE SMOOTH",
"58 1044 OFFCURVE",
"58 964 QCURVE SMOOTH",
"58 152 LINE SMOOTH",
"58 46 OFFCURVE",
"138 46 QCURVE SMOOTH",
"172 46 OFFCURVE",
"194 75 QCURVE SMOOTH",
"226 116 LINE",
"232 122 OFFCURVE",
"242 122 QCURVE",
"242 122 LINE",
"252 122 OFFCURVE",
"280 107 OFFCURVE",
"280 98 QCURVE SMOOTH",
"280 96 OFFCURVE"
);
},
{
closed = 1;
nodes = (
"310 1104 QCURVE SMOOTH",
"268 1008 OFFCURVE",
"187 1006 QCURVE SMOOTH",
"153 1006 OFFCURVE",
"74 1066 OFFCURVE",
"60 1101 QCURVE",
"60 1101 LINE",
"60 1109 OFFCURVE",
"75 1115 QCURVE SMOOTH",
"92 1121 OFFCURVE",
"96 1115 QCURVE SMOOTH",
"141 1041 OFFCURVE",
"187 1042 QCURVE SMOOTH",
"228 1043 OFFCURVE",
"263 1088 QCURVE",
"263 1088 LINE",
"263 1088 LINE",
"264 1089 OFFCURVE",
"265 1090 QCURVE",
"265 1088 OFFCURVE",
"265 1089 OFFCURVE",
"265 1090 QCURVE SMOOTH",
"267 1095 OFFCURVE",
"273 1108 QCURVE SMOOTH",
"277 1116 OFFCURVE",
"293 1116 QCURVE SMOOTH",
"316 1116 OFFCURVE"
);
},
{
closed = 1;
nodes = (
"229 1124 QCURVE SMOOTH",
"229 1107 OFFCURVE",
"203 1079 OFFCURVE",
"185 1079 QCURVE SMOOTH",
"139 1079 OFFCURVE",
"139 1124 QCURVE SMOOTH",
"139 1142 OFFCURVE",
"167 1169 OFFCURVE",
"185 1169 QCURVE SMOOTH",
"203 1169 OFFCURVE",
"229 1142 OFFCURVE"
);
}
);
width = 371;
}
);
},
{
glyphname = uni0AC0_uni0A82.zz26;
lastChange = "2017-06-08 06:27:28 +0000";
layers = (
{
anchors = (
{
name = "Anchor-3";
position = "{66, 968}";
}
);
layerId = "8D630CB6-6CFC-4A7D-AC95-7C82CE00D513";
paths = (
{
closed = 1;
nodes = (
"278 93 QCURVE SMOOTH",
"236 30 OFFCURVE",
"219 14 QCURVE SMOOTH",
"190 -12 OFFCURVE",
"138 -12 QCURVE SMOOTH",
"0 -12 OFFCURVE",
"0 152 QCURVE SMOOTH",
"0 964 LINE SMOOTH",
"0 1020 OFFCURVE",
"-36 1062 QCURVE",
"-73 1108 OFFCURVE",
"-127 1108 QCURVE SMOOTH",
"-182 1108 OFFCURVE",
"-207 1098 QCURVE SMOOTH",
"-243 1084 OFFCURVE",
"-264 1040 QCURVE SMOOTH",
"-300 963 OFFCURVE",
"-298 863 QCURVE SMOOTH",
"-298 846 OFFCURVE",
"-327 846 QCURVE SMOOTH",
"-356 846 OFFCURVE",
"-356 863 QCURVE SMOOTH",
"-359 1025 OFFCURVE",
"-302 1097 QCURVE SMOOTH",
"-248 1166 OFFCURVE",
"-127 1166 QCURVE SMOOTH",
"-49 1166 OFFCURVE",
"5 1103 QCURVE",
"58 1044 OFFCURVE",
"58 964 QCURVE SMOOTH",
"58 152 LINE SMOOTH",
"58 46 OFFCURVE",
"138 46 QCURVE SMOOTH",
"171 46 OFFCURVE",
"194 75 QCURVE SMOOTH",
"226 116 LINE",
"232 122 OFFCURVE",
"242 122 QCURVE",
"242 122 LINE",
"252 122 OFFCURVE",
"279 107 OFFCURVE",
"279 98 QCURVE SMOOTH",
"279 96 OFFCURVE"
);
},
{
closed = 1;
nodes = (
"232 1066 QCURVE SMOOTH",
"232 1044 OFFCURVE",
"198 1009 OFFCURVE",
"176 1009 QCURVE SMOOTH",
"153 1009 OFFCURVE",
"119 1043 OFFCURVE",
"119 1066 QCURVE SMOOTH",
"119 1088 OFFCURVE",
"154 1122 OFFCURVE",
"176 1122 QCURVE SMOOTH",
"198 1122 OFFCURVE",
"232 1088 OFFCURVE"
);
}
);
width = 371;
}
);
},
{
glyphname = uni0ACB_uni0A81.zz26;
lastChange = "2017-06-08 06:27:28 +0000";
layers = (
{
anchors = (
{
name = "Anchor-3";
position = "{55, 968}";
}
);
layerId = "8D630CB6-6CFC-4A7D-AC95-7C82CE00D513";
paths = (
{
closed = 1;
nodes = (
"282 88 QCURVE SMOOTH",
"218 -20 OFFCURVE",
"156 -20 QCURVE SMOOTH",
"87 -20 OFFCURVE",
"3 53 OFFCURVE",
"3 122 QCURVE SMOOTH",
"3 788 LINE SMOOTH",
"3 805 OFFCURVE",
"32 805 QCURVE SMOOTH",
"60 805 OFFCURVE",
"60 788 QCURVE SMOOTH",
"60 122 LINE SMOOTH",
"60 38 OFFCURVE",
"156 38 QCURVE SMOOTH",
"182 38 OFFCURVE",
"228 111 QCURVE",
"234 117 OFFCURVE",
"244 117 QCURVE",
"244 117 LINE",
"258 117 OFFCURVE",
"272 110 QCURVE",
"289 100 OFFCURVE"
);
},
{
closed = 1;
nodes = (
"49 856 QCURVE",
"45 849 OFFCURVE",
"26 840 QCURVE",
"1 837 OFFCURVE",
"-8 853 QCURVE SMOOTH",
"-77 984 OFFCURVE",
"-119 1045 QCURVE SMOOTH",
"-188 1145 OFFCURVE",
"-255 1145 QCURVE SMOOTH",
"-269 1145 OFFCURVE",
"-331 1130 OFFCURVE",
"-343 1130 QCURVE SMOOTH",
"-353 1130 OFFCURVE",
"-359 1134 QCURVE SMOOTH",
"-370 1140 OFFCURVE",
"-370 1163 QCURVE SMOOTH",
"-370 1184 OFFCURVE",
"-322 1195 QCURVE SMOOTH",
"-289 1203 OFFCURVE",
"-255 1203 QCURVE SMOOTH",
"-174 1203 OFFCURVE",
"-86 1080 QCURVE SMOOTH",
"-70 1058 OFFCURVE",
"-12 963 QCURVE SMOOTH",
"49 863 OFFCURVE"
);
},
{
closed = 1;
nodes = (
"264 1066 QCURVE SMOOTH",
"222 970 OFFCURVE",
"140 969 QCURVE SMOOTH",
"106 968 OFFCURVE",
"28 1028 OFFCURVE",
"14 1063 QCURVE",
"14 1063 LINE",
"14 1072 OFFCURVE",
"29 1077 QCURVE",
"46 1084 OFFCURVE",
"50 1077 QCURVE SMOOTH",
"95 1004 OFFCURVE",
"140 1005 QCURVE SMOOTH",
"182 1006 OFFCURVE",
"217 1050 QCURVE",
"217 1050 LINE",
"217 1050 LINE",
"218 1052 OFFCURVE",
"219 1052 QCURVE",
"218 1050 OFFCURVE",
"218 1050 QCURVE SMOOTH",
"218 1051 OFFCURVE",
"219 1052 QCURVE SMOOTH",
"221 1057 OFFCURVE",
"227 1070 QCURVE SMOOTH",
"231 1078 OFFCURVE",
"246 1078 QCURVE SMOOTH",
"269 1078 OFFCURVE"
);
},
{
closed = 1;
nodes = (
"183 1087 QCURVE SMOOTH",
"183 1069 OFFCURVE",
"156 1041 OFFCURVE",
"138 1041 QCURVE SMOOTH",
"93 1041 OFFCURVE",
"93 1087 QCURVE SMOOTH",
"93 1104 OFFCURVE",
"121 1131 OFFCURVE",
"138 1131 QCURVE SMOOTH",
"156 1131 OFFCURVE",
"183 1104 OFFCURVE"
);
}
);
width = 371;
}
);
},
{
glyphname = uni0ACB_uni0A82.zz26;
lastChange = "2017-06-08 06:27:28 +0000";
layers = (
{
anchors = (
{
name = "Anchor-3";
position = "{66, 1023}";
}
);
layerId = "8D630CB6-6CFC-4A7D-AC95-7C82CE00D513";
paths = (
{
closed = 1;
nodes = (
"281 88 QCURVE SMOOTH",
"216 -20 OFFCURVE",
"155 -20 QCURVE SMOOTH",
"85 -20 OFFCURVE",
"1 53 OFFCURVE",
"1 122 QCURVE SMOOTH",
"1 788 LINE SMOOTH",
"1 805 OFFCURVE",
"30 805 QCURVE SMOOTH",
"59 805 OFFCURVE",
"59 788 QCURVE SMOOTH",
"59 122 LINE SMOOTH",
"59 38 OFFCURVE",
"155 38 QCURVE SMOOTH",
"181 38 OFFCURVE",
"227 111 QCURVE",
"233 117 OFFCURVE",
"243 117 QCURVE",
"243 117 LINE",
"256 117 OFFCURVE",
"271 110 QCURVE",
"288 100 OFFCURVE"
);
},
{
closed = 1;
nodes = (
"47 856 QCURVE",
"43 849 OFFCURVE",
"24 840 QCURVE",
"-1 837 OFFCURVE",
"-9 853 QCURVE SMOOTH",
"-79 984 OFFCURVE",
"-121 1045 QCURVE SMOOTH",
"-189 1145 OFFCURVE",
"-257 1145 QCURVE SMOOTH",
"-270 1145 OFFCURVE",
"-332 1130 OFFCURVE",
"-344 1130 QCURVE SMOOTH",
"-354 1130 OFFCURVE",
"-360 1134 QCURVE SMOOTH",
"-371 1140 OFFCURVE",
"-371 1163 QCURVE SMOOTH",
"-371 1184 OFFCURVE",
"-324 1195 QCURVE SMOOTH",
"-290 1203 OFFCURVE",
"-257 1203 QCURVE SMOOTH",
"-175 1203 OFFCURVE",
"-87 1080 QCURVE SMOOTH",
"-71 1058 OFFCURVE",
"-14 963 QCURVE SMOOTH",
"47 863 OFFCURVE"
);
},
{
closed = 1;
nodes = (
"115 1095 QCURVE SMOOTH",
"115 1073 OFFCURVE",
"82 1038 OFFCURVE",
"60 1038 QCURVE SMOOTH",
"36 1038 OFFCURVE",
"3 1072 OFFCURVE",
"3 1095 QCURVE SMOOTH",
"3 1117 OFFCURVE",
"37 1151 OFFCURVE",
"60 1151 QCURVE SMOOTH",
"82 1151 OFFCURVE",
"115 1117 OFFCURVE"
);
}
);
width = 371;
}
);
},
{
glyphname = uni0ACC_uni0A81.zz26;
lastChange = "2017-06-08 06:27:28 +0000";
layers = (
{
anchors = (
{
name = "Anchor-3";
position = "{66, 990}";
}
);
layerId = "8D630CB6-6CFC-4A7D-AC95-7C82CE00D513";
paths = (
{
closed = 1;
nodes = (
"283 88 QCURVE SMOOTH",
"219 -20 OFFCURVE",
"158 -20 QCURVE SMOOTH",
"88 -20 OFFCURVE",
"4 53 OFFCURVE",
"4 122 QCURVE SMOOTH",
"4 788 LINE SMOOTH",
"4 805 OFFCURVE",
"33 805 QCURVE SMOOTH",
"62 805 OFFCURVE",
"62 788 QCURVE SMOOTH",
"62 122 LINE SMOOTH",
"62 38 OFFCURVE",
"158 38 QCURVE SMOOTH",
"184 38 OFFCURVE",
"230 111 QCURVE",
"236 117 OFFCURVE",
"246 117 QCURVE",
"246 117 LINE",
"259 117 OFFCURVE",
"273 110 QCURVE SMOOTH",
"291 100 OFFCURVE"
);
},
{
closed = 1;
nodes = (
"-65 867 QCURVE SMOOTH",
"-61 863 OFFCURVE",
"-61 856 QCURVE",
"-61 856 LINE",
"-61 842 OFFCURVE",
"-84 817 OFFCURVE",
"-95 827 QCURVE SMOOTH",
"-204 929 OFFCURVE",
"-231 948 QCURVE SMOOTH",
"-305 1003 OFFCURVE",
"-370 1003 QCURVE SMOOTH",
"-397 1003 OFFCURVE",
"-438 986 QCURVE SMOOTH",
"-449 981 OFFCURVE",
"-468 1005 OFFCURVE",
"-468 1018 QCURVE SMOOTH",
"-468 1026 OFFCURVE",
"-460 1030 QCURVE SMOOTH",
"-416 1052 OFFCURVE",
"-370 1052 QCURVE SMOOTH",
"-301 1052 OFFCURVE",
"-216 993 QCURVE SMOOTH",
"-180 967 OFFCURVE"
);
},
{
closed = 1;
nodes = (
"50 856 QCURVE",
"46 849 OFFCURVE",
"27 840 QCURVE",
"2 837 OFFCURVE",
"-6 853 QCURVE SMOOTH",
"-76 984 OFFCURVE",
"-118 1045 QCURVE SMOOTH",
"-186 1145 OFFCURVE",
"-254 1145 QCURVE SMOOTH",
"-267 1145 OFFCURVE",
"-329 1130 OFFCURVE",
"-341 1130 QCURVE SMOOTH",
"-351 1130 OFFCURVE",
"-357 1134 QCURVE SMOOTH",
"-368 1140 OFFCURVE",
"-368 1163 QCURVE SMOOTH",
"-368 1184 OFFCURVE",
"-321 1195 QCURVE SMOOTH",
"-287 1203 OFFCURVE",
"-254 1203 QCURVE SMOOTH",
"-173 1203 OFFCURVE",
"-84 1080 QCURVE SMOOTH",
"-68 1057 OFFCURVE",
"-11 963 QCURVE SMOOTH",
"50 863 OFFCURVE"
);
},
{
closed = 1;
nodes = (
"265 1037 QCURVE SMOOTH",
"224 941 OFFCURVE",
"142 940 QCURVE SMOOTH",
"108 939 OFFCURVE",
"29 999 OFFCURVE",
"15 1034 QCURVE",
"15 1034 LINE",
"15 1043 OFFCURVE",
"30 1048 QCURVE",
"47 1055 OFFCURVE",
"51 1048 QCURVE SMOOTH",
"96 975 OFFCURVE",
"142 976 QCURVE SMOOTH",
"183 977 OFFCURVE",
"218 1021 QCURVE",
"218 1021 LINE",
"218 1021 LINE",
"219 1023 OFFCURVE",
"220 1023 QCURVE",
"220 1021 OFFCURVE",
"220 1022 OFFCURVE",
"220 1023 QCURVE SMOOTH",
"222 1028 OFFCURVE",
"228 1041 QCURVE SMOOTH",
"232 1049 OFFCURVE",
"248 1049 QCURVE SMOOTH",
"271 1049 OFFCURVE"
);
},
{
closed = 1;
nodes = (
"184 1058 QCURVE SMOOTH",
"184 1040 OFFCURVE",
"158 1012 OFFCURVE",
"140 1012 QCURVE SMOOTH",
"95 1012 OFFCURVE",
"95 1058 QCURVE SMOOTH",
"95 1075 OFFCURVE",
"122 1102 OFFCURVE",
"140 1102 QCURVE SMOOTH",
"158 1102 OFFCURVE",
"184 1075 OFFCURVE"
);
}
);
width = 371;
}
);
},
{
glyphname = uni0ACC_uni0A82.zz26;
lastChange = "2017-06-08 06:27:28 +0000";
layers = (
{
anchors = (
{
name = "Anchor-3";
position = "{66, 979}";
}
);
layerId = "8D630CB6-6CFC-4A7D-AC95-7C82CE00D513";
paths = (
{
closed = 1;
nodes = (
"282 88 QCURVE SMOOTH",
"218 -20 OFFCURVE",
"156 -20 QCURVE SMOOTH",
"87 -20 OFFCURVE",
"3 53 OFFCURVE",
"3 122 QCURVE SMOOTH",
"3 788 LINE SMOOTH",
"3 805 OFFCURVE",
"32 805 QCURVE SMOOTH",
"60 805 OFFCURVE",
"60 788 QCURVE SMOOTH",
"60 122 LINE SMOOTH",
"60 38 OFFCURVE",
"156 38 QCURVE SMOOTH",
"182 38 OFFCURVE",
"228 111 QCURVE",
"234 117 OFFCURVE",
"244 117 QCURVE",
"244 117 LINE",
"258 117 OFFCURVE",
"272 110 QCURVE",
"289 100 OFFCURVE"
);
},
{
closed = 1;
nodes = (
"117 1095 QCURVE SMOOTH",
"117 1073 OFFCURVE",
"83 1038 OFFCURVE",
"61 1038 QCURVE SMOOTH",
"38 1038 OFFCURVE",
"4 1072 OFFCURVE",
"4 1095 QCURVE SMOOTH",
"4 1117 OFFCURVE",
"39 1151 OFFCURVE",
"61 1151 QCURVE SMOOTH",
"83 1151 OFFCURVE",
"117 1117 OFFCURVE"
);
},
{
closed = 1;
nodes = (
"-67 867 QCURVE SMOOTH",
"-63 863 OFFCURVE",
"-63 856 QCURVE",
"-63 856 LINE",
"-63 842 OFFCURVE",
"-85 817 OFFCURVE",
"-96 827 QCURVE SMOOTH",
"-206 929 OFFCURVE",
"-233 948 QCURVE",
"-306 1003 OFFCURVE",
"-371 1003 QCURVE SMOOTH",
"-399 1003 OFFCURVE",
"-439 986 QCURVE SMOOTH",
"-451 981 OFFCURVE",
"-469 1005 OFFCURVE",
"-469 1018 QCURVE SMOOTH",
"-469 1026 OFFCURVE",
"-462 1030 QCURVE SMOOTH",
"-417 1052 OFFCURVE",
"-371 1052 QCURVE SMOOTH",
"-302 1052 OFFCURVE",
"-218 993 QCURVE SMOOTH",
"-181 967 OFFCURVE"
);
},
{
closed = 1;
nodes = (
"49 856 QCURVE",
"45 849 OFFCURVE",
"26 840 QCURVE",
"1 837 OFFCURVE",
"-8 853 QCURVE SMOOTH",
"-77 984 OFFCURVE",
"-119 1045 QCURVE SMOOTH",
"-188 1145 OFFCURVE",
"-255 1145 QCURVE SMOOTH",
"-269 1145 OFFCURVE",
"-331 1130 OFFCURVE",
"-343 1130 QCURVE SMOOTH",
"-353 1130 OFFCURVE",
"-359 1134 QCURVE SMOOTH",
"-370 1140 OFFCURVE",
"-370 1163 QCURVE SMOOTH",
"-370 1184 OFFCURVE",
"-322 1195 QCURVE SMOOTH",
"-289 1203 OFFCURVE",
"-255 1203 QCURVE SMOOTH",
"-174 1203 OFFCURVE",
"-86 1080 QCURVE SMOOTH",
"-70 1057 OFFCURVE",
"-12 963 QCURVE SMOOTH",
"49 863 OFFCURVE"
);
}
);
width = 371;
}
);
},
{
glyphname = uni0AC0_uni0AB0_uni0ACD.zz06.zz26;
lastChange = "2017-06-08 06:27:28 +0000";
layers = (
{
anchors = (
{
name = "Anchor-3";
position = "{55, 979}";
}
);
layerId = "8D630CB6-6CFC-4A7D-AC95-7C82CE00D513";
paths = (
{
closed = 1;
nodes = (
"278 93 QCURVE SMOOTH",
"236 30 OFFCURVE",
"219 14 QCURVE SMOOTH",
"190 -12 OFFCURVE",
"138 -12 QCURVE SMOOTH",
"0 -12 OFFCURVE",
"0 152 QCURVE SMOOTH",
"0 964 LINE SMOOTH",
"0 1020 OFFCURVE",
"-36 1062 QCURVE",
"-73 1108 OFFCURVE",
"-127 1108 QCURVE SMOOTH",
"-182 1108 OFFCURVE",
"-207 1098 QCURVE SMOOTH",
"-243 1084 OFFCURVE",
"-264 1040 QCURVE SMOOTH",
"-300 963 OFFCURVE",
"-298 863 QCURVE SMOOTH",
"-298 846 OFFCURVE",
"-327 846 QCURVE SMOOTH",
"-356 846 OFFCURVE",
"-356 863 QCURVE SMOOTH",
"-359 1025 OFFCURVE",
"-302 1097 QCURVE SMOOTH",
"-248 1166 OFFCURVE",
"-127 1166 QCURVE SMOOTH",
"-49 1166 OFFCURVE",
"5 1103 QCURVE",
"58 1044 OFFCURVE",
"58 964 QCURVE SMOOTH",
"58 152 LINE SMOOTH",
"58 46 OFFCURVE",
"138 46 QCURVE SMOOTH",
"171 46 OFFCURVE",
"194 75 QCURVE SMOOTH",
"226 116 LINE",
"232 122 OFFCURVE",
"242 122 QCURVE",
"242 122 LINE",
"252 122 OFFCURVE",
"279 107 OFFCURVE",
"279 98 QCURVE SMOOTH",
"279 96 OFFCURVE"
);
},
{
closed = 1;
nodes = (
"0 979 LINE",
"5 1153 OFFCURVE",
"175 1160 QCURVE SMOOTH",
"245 1163 OFFCURVE",
"282 1133 QCURVE SMOOTH",
"288 1128 OFFCURVE",
"288 1120 QCURVE",
"288 1120 LINE",
"288 1105 OFFCURVE",
"263 1076 OFFCURVE",
"250 1084 QCURVE SMOOTH",
"215 1104 OFFCURVE",
"178 1102 QCURVE SMOOTH",
"63 1098 OFFCURVE",
"57 976 QCURVE"
);
}
);
width = 371;
}
);
},
{
glyphname = uni0ACB_uni0AB0_uni0ACD.zz06.zz26;
lastChange = "2017-06-08 06:27:28 +0000";
layers = (
{
anchors = (
{
name = "Anchor-3";
position = "{55, 979}";
}
);
layerId = "8D630CB6-6CFC-4A7D-AC95-7C82CE00D513";
paths = (
{
closed = 1;
nodes = (
"281 88 QCURVE SMOOTH",
"216 -20 OFFCURVE",
"155 -20 QCURVE SMOOTH",
"85 -20 OFFCURVE",
"1 53 OFFCURVE",
"1 122 QCURVE SMOOTH",
"1 788 LINE SMOOTH",
"1 805 OFFCURVE",
"30 805 QCURVE SMOOTH",
"59 805 OFFCURVE",
"59 788 QCURVE SMOOTH",
"59 122 LINE SMOOTH",
"59 38 OFFCURVE",
"155 38 QCURVE SMOOTH",
"181 38 OFFCURVE",
"227 111 QCURVE",
"233 117 OFFCURVE",
"243 117 QCURVE",
"243 117 LINE",
"256 117 OFFCURVE",
"271 110 QCURVE",
"288 100 OFFCURVE"
);
},
{
closed = 1;
nodes = (
"47 856 QCURVE",
"43 849 OFFCURVE",
"24 840 QCURVE",
"-1 837 OFFCURVE",
"-9 853 QCURVE SMOOTH",
"-79 984 OFFCURVE",
"-121 1045 QCURVE SMOOTH",
"-189 1145 OFFCURVE",
"-257 1145 QCURVE SMOOTH",
"-270 1145 OFFCURVE",
"-332 1130 OFFCURVE",
"-344 1130 QCURVE SMOOTH",
"-354 1130 OFFCURVE",
"-360 1134 QCURVE SMOOTH",
"-371 1140 OFFCURVE",
"-371 1163 QCURVE SMOOTH",
"-371 1184 OFFCURVE",
"-324 1195 QCURVE SMOOTH",
"-290 1203 OFFCURVE",
"-257 1203 QCURVE SMOOTH",
"-175 1203 OFFCURVE",
"-87 1080 QCURVE SMOOTH",
"-71 1057 OFFCURVE",
"-14 963 QCURVE SMOOTH",
"47 863 OFFCURVE"
);
},
{
closed = 1;
nodes = (
"-25 880 QCURVE SMOOTH",
"-40 943 OFFCURVE",
"-39 980 QCURVE SMOOTH",
"-34 1154 OFFCURVE",
"136 1161 QCURVE SMOOTH",
"206 1164 OFFCURVE",
"243 1133 QCURVE SMOOTH",
"249 1129 OFFCURVE",
"249 1120 QCURVE",
"249 1120 LINE",
"249 1106 OFFCURVE",
"224 1077 OFFCURVE",
"211 1084 QCURVE SMOOTH",
"176 1104 OFFCURVE",
"139 1103 QCURVE SMOOTH",
"24 1099 OFFCURVE",
"19 977 QCURVE SMOOTH",
"18 954 OFFCURVE",
"33 884 QCURVE",
"36 880 OFFCURVE",
"10 862 OFFCURVE",
"-3 862 QCURVE SMOOTH",
"-20 862 OFFCURVE"
);
}
);
width = 371;
}
);
},
{
glyphname = uni0ACC_uni0AB0_uni0ACD.zz06.zz26;
lastChange = "2017-06-08 06:27:28 +0000";
layers = (
{
anchors = (
{
name = "Anchor-3";
position = "{55, 957}";
}
);
layerId = "8D630CB6-6CFC-4A7D-AC95-7C82CE00D513";
paths = (
{
closed = 1;
nodes = (
"282 88 QCURVE SMOOTH",
"218 -20 OFFCURVE",
"156 -20 QCURVE SMOOTH",
"87 -20 OFFCURVE",
"3 53 OFFCURVE",
"3 122 QCURVE SMOOTH",
"3 788 LINE SMOOTH",
"3 805 OFFCURVE",
"32 805 QCURVE SMOOTH",
"60 805 OFFCURVE",
"60 788 QCURVE SMOOTH",
"60 122 LINE SMOOTH",
"60 38 OFFCURVE",
"156 38 QCURVE SMOOTH",
"182 38 OFFCURVE",
"228 111 QCURVE",
"234 117 OFFCURVE",
"244 117 QCURVE",
"244 117 LINE",
"258 117 OFFCURVE",
"272 110 QCURVE",
"289 100 OFFCURVE"
);
},
{
closed = 1;
nodes = (
"49 856 QCURVE",
"45 849 OFFCURVE",
"26 840 QCURVE",
"1 837 OFFCURVE",
"-8 853 QCURVE SMOOTH",
"-77 984 OFFCURVE",
"-119 1045 QCURVE SMOOTH",
"-188 1145 OFFCURVE",
"-255 1145 QCURVE SMOOTH",
"-269 1145 OFFCURVE",
"-331 1130 OFFCURVE",
"-343 1130 QCURVE SMOOTH",
"-353 1130 OFFCURVE",
"-359 1134 QCURVE SMOOTH",
"-370 1140 OFFCURVE",
"-370 1163 QCURVE SMOOTH",
"-370 1184 OFFCURVE",
"-322 1195 QCURVE SMOOTH",
"-289 1203 OFFCURVE",
"-255 1203 QCURVE SMOOTH",
"-174 1203 OFFCURVE",
"-86 1080 QCURVE SMOOTH",
"-70 1057 OFFCURVE",
"-12 963 QCURVE SMOOTH",
"49 863 OFFCURVE"
);
},
{
closed = 1;
nodes = (
"-23 880 QCURVE SMOOTH",
"-39 943 OFFCURVE",
"-38 980 QCURVE SMOOTH",
"-32 1154 OFFCURVE",
"137 1161 QCURVE SMOOTH",
"208 1164 OFFCURVE",
"245 1133 QCURVE SMOOTH",
"250 1129 OFFCURVE",
"250 1120 QCURVE",
"250 1120 LINE",
"250 1106 OFFCURVE",
"226 1077 OFFCURVE",
"213 1084 QCURVE SMOOTH",
"178 1104 OFFCURVE",
"140 1103 QCURVE SMOOTH",
"26 1099 OFFCURVE",
"20 977 QCURVE SMOOTH",
"19 954 OFFCURVE",
"35 884 QCURVE",
"38 880 OFFCURVE",
"12 862 OFFCURVE",
"-1 862 QCURVE SMOOTH",
"-19 862 OFFCURVE"
);
},
{
closed = 1;
nodes = (
"-67 867 QCURVE SMOOTH",
"-63 863 OFFCURVE",
"-63 856 QCURVE",
"-63 856 LINE",
"-63 842 OFFCURVE",
"-85 817 OFFCURVE",
"-96 827 QCURVE SMOOTH",
"-206 929 OFFCURVE",
"-233 948 QCURVE",
"-306 1003 OFFCURVE",
"-371 1003 QCURVE SMOOTH",
"-399 1003 OFFCURVE",
"-439 986 QCURVE SMOOTH",
"-451 981 OFFCURVE",
"-469 1005 OFFCURVE",
"-469 1018 QCURVE SMOOTH",
"-469 1026 OFFCURVE",
"-462 1030 QCURVE SMOOTH",
"-417 1052 OFFCURVE",
"-371 1052 QCURVE SMOOTH",
"-302 1052 OFFCURVE",
"-218 993 QCURVE SMOOTH",
"-181 967 OFFCURVE"
);
}
);
width = 371;
}
);
},
{
glyphname = uni0A95;
lastChange = "2017-06-08 06:27:27 +0000";
layers = (
{
anchors = (
{
name = "Anchor-0";
position = "{341, 770}";
},
{
name = "Anchor-2";
position = "{341, 770}";
},
{
name = "Anchor-6";
position = "{363, -11}";
},
{
name = "Anchor-7";
position = "{363, -11}";
}
);
layerId = "8D630CB6-6CFC-4A7D-AC95-7C82CE00D513";
paths = (
{
closed = 1;
nodes = (
"407 417 QCURVE",
"476 365 OFFCURVE",
"502 327 QCURVE SMOOTH",
"539 275 OFFCURVE",
"539 203 QCURVE SMOOTH",
"539 111 OFFCURVE",
"463 48 QCURVE SMOOTH",
"391 -12 OFFCURVE",
"297 -12 QCURVE SMOOTH",
"209 -12 OFFCURVE",
"148 13 QCURVE SMOOTH",
"118 25 OFFCURVE",
"9 90 QCURVE SMOOTH",
"3 94 OFFCURVE",
"3 103 QCURVE SMOOTH",
"3 116 OFFCURVE",
"25 149 OFFCURVE",
"38 142 QCURVE SMOOTH",
"132 88 OFFCURVE",
"161 75 QCURVE SMOOTH",
"226 46 OFFCURVE",
"297 46 QCURVE SMOOTH",
"368 46 OFFCURVE",
"422 88 QCURVE SMOOTH",
"481 134 OFFCURVE",
"481 203 QCURVE SMOOTH",
"481 273 OFFCURVE",
"449 320 QCURVE SMOOTH",
"425 355 OFFCURVE",
"359 404 QCURVE",
"220 287 OFFCURVE",
"155 287 QCURVE SMOOTH",
"127 287 OFFCURVE",
"127 324 QCURVE SMOOTH",
"127 333 OFFCURVE",
"132 337 QCURVE SMOOTH",
"164 372 OFFCURVE",
"313 437 QCURVE",
"175 550 OFFCURVE",
"175 621 QCURVE SMOOTH",
"175 687 OFFCURVE",
"289 824 OFFCURVE",
"353 824 QCURVE",
"353 824 LINE",
"368 824 OFFCURVE",
"376 804 QCURVE SMOOTH",
"381 794 OFFCURVE",
"381 786 QCURVE SMOOTH",
"381 778 OFFCURVE",
"376 773 QCURVE SMOOTH",
"356 757 OFFCURVE",
"282 698 QCURVE SMOOTH",
"233 659 OFFCURVE",
"233 621 QCURVE SMOOTH",
"233 560 OFFCURVE",
"348 458 QCURVE",
"543 544 LINE SMOOTH",
"553 549 OFFCURVE",
"572 523 OFFCURVE",
"572 513 QCURVE SMOOTH",
"572 504 OFFCURVE",
"566 501 QCURVE SMOOTH",
"544 487 OFFCURVE"
);
}
);
width = 696;
}
);
unicode = 0A95;
},
{
glyphname = uni0A96;
lastChange = "2017-06-08 06:27:27 +0000";
layers = (
{
anchors = (
{
name = "Anchor-0";
position = "{781, 759}";
},
{
name = "Anchor-2";
position = "{781, 759}";
},
{
name = "Anchor-6";
position = "{792, 0}";
},
{
name = "Anchor-7";
position = "{792, 0}";
}
);
layerId = "8D630CB6-6CFC-4A7D-AC95-7C82CE00D513";
paths = (
{
closed = 1;
nodes = (
"495 518 QCURVE",
"495 522 OFFCURVE",
"501 537 OFFCURVE",
"501 540 QCURVE SMOOTH",
"501 584 OFFCURVE",
"485 582 QCURVE",
"463 582 OFFCURVE",
"463 565 QCURVE SMOOTH",
"463 536 OFFCURVE"
);
},
{
closed = 1;
nodes = (
"724 529 QCURVE",
"724 468 LINE",
"650 440 OFFCURVE",
"623 440 QCURVE SMOOTH",
"576 440 OFFCURVE",
"543 447 QCURVE",
"523 354 OFFCURVE",
"466 293 QCURVE SMOOTH",
"402 224 OFFCURVE",
"313 224 QCURVE SMOOTH",
"235 224 OFFCURVE",
"182 263 QCURVE SMOOTH",
"125 306 OFFCURVE",
"125 382 QCURVE SMOOTH",
"125 741 LINE SMOOTH",
"125 788 OFFCURVE",
"68 785 QCURVE SMOOTH",
"37 783 OFFCURVE",
"25 759 QCURVE SMOOTH",
"22 753 OFFCURVE",
"16 753 QCURVE SMOOTH",
"4 753 OFFCURVE",
"-20 782 OFFCURVE",
"-20 794 QCURVE SMOOTH",
"-20 799 OFFCURVE",
"-16 802 QCURVE SMOOTH",
"14 824 OFFCURVE",
"22 828 QCURVE SMOOTH",
"47 842 OFFCURVE",
"65 843 QCURVE SMOOTH",
"182 850 OFFCURVE",
"182 741 QCURVE SMOOTH",
"182 382 LINE SMOOTH",
"182 332 OFFCURVE",
"224 305 QCURVE SMOOTH",
"260 282 OFFCURVE",
"313 282 QCURVE SMOOTH",
"382 282 OFFCURVE",
"432 341 QCURVE",
"473 392 OFFCURVE",
"488 466 QCURVE",
"405 501 OFFCURVE",
"405 565 QCURVE SMOOTH",
"405 594 OFFCURVE",
"453 639 OFFCURVE",
"482 640 QCURVE SMOOTH",
"516 642 OFFCURVE",
"536 607 QCURVE SMOOTH",
"553 577 OFFCURVE",
"553 542 QCURVE SMOOTH",
"553 515 OFFCURVE",
"552 502 QCURVE",
"571 492 OFFCURVE",
"620 492 QCURVE SMOOTH",
"642 492 OFFCURVE",
"673 507 QCURVE SMOOTH",
"715 526 OFFCURVE"
);
},
{
closed = 1;
nodes = (
"1002 88 QCURVE SMOOTH",
"938 -20 OFFCURVE",
"876 -20 QCURVE SMOOTH",
"807 -20 OFFCURVE",
"723 53 OFFCURVE",
"723 122 QCURVE SMOOTH",
"723 788 LINE SMOOTH",
"723 805 OFFCURVE",
"752 805 QCURVE SMOOTH",
"780 805 OFFCURVE",
"780 788 QCURVE SMOOTH",
"780 122 LINE SMOOTH",
"780 38 OFFCURVE",
"876 38 QCURVE SMOOTH",
"902 38 OFFCURVE",
"948 111 QCURVE",
"954 117 OFFCURVE",
"964 117 QCURVE",
"964 117 LINE",
"978 117 OFFCURVE",
"992 110 QCURVE",
"1009 100 OFFCURVE"
);
}
);
width = 1112;
}
);
unicode = 0A96;
},
{
glyphname = uni0A97;
lastChange = "2017-06-08 06:27:27 +0000";
layers = (
{
anchors = (
{
name = "Anchor-0";
position = "{682, 759}";
},
{
name = "Anchor-2";
position = "{682, 759}";
},
{
name = "Anchor-6";
position = "{638, 22}";
},
{
name = "Anchor-7";
position = "{638, 22}";
}
);
layerId = "8D630CB6-6CFC-4A7D-AC95-7C82CE00D513";
paths = (
{
closed = 1;
nodes = (
"458 530 QCURVE SMOOTH",
"458 422 OFFCURVE",
"412 348 QCURVE SMOOTH",
"357 259 OFFCURVE",
"256 259 QCURVE SMOOTH",
"163 259 OFFCURVE",
"97 337 QCURVE SMOOTH",
"59 383 OFFCURVE",
"4 495 QCURVE SMOOTH",
"-1 507 OFFCURVE",
"30 526 OFFCURVE",
"42 526 QCURVE SMOOTH",
"52 526 OFFCURVE",
"56 518 QCURVE SMOOTH",
"133 379 LINE",
"180 317 OFFCURVE",
"256 317 QCURVE SMOOTH",
"333 317 OFFCURVE",
"371 389 QCURVE SMOOTH",
"400 445 OFFCURVE",
"400 530 QCURVE SMOOTH",
"400 632 OFFCURVE",
"360 701 QCURVE SMOOTH",
"310 785 OFFCURVE",
"216 785 QCURVE SMOOTH",
"160 785 OFFCURVE",
"106 753 QCURVE SMOOTH",
"103 752 OFFCURVE",
"97 752 QCURVE SMOOTH",
"85 752 OFFCURVE",
"61 773 OFFCURVE",
"61 785 QCURVE SMOOTH",
"61 790 OFFCURVE",
"65 794 QCURVE SMOOTH",
"101 826 OFFCURVE",
"135 835 QCURVE",
"159 843 OFFCURVE",
"216 843 QCURVE SMOOTH",
"334 843 OFFCURVE",
"400 741 QCURVE",
"458 654 OFFCURVE"
);
},
{
closed = 1;
nodes = (
"896 88 QCURVE SMOOTH",
"832 -20 OFFCURVE",
"770 -20 QCURVE SMOOTH",
"701 -20 OFFCURVE",
"617 53 OFFCURVE",
"617 122 QCURVE SMOOTH",
"617 788 LINE SMOOTH",
"617 805 OFFCURVE",
"646 805 QCURVE SMOOTH",
"675 805 OFFCURVE",
"675 788 QCURVE SMOOTH",
"675 122 LINE SMOOTH",
"675 38 OFFCURVE",
"770 38 QCURVE SMOOTH",
"796 38 OFFCURVE",
"843 111 QCURVE",
"849 117 OFFCURVE",
"859 117 QCURVE",
"859 117 LINE",
"872 117 OFFCURVE",
"886 110 QCURVE",
"903 100 OFFCURVE"
);
}
);
width = 1008;
}
);
unicode = 0A97;
},
{
glyphname = uni0A98;
lastChange = "2017-06-08 06:27:27 +0000";
layers = (
{
anchors = (
{
name = "Anchor-0";
position = "{528, 759}";
},
{
name = "Anchor-2";
position = "{528, 759}";
},
{
name = "Anchor-6";
position = "{506, 0}";
},
{
name = "Anchor-7";
position = "{506, 0}";
}
);
layerId = "8D630CB6-6CFC-4A7D-AC95-7C82CE00D513";
paths = (
{
closed = 1;
nodes = (
"90 465 QCURVE",
"60 494 OFFCURVE",
"36 540 QCURVE SMOOTH",
"8 592 OFFCURVE",
"10 627 QCURVE SMOOTH",
"13 676 OFFCURVE",
"72 750 OFFCURVE",
"120 750 QCURVE SMOOTH",
"291 750 LINE SMOOTH",
"307 750 OFFCURVE",
"307 723 QCURVE SMOOTH",
"307 695 OFFCURVE",
"291 692 QCURVE SMOOTH",
"263 687 OFFCURVE",
"120 692 QCURVE SMOOTH",
"72 694 OFFCURVE",
"68 624 QCURVE SMOOTH",
"65 567 OFFCURVE",
"140 491 QCURVE",
"217 520 OFFCURVE",
"266 515 QCURVE",
"287 514 OFFCURVE",
"287 481 QCURVE SMOOTH",
"287 458 OFFCURVE",
"272 458 QCURVE SMOOTH",
"91 455 OFFCURVE",
"91 350 QCURVE SMOOTH",
"91 292 OFFCURVE",
"188 203 OFFCURVE",
"248 203 QCURVE SMOOTH",
"316 203 OFFCURVE",
"397 249 QCURVE SMOOTH",
"466 289 OFFCURVE",
"478 294 QCURVE SMOOTH",
"482 296 OFFCURVE",
"485 296 QCURVE SMOOTH",
"496 296 OFFCURVE",
"517 269 OFFCURVE",
"517 258 QCURVE SMOOTH",
"517 249 OFFCURVE",
"510 245 QCURVE SMOOTH",
"426 193 OFFCURVE",
"390 177 QCURVE SMOOTH",
"316 145 OFFCURVE",
"248 145 QCURVE SMOOTH",
"161 145 OFFCURVE",
"33 265 OFFCURVE",
"33 350 QCURVE SMOOTH",
"33 423 OFFCURVE"
);
},
{
closed = 1;
nodes = (
"752 88 QCURVE SMOOTH",
"687 -20 OFFCURVE",
"626 -20 QCURVE SMOOTH",
"556 -20 OFFCURVE",
"472 53 OFFCURVE",
"472 122 QCURVE SMOOTH",
"472 788 LINE SMOOTH",
"472 805 OFFCURVE",
"501 805 QCURVE SMOOTH",
"530 805 OFFCURVE",
"530 788 QCURVE SMOOTH",
"530 122 LINE SMOOTH",
"530 38 OFFCURVE",
"626 38 QCURVE SMOOTH",
"652 38 OFFCURVE",
"698 111 QCURVE",
"704 117 OFFCURVE",
"714 117 QCURVE",
"714 117 LINE",
"727 117 OFFCURVE",
"741 110 QCURVE SMOOTH",
"759 100 OFFCURVE"
);
}
);
width = 904;
}
);
unicode = 0A98;
},
{
glyphname = uni0A99;
lastChange = "2017-06-08 06:27:27 +0000";
layers = (
{
anchors = (
{
name = "Anchor-0";
position = "{484, 737}";
},
{
name = "Anchor-2";
position = "{484, 737}";
},
{
name = "Anchor-6";
position = "{451, 11}";
},
{
name = "Anchor-7";
position = "{451, 11}";
}
);
layerId = "8D630CB6-6CFC-4A7D-AC95-7C82CE00D513";
paths = (
{
closed = 1;
nodes = (
"582 182 QCURVE SMOOTH",
"582 117 OFFCURVE",
"491 19 OFFCURVE",
"426 19 QCURVE SMOOTH",
"182 19 OFFCURVE",
"1 414 QCURVE SMOOTH",
"-4 426 OFFCURVE",
"26 450 OFFCURVE",
"39 450 QCURVE SMOOTH",
"47 450 OFFCURVE",
"51 443 QCURVE SMOOTH",
"136 252 OFFCURVE",
"198 180 QCURVE SMOOTH",
"287 75 OFFCURVE",
"426 75 QCURVE SMOOTH",
"466 75 OFFCURVE",
"524 141 OFFCURVE",
"524 182 QCURVE SMOOTH",
"524 275 OFFCURVE",
"463 353 QCURVE SMOOTH",
"435 390 OFFCURVE",
"352 459 QCURVE SMOOTH",
"291 509 OFFCURVE",
"291 542 QCURVE SMOOTH",
"291 559 OFFCURVE",
"306 578 QCURVE SMOOTH",
"397 699 OFFCURVE",
"449 765 QCURVE SMOOTH",
"453 769 OFFCURVE",
"460 769 QCURVE",
"460 769 LINE",
"475 769 OFFCURVE",
"506 742 OFFCURVE",
"495 730 QCURVE SMOOTH",
"438 663 OFFCURVE",
"356 549 QCURVE SMOOTH",
"349 539 OFFCURVE",
"349 529 QCURVE SMOOTH",
"349 505 OFFCURVE",
"410 456 QCURVE SMOOTH",
"490 392 OFFCURVE",
"521 352 QCURVE SMOOTH",
"582 275 OFFCURVE"
);
},
{
closed = 1;
nodes = (
"631 562 QCURVE SMOOTH",
"631 534 OFFCURVE",
"590 491 OFFCURVE",
"562 491 QCURVE SMOOTH",
"534 491 OFFCURVE",
"491 534 OFFCURVE",
"491 562 QCURVE SMOOTH",
"491 590 OFFCURVE",
"534 631 OFFCURVE",
"562 631 QCURVE SMOOTH",
"590 631 OFFCURVE",
"631 590 OFFCURVE"
);
}
);
width = 696;
}
);
unicode = 0A99;
},
{
glyphname = uni0A9A;
lastChange = "2017-06-08 06:27:27 +0000";
layers = (
{
anchors = (
{
name = "Anchor-0";
position = "{616, 770}";
},
{
name = "Anchor-2";
position = "{616, 770}";
},
{
name = "Anchor-6";
position = "{605, 0}";
},
{
name = "Anchor-7";
position = "{605, 0}";
}
);
layerId = "8D630CB6-6CFC-4A7D-AC95-7C82CE00D513";
paths = (
{
closed = 1;
nodes = (
"114 408 QCURVE",
"98 443 OFFCURVE",
"72 443 QCURVE SMOOTH",
"55 443 OFFCURVE",
"55 429 QCURVE SMOOTH",
"55 407 OFFCURVE",
"96 407 QCURVE SMOOTH",
"109 407 OFFCURVE"
);
},
{
closed = 1;
nodes = (
"169 426 QCURVE",
"226 453 OFFCURVE",
"274 512 QCURVE SMOOTH",
"327 578 OFFCURVE",
"327 634 QCURVE SMOOTH",
"327 778 OFFCURVE",
"162 778 QCURVE SMOOTH",
"120 778 OFFCURVE",
"90 762 QCURVE SMOOTH",
"77 755 OFFCURVE",
"36 733 QCURVE SMOOTH",
"23 725 OFFCURVE",
"-3 756 OFFCURVE",
"-3 770 QCURVE SMOOTH",
"-3 779 OFFCURVE",
"4 782 QCURVE SMOOTH",
"78 821 LINE SMOOTH",
"106 835 OFFCURVE",
"162 835 QCURVE SMOOTH",
"385 835 OFFCURVE",
"385 634 QCURVE SMOOTH",
"385 569 OFFCURVE",
"319 485 QCURVE SMOOTH",
"259 410 OFFCURVE",
"194 375 QCURVE",
"223 331 OFFCURVE",
"271 295 QCURVE SMOOTH",
"325 255 OFFCURVE",
"371 255 QCURVE SMOOTH",
"423 255 OFFCURVE",
"472 294 QCURVE SMOOTH",
"495 313 OFFCURVE",
"547 359 QCURVE SMOOTH",
"551 362 OFFCURVE",
"556 362 QCURVE",
"556 362 LINE",
"570 362 OFFCURVE",
"599 329 OFFCURVE",
"588 319 QCURVE SMOOTH",
"521 250 OFFCURVE",
"489 230 QCURVE SMOOTH",
"437 197 OFFCURVE",
"371 197 QCURVE SMOOTH",
"310 197 OFFCURVE",
"239 249 QCURVE SMOOTH",
"174 296 OFFCURVE",
"140 355 QCURVE",
"119 349 OFFCURVE",
"96 349 QCURVE SMOOTH",
"60 349 OFFCURVE",
"30 371 QCURVE SMOOTH",
"-3 394 OFFCURVE",
"-3 429 QCURVE SMOOTH",
"-3 459 OFFCURVE",
"42 501 OFFCURVE",
"72 501 QCURVE SMOOTH",
"130 501 OFFCURVE"
);
},
{
closed = 1;
nodes = (
"837 88 QCURVE SMOOTH",
"773 -20 OFFCURVE",
"711 -20 QCURVE SMOOTH",
"641 -20 OFFCURVE",
"601 16 QCURVE",
"557 53 OFFCURVE",
"557 122 QCURVE SMOOTH",
"557 788 LINE SMOOTH",
"557 805 OFFCURVE",
"586 805 QCURVE SMOOTH",
"615 805 OFFCURVE",
"615 788 QCURVE SMOOTH",
"615 122 LINE SMOOTH",
"615 38 OFFCURVE",
"711 38 QCURVE SMOOTH",
"737 38 OFFCURVE",
"783 111 QCURVE",
"789 117 OFFCURVE",
"799 117 QCURVE",
"799 117 LINE",
"813 117 OFFCURVE",
"827 110 QCURVE",
"844 100 OFFCURVE"
);
}
);
width = 938;
}
);
unicode = 0A9A;
},
{
glyphname = uni0A9B;
lastChange = "2017-06-08 06:27:27 +0000";
layers = (
{
anchors = (
{
name = "Anchor-0";
position = "{616, 748}";
},
{
name = "Anchor-2";
position = "{616, 748}";
},
{
name = "Anchor-6";
position = "{506, 22}";
},
{
name = "Anchor-7";
position = "{506, 22}";
}
);
layerId = "8D630CB6-6CFC-4A7D-AC95-7C82CE00D513";
paths = (
{
closed = 1;
nodes = (
"683 339 QCURVE",
"725 469 OFFCURVE",
"725 513 QCURVE SMOOTH",
"725 597 OFFCURVE",
"697 656 QCURVE SMOOTH",
"660 733 OFFCURVE",
"584 733 QCURVE SMOOTH",
"524 733 OFFCURVE",
"458 652 OFFCURVE",
"458 591 QCURVE SMOOTH",
"458 487 OFFCURVE",
"583 343 OFFCURVE"
);
},
{
closed = 1;
nodes = (
"109 417 QCURVE",
"-3 515 OFFCURVE",
"-3 601 QCURVE SMOOTH",
"-3 676 OFFCURVE",
"54 737 QCURVE",
"104 792 OFFCURVE",
"181 817 QCURVE SMOOTH",
"194 821 OFFCURVE",
"214 794 OFFCURVE",
"214 780 QCURVE SMOOTH",
"214 769 OFFCURVE",
"207 765 QCURVE SMOOTH",
"127 715 OFFCURVE",
"109 699 QCURVE SMOOTH",
"55 653 OFFCURVE",
"55 601 QCURVE SMOOTH",
"55 540 OFFCURVE",
"159 453 QCURVE",
"211 502 OFFCURVE",
"282 497 QCURVE SMOOTH",
"304 495 OFFCURVE",
"304 460 QCURVE SMOOTH",
"304 441 OFFCURVE",
"291 439 QCURVE SMOOTH",
"209 423 OFFCURVE",
"152 381 QCURVE SMOOTH",
"81 329 OFFCURVE",
"80 255 QCURVE SMOOTH",
"78 167 OFFCURVE",
"162 114 QCURVE SMOOTH",
"216 81 OFFCURVE",
"329 70 QCURVE",
"410 61 OFFCURVE",
"621 196 OFFCURVE",
"662 282 QCURVE",
"543 293 OFFCURVE",
"470 382 QCURVE SMOOTH",
"400 468 OFFCURVE",
"400 591 QCURVE SMOOTH",
"400 678 OFFCURVE",
"447 733 QCURVE",
"498 791 OFFCURVE",
"584 791 QCURVE SMOOTH",
"684 791 OFFCURVE",
"739 697 QCURVE SMOOTH",
"783 620 OFFCURVE",
"783 513 QCURVE SMOOTH",
"783 313 OFFCURVE",
"512 3 OFFCURVE",
"334 3 QCURVE SMOOTH",
"223 3 OFFCURVE",
"22 141 OFFCURVE",
"22 255 QCURVE SMOOTH",
"22 348 OFFCURVE"
);
}
);
width = 904;
}
);
unicode = 0A9B;
},
{
glyphname = uni0A9C;
lastChange = "2017-06-08 06:27:27 +0000";
layers = (
{
anchors = (
{
name = "Anchor-0";
position = "{792, 792}";
},
{
name = "Anchor-2";
position = "{792, 792}";
},
{
name = "Anchor-6";
position = "{539, 0}";
},
{
name = "Anchor-7";
position = "{539, 0}";
}
);
layerId = "8D630CB6-6CFC-4A7D-AC95-7C82CE00D513";
paths = (
{
closed = 1;
nodes = (
"523 476 QCURVE",
"356 279 OFFCURVE",
"352 181 QCURVE SMOOTH",
"349 113 OFFCURVE",
"363 84 QCURVE SMOOTH",
"388 34 OFFCURVE",
"473 38 QCURVE",
"539 40 OFFCURVE",
"626 135 OFFCURVE",
"626 201 QCURVE SMOOTH",
"626 306 OFFCURVE"
);
},
{
closed = 1;
nodes = (
"268 747 QCURVE",
"217 775 OFFCURVE",
"175 775 QCURVE SMOOTH",
"122 775 OFFCURVE",
"89 729 QCURVE",
"59 689 OFFCURVE",
"56 633 QCURVE",
"54 576 OFFCURVE",
"81 531 QCURVE SMOOTH",
"112 481 OFFCURVE",
"167 481 QCURVE SMOOTH",
"282 481 OFFCURVE",
"277 652 QCURVE SMOOTH",
"276 677 OFFCURVE"
);
},
{
closed = 1;
nodes = (
"489 526 QCURVE",
"413 637 OFFCURVE",
"332 704 QCURVE",
"334 687 OFFCURVE",
"334 653 QCURVE SMOOTH",
"336 557 OFFCURVE",
"300 497 QCURVE SMOOTH",
"256 423 OFFCURVE",
"167 423 QCURVE SMOOTH",
"86 423 OFFCURVE",
"38 491 QCURVE",
"-4 553 OFFCURVE",
"-1 636 QCURVE SMOOTH",
"1 716 OFFCURVE",
"47 772 QCURVE SMOOTH",
"97 833 OFFCURVE",
"175 833 QCURVE SMOOTH",
"332 833 OFFCURVE",
"524 566 QCURVE",
"589 639 OFFCURVE",
"663 711 QCURVE SMOOTH",
"673 720 OFFCURVE",
"808 837 QCURVE SMOOTH",
"811 840 OFFCURVE",
"815 840 QCURVE",
"815 840 LINE",
"830 840 OFFCURVE",
"858 803 OFFCURVE",
"846 794 QCURVE SMOOTH",
"703 683 OFFCURVE",
"557 517 QCURVE",
"683 326 OFFCURVE",
"683 201 QCURVE SMOOTH",
"683 108 OFFCURVE",
"569 -17 OFFCURVE",
"476 -20 QCURVE SMOOTH",
"350 -24 OFFCURVE",
"313 45 QCURVE SMOOTH",
"291 86 OFFCURVE",
"294 184 QCURVE SMOOTH",
"298 296 OFFCURVE"
);
}
);
width = 938;
}
);
unicode = 0A9C;
},
{
glyphname = uni0A9D;
lastChange = "2017-06-08 06:27:27 +0000";
layers = (
{
anchors = (
{
name = "Anchor-0";
position = "{638, 759}";
},
{
name = "Anchor-2";
position = "{638, 759}";
},
{
name = "Anchor-6";
position = "{616, 0}";
},
{
name = "Anchor-7";
position = "{616, 0}";
}
);
layerId = "8D630CB6-6CFC-4A7D-AC95-7C82CE00D513";
paths = (
{
closed = 1;
nodes = (
"631 546 LINE",
"716 536 OFFCURVE",
"762 470 QCURVE SMOOTH",
"804 409 OFFCURVE",
"802 321 QCURVE SMOOTH",
"799 132 OFFCURVE",
"618 16 QCURVE SMOOTH",
"615 14 OFFCURVE",
"611 14 QCURVE SMOOTH",
"599 14 OFFCURVE",
"576 37 OFFCURVE",
"576 49 QCURVE SMOOTH",
"576 56 OFFCURVE",
"581 59 QCURVE SMOOTH",
"664 121 OFFCURVE",
"698 167 QCURVE SMOOTH",
"743 227 OFFCURVE",
"744 321 QCURVE",
"746 393 OFFCURVE",
"709 439 QCURVE SMOOTH",
"670 489 OFFCURVE",
"599 489 QCURVE SMOOTH",
"542 489 OFFCURVE",
"471 439 QCURVE",
"473 415 OFFCURVE",
"475 384 QCURVE SMOOTH",
"482 255 OFFCURVE",
"424 145 QCURVE SMOOTH",
"357 17 OFFCURVE",
"233 17 QCURVE SMOOTH",
"72 17 OFFCURVE",
"0 295 QCURVE SMOOTH",
"-5 314 OFFCURVE",
"26 314 QCURVE SMOOTH",
"53 314 OFFCURVE",
"58 298 QCURVE SMOOTH",
"89 189 OFFCURVE",
"116 145 QCURVE SMOOTH",
"158 75 OFFCURVE",
"233 75 QCURVE SMOOTH",
"335 75 OFFCURVE",
"384 184 QCURVE SMOOTH",
"421 268 OFFCURVE",
"417 381 QCURVE SMOOTH",
"413 490 OFFCURVE",
"365 571 QCURVE SMOOTH",
"306 669 OFFCURVE",
"206 669 QCURVE SMOOTH",
"169 669 OFFCURVE",
"83 613 QCURVE SMOOTH",
"79 611 OFFCURVE",
"76 611 QCURVE SMOOTH",
"65 611 OFFCURVE",
"48 637 OFFCURVE",
"48 649 QCURVE SMOOTH",
"48 657 OFFCURVE",
"54 662 QCURVE SMOOTH",
"102 699 OFFCURVE",
"117 707 QCURVE SMOOTH",
"157 727 OFFCURVE",
"206 727 QCURVE SMOOTH",
"301 727 OFFCURVE",
"370 658 QCURVE SMOOTH",
"430 598 OFFCURVE",
"458 500 QCURVE",
"529 539 OFFCURVE",
"582 546 QCURVE",
"582 788 LINE SMOOTH",
"582 798 OFFCURVE",
"601 798 QCURVE SMOOTH",
"631 798 OFFCURVE",
"631 782 QCURVE SMOOTH"
);
}
);
width = 1008;
}
);
unicode = 0A9D;
},
{
glyphname = uni0A9E;
lastChange = "2017-06-08 06:27:28 +0000";
layers = (
{
anchors = (
{
name = "Anchor-0";
position = "{671, 770}";
},
{
name = "Anchor-2";
position = "{671, 770}";
},
{
name = "Anchor-6";
position = "{660, 0}";
},
{
name = "Anchor-7";
position = "{660, 0}";
}
);
layerId = "8D630CB6-6CFC-4A7D-AC95-7C82CE00D513";
paths = (
{
closed = 1;
nodes = (
"624 479 LINE",
"585 463 OFFCURVE",
"501 456 QCURVE",
"473 458 OFFCURVE",
"443 472 QCURVE",
"445 368 OFFCURVE",
"397 291 QCURVE SMOOTH",
"341 201 OFFCURVE",
"242 201 QCURVE SMOOTH",
"149 201 OFFCURVE",
"83 279 QCURVE SMOOTH",
"44 325 OFFCURVE",
"-10 437 QCURVE SMOOTH",
"-16 449 OFFCURVE",
"1 459 QCURVE SMOOTH",
"15 468 OFFCURVE",
"28 468 QCURVE SMOOTH",
"38 468 OFFCURVE",
"42 460 QCURVE SMOOTH",
"119 321 LINE",
"165 259 OFFCURVE",
"242 259 QCURVE SMOOTH",
"319 259 OFFCURVE",
"356 331 QCURVE SMOOTH",
"385 387 OFFCURVE",
"385 472 QCURVE SMOOTH",
"385 574 OFFCURVE",
"345 643 QCURVE SMOOTH",
"296 727 OFFCURVE",
"201 727 QCURVE SMOOTH",
"145 727 OFFCURVE",
"91 695 QCURVE SMOOTH",
"89 694 OFFCURVE",
"83 694 QCURVE SMOOTH",
"71 694 OFFCURVE",
"46 715 OFFCURVE",
"46 727 QCURVE SMOOTH",
"46 732 OFFCURVE",
"51 736 QCURVE SMOOTH",
"87 768 OFFCURVE",
"120 778 QCURVE SMOOTH",
"145 785 OFFCURVE",
"201 785 QCURVE SMOOTH",
"306 785 OFFCURVE",
"371 703 QCURVE",
"426 632 OFFCURVE",
"440 521 QCURVE",
"477 505 OFFCURVE",
"523 508 QCURVE SMOOTH",
"577 512 OFFCURVE",
"624 531 QCURVE"
);
},
{
closed = 1;
nodes = (
"895 88 QCURVE SMOOTH",
"831 -20 OFFCURVE",
"769 -20 QCURVE SMOOTH",
"699 -20 OFFCURVE",
"615 53 OFFCURVE",
"615 122 QCURVE SMOOTH",
"615 788 LINE SMOOTH",
"615 805 OFFCURVE",
"644 805 QCURVE SMOOTH",
"673 805 OFFCURVE",
"673 788 QCURVE SMOOTH",
"673 122 LINE SMOOTH",
"673 38 OFFCURVE",
"769 38 QCURVE SMOOTH",
"795 38 OFFCURVE",
"841 111 QCURVE",
"847 117 OFFCURVE",
"857 117 QCURVE",
"857 117 LINE",
"871 117 OFFCURVE",
"885 110 QCURVE",
"902 100 OFFCURVE"
);
}
);
width = 1008;
}
);
unicode = 0A9E;
},
{
glyphname = uni0A9F;
lastChange = "2017-06-08 06:27:28 +0000";
layers = (
{
anchors = (
{
name = "Anchor-0";
position = "{330, 770}";
},
{
name = "Anchor-2";
position = "{330, 770}";
},
{
name = "Anchor-6";
position = "{319, 0}";
},
{
name = "Anchor-7";
position = "{319, 0}";
}
);
layerId = "8D630CB6-6CFC-4A7D-AC95-7C82CE00D513";
paths = (
{
closed = 1;
nodes = (
"497 123 QCURVE SMOOTH",
"466 98 OFFCURVE",
"404 68 QCURVE SMOOTH",
"301 17 OFFCURVE",
"232 17 QCURVE SMOOTH",
"140 17 OFFCURVE",
"72 77 QCURVE",
"1 138 OFFCURVE",
"1 229 QCURVE SMOOTH",
"1 308 OFFCURVE",
"61 376 QCURVE SMOOTH",
"95 415 OFFCURVE",
"190 481 QCURVE SMOOTH",
"314 566 LINE",
"375 620 OFFCURVE",
"375 675 QCURVE SMOOTH",
"375 724 OFFCURVE",
"334 751 QCURVE SMOOTH",
"298 775 OFFCURVE",
"246 775 QCURVE SMOOTH",
"212 775 OFFCURVE",
"81 725 OFFCURVE",
"93 725 QCURVE",
"81 725 OFFCURVE",
"72 740 QCURVE SMOOTH",
"64 752 OFFCURVE",
"64 765 QCURVE SMOOTH",
"64 772 OFFCURVE",
"70 776 QCURVE SMOOTH",
"154 833 OFFCURVE",
"246 833 QCURVE SMOOTH",
"322 833 OFFCURVE",
"375 793 QCURVE SMOOTH",
"433 749 OFFCURVE",
"433 675 QCURVE SMOOTH",
"433 605 OFFCURVE",
"366 540 QCURVE SMOOTH",
"330 505 OFFCURVE",
"222 432 QCURVE SMOOTH",
"138 375 OFFCURVE",
"111 348 QCURVE",
"59 293 OFFCURVE",
"59 229 QCURVE SMOOTH",
"59 162 OFFCURVE",
"113 117 QCURVE SMOOTH",
"163 75 OFFCURVE",
"232 75 QCURVE SMOOTH",
"292 75 OFFCURVE",
"382 122 QCURVE",
"448 155 OFFCURVE",
"465 172 QCURVE SMOOTH",
"468 175 OFFCURVE",
"472 175 QCURVE",
"472 175 LINE",
"487 175 OFFCURVE",
"498 155 QCURVE SMOOTH",
"510 134 OFFCURVE"
);
}
);
width = 696;
}
);
unicode = 0A9F;
},
{
glyphname = uni0AA0;
lastChange = "2017-06-08 06:27:28 +0000";
layers = (
{
anchors = (
{
name = "Anchor-0";
position = "{330, 770}";
},
{
name = "Anchor-2";
position = "{330, 770}";
},
{
name = "Anchor-6";
position = "{319, 0}";
},
{
name = "Anchor-7";
position = "{319, 0}";
}
);
layerId = "8D630CB6-6CFC-4A7D-AC95-7C82CE00D513";
paths = (
{
closed = 1;
nodes = (
"330 462 QCURVE",
"64 374 OFFCURVE",
"61 232 QCURVE SMOOTH",
"59 156 OFFCURVE",
"118 106 QCURVE",
"174 57 OFFCURVE",
"251 59 QCURVE SMOOTH",
"352 62 OFFCURVE",
"497 201 OFFCURVE",
"495 301 QCURVE SMOOTH",
"494 392 OFFCURVE"
);
},
{
closed = 1;
nodes = (
"274 498 QCURVE",
"154 585 OFFCURVE",
"151 668 QCURVE SMOOTH",
"148 738 OFFCURVE",
"242 798 QCURVE SMOOTH",
"322 848 OFFCURVE",
"365 846 QCURVE SMOOTH",
"390 844 OFFCURVE",
"390 807 QCURVE SMOOTH",
"390 793 OFFCURVE",
"379 791 QCURVE SMOOTH",
"204 756 OFFCURVE",
"209 670 QCURVE SMOOTH",
"212 604 OFFCURVE",
"356 514 QCURVE SMOOTH",
"466 446 OFFCURVE",
"475 439 QCURVE SMOOTH",
"552 376 OFFCURVE",
"553 301 QCURVE SMOOTH",
"555 177 OFFCURVE",
"375 4 OFFCURVE",
"251 1 QCURVE SMOOTH",
"149 -1 OFFCURVE",
"1 131 OFFCURVE",
"3 232 QCURVE SMOOTH",
"6 413 OFFCURVE"
);
}
);
width = 696;
}
);
unicode = 0AA0;
},
{
glyphname = uni0AA1;
lastChange = "2017-06-08 06:27:28 +0000";
layers = (
{
anchors = (
{
name = "Anchor-0";
position = "{396, 748}";
},
{
name = "Anchor-2";
position = "{396, 748}";
},
{
name = "Anchor-6";
position = "{440, 0}";
},
{
name = "Anchor-7";
position = "{440, 0}";
}
);
layerId = "8D630CB6-6CFC-4A7D-AC95-7C82CE00D513";
paths = (
{
closed = 1;
nodes = (
"521 352 QCURVE SMOOTH",
"582 275 OFFCURVE",
"582 182 QCURVE SMOOTH",
"582 117 OFFCURVE",
"491 19 OFFCURVE",
"426 19 QCURVE SMOOTH",
"182 19 OFFCURVE",
"1 414 QCURVE SMOOTH",
"-4 426 OFFCURVE",
"26 450 OFFCURVE",
"39 450 QCURVE SMOOTH",
"47 450 OFFCURVE",
"51 443 QCURVE SMOOTH",
"120 288 OFFCURVE",
"213 180 QCURVE",
"302 75 OFFCURVE",
"426 75 QCURVE SMOOTH",
"466 75 OFFCURVE",
"524 141 OFFCURVE",
"524 182 QCURVE SMOOTH",
"524 276 OFFCURVE",
"477 334 QCURVE SMOOTH",
"461 354 OFFCURVE",
"361 437 QCURVE SMOOTH",
"223 551 OFFCURVE",
"223 621 QCURVE SMOOTH",
"223 672 OFFCURVE",
"280 741 QCURVE SMOOTH",
"349 824 OFFCURVE",
"401 824 QCURVE",
"401 824 LINE",
"416 824 OFFCURVE",
"424 804 QCURVE SMOOTH",
"429 794 OFFCURVE",
"429 786 QCURVE SMOOTH",
"429 778 OFFCURVE",
"424 773 QCURVE SMOOTH",
"404 757 OFFCURVE",
"330 698 QCURVE SMOOTH",
"290 666 OFFCURVE",
"290 621 QCURVE SMOOTH",
"290 572 OFFCURVE",
"423 458 QCURVE",
"469 417 OFFCURVE"
);
}
);
width = 696;
}
);
unicode = 0AA1;
},
{
glyphname = uni0AA2;
lastChange = "2017-06-08 06:27:28 +0000";
layers = (
{
anchors = (
{
name = "Anchor-0";
position = "{396, 770}";
},
{
name = "Anchor-2";
position = "{396, 770}";
},
{
name = "Anchor-6";
position = "{363, 0}";
},
{
name = "Anchor-7";
position = "{363, 0}";
}
);
layerId = "8D630CB6-6CFC-4A7D-AC95-7C82CE00D513";
paths = (
{
closed = 1;
nodes = (
"398 106 QCURVE",
"489 155 OFFCURVE",
"489 243 QCURVE SMOOTH",
"489 285 OFFCURVE",
"439 350 OFFCURVE",
"398 350 QCURVE SMOOTH",
"353 350 OFFCURVE",
"293 289 OFFCURVE",
"288 243 QCURVE SMOOTH",
"284 202 OFFCURVE",
"324 169 QCURVE SMOOTH",
"393 114 OFFCURVE"
);
},
{
closed = 1;
nodes = (
"340 85 QCURVE",
"303 123 OFFCURVE",
"264 159 QCURVE",
"225 202 OFFCURVE",
"230 249 QCURVE SMOOTH",
"237 317 OFFCURVE",
"330 408 OFFCURVE",
"398 408 QCURVE SMOOTH",
"463 408 OFFCURVE",
"547 309 OFFCURVE",
"547 243 QCURVE SMOOTH",
"547 138 OFFCURVE",
"458 75 QCURVE SMOOTH",
"376 17 OFFCURVE",
"268 20 QCURVE SMOOTH",
"152 23 OFFCURVE",
"-6 179 OFFCURVE",
"0 294 QCURVE SMOOTH",
"5 394 OFFCURVE",
"104 471 QCURVE SMOOTH",
"129 490 OFFCURVE",
"287 581 QCURVE SMOOTH",
"385 637 OFFCURVE",
"388 686 QCURVE SMOOTH",
"395 785 OFFCURVE",
"287 785 QCURVE SMOOTH",
"245 785 OFFCURVE",
"204 762 QCURVE SMOOTH",
"199 759 OFFCURVE",
"193 759 QCURVE SMOOTH",
"181 759 OFFCURVE",
"151 776 OFFCURVE",
"151 786 QCURVE SMOOTH",
"151 791 OFFCURVE",
"155 794 QCURVE SMOOTH",
"213 830 LINE",
"242 843 OFFCURVE",
"287 843 QCURVE SMOOTH",
"449 843 OFFCURVE",
"446 686 QCURVE SMOOTH",
"445 608 OFFCURVE",
"346 553 QCURVE SMOOTH",
"297 526 OFFCURVE",
"164 456 QCURVE",
"62 388 OFFCURVE",
"58 291 QCURVE SMOOTH",
"54 202 OFFCURVE",
"119 141 QCURVE",
"180 82 OFFCURVE",
"271 78 QCURVE SMOOTH",
"306 77 OFFCURVE"
);
}
);
width = 696;
}
);
unicode = 0AA2;
},
{
glyphname = uni0AA3;
lastChange = "2017-06-08 06:27:28 +0000";
layers = (
{
anchors = (
{
name = "Anchor-0";
position = "{693, 770}";
},
{
name = "Anchor-2";
position = "{693, 770}";
},
{
name = "Anchor-6";
position = "{660, 0}";
},
{
name = "Anchor-7";
position = "{660, 0}";
}
);
layerId = "8D630CB6-6CFC-4A7D-AC95-7C82CE00D513";
paths = (
{
closed = 1;
nodes = (
"492 528 QCURVE SMOOTH",
"489 444 OFFCURVE",
"448 386 QCURVE SMOOTH",
"401 320 OFFCURVE",
"320 317 QCURVE SMOOTH",
"206 313 OFFCURVE",
"133 454 QCURVE SMOOTH",
"128 465 OFFCURVE",
"145 475 QCURVE SMOOTH",
"159 484 OFFCURVE",
"171 484 QCURVE SMOOTH",
"181 484 OFFCURVE",
"185 478 QCURVE SMOOTH",
"235 399 OFFCURVE",
"240 393 QCURVE SMOOTH",
"268 366 OFFCURVE",
"317 369 QCURVE SMOOTH",
"426 374 OFFCURVE",
"434 531 QCURVE SMOOTH",
"438 591 OFFCURVE",
"400 650 QCURVE SMOOTH",
"357 716 OFFCURVE",
"292 716 QCURVE SMOOTH",
"274 716 OFFCURVE",
"203 682 OFFCURVE",
"196 682 QCURVE SMOOTH",
"184 682 OFFCURVE",
"164 702 OFFCURVE",
"164 714 QCURVE SMOOTH",
"164 720 OFFCURVE",
"168 724 QCURVE SMOOTH",
"213 768 OFFCURVE",
"292 768 QCURVE SMOOTH",
"380 768 OFFCURVE",
"439 690 QCURVE SMOOTH",
"495 617 OFFCURVE"
);
},
{
closed = 1;
nodes = (
"462 58 QCURVE SMOOTH",
"462 7 OFFCURVE",
"368 -56 OFFCURVE",
"317 -48 QCURVE SMOOTH",
"201 -30 OFFCURVE",
"120 30 QCURVE SMOOTH",
"114 35 OFFCURVE",
"114 42 QCURVE",
"114 42 LINE",
"114 57 OFFCURVE",
"141 85 OFFCURVE",
"155 77 QCURVE SMOOTH",
"245 20 OFFCURVE",
"326 10 QCURVE SMOOTH",
"353 7 OFFCURVE",
"404 32 OFFCURVE",
"404 58 QCURVE SMOOTH",
"404 137 OFFCURVE",
"258 203 QCURVE SMOOTH",
"234 213 OFFCURVE",
"0 311 QCURVE",
"0 786 LINE SMOOTH",
"0 804 OFFCURVE",
"29 804 QCURVE SMOOTH",
"58 804 OFFCURVE",
"58 786 QCURVE SMOOTH",
"58 349 LINE",
"252 264 OFFCURVE",
"317 224 QCURVE",
"462 138 OFFCURVE"
);
},
{
closed = 1;
nodes = (
"915 88 QCURVE SMOOTH",
"851 -20 OFFCURVE",
"789 -20 QCURVE SMOOTH",
"720 -20 OFFCURVE",
"636 53 OFFCURVE",
"636 122 QCURVE SMOOTH",
"636 788 LINE SMOOTH",
"636 805 OFFCURVE",
"665 805 QCURVE SMOOTH",
"694 805 OFFCURVE",
"694 788 QCURVE SMOOTH",
"694 122 LINE SMOOTH",
"694 38 OFFCURVE",
"789 38 QCURVE SMOOTH",
"815 38 OFFCURVE",
"862 111 QCURVE SMOOTH",
"867 117 OFFCURVE",
"877 117 QCURVE",
"877 117 LINE",
"891 117 OFFCURVE",
"905 110 QCURVE",
"922 100 OFFCURVE"
);
}
);
width = 1008;
}
);
unicode = 0AA3;
},
{
glyphname = uni0AA4;
lastChange = "2017-06-08 06:27:28 +0000";
layers = (
{
anchors = (
{
name = "Anchor-0";
position = "{528, 759}";
},
{
name = "Anchor-2";
position = "{528, 759}";
},
{
name = "Anchor-6";
position = "{517, 0}";
},
{
name = "Anchor-7";
position = "{517, 0}";
}
);
layerId = "8D630CB6-6CFC-4A7D-AC95-7C82CE00D513";
paths = (
{
closed = 1;
nodes = (
"475 550 QCURVE SMOOTH",
"462 553 OFFCURVE",
"168 550 QCURVE SMOOTH",
"117 550 OFFCURVE",
"58 483 OFFCURVE",
"58 432 QCURVE SMOOTH",
"58 306 OFFCURVE",
"161 161 QCURVE SMOOTH",
"213 87 OFFCURVE",
"282 22 QCURVE SMOOTH",
"287 18 OFFCURVE",
"287 12 QCURVE",
"287 12 LINE",
"287 -3 OFFCURVE",
"253 -34 OFFCURVE",
"242 -22 QCURVE SMOOTH",
"227 -6 OFFCURVE",
"171 56 QCURVE SMOOTH",
"99 136 OFFCURVE",
"53 231 QCURVE SMOOTH",
"0 339 OFFCURVE",
"0 432 QCURVE SMOOTH",
"0 507 OFFCURVE",
"93 608 OFFCURVE",
"168 608 QCURVE SMOOTH",
"475 608 LINE SMOOTH",
"492 608 OFFCURVE",
"492 576 QCURVE SMOOTH",
"492 547 OFFCURVE"
);
},
{
closed = 1;
nodes = (
"750 88 QCURVE SMOOTH",
"686 -20 OFFCURVE",
"624 -20 QCURVE SMOOTH",
"555 -20 OFFCURVE",
"471 53 OFFCURVE",
"471 122 QCURVE SMOOTH",
"471 788 LINE SMOOTH",
"471 805 OFFCURVE",
"500 805 QCURVE SMOOTH",
"529 805 OFFCURVE",
"529 788 QCURVE SMOOTH",
"529 122 LINE SMOOTH",
"529 38 OFFCURVE",
"624 38 QCURVE SMOOTH",
"650 38 OFFCURVE",
"696 111 QCURVE",
"702 117 OFFCURVE",
"712 117 QCURVE",
"712 117 LINE",
"726 117 OFFCURVE",
"740 110 QCURVE",
"757 100 OFFCURVE"
);
}
);
width = 904;
}
);
unicode = 0AA4;
},
{
glyphname = uni0AA5;
lastChange = "2017-06-08 06:27:28 +0000";
layers = (
{
anchors = (
{
name = "Anchor-0";
position = "{528, 759}";
},
{
name = "Anchor-2";
position = "{528, 759}";
},
{
name = "Anchor-6";
position = "{506, 0}";
},
{
name = "Anchor-7";
position = "{506, 0}";
}
);
layerId = "8D630CB6-6CFC-4A7D-AC95-7C82CE00D513";
paths = (
{
closed = 1;
nodes = (
"217 562 QCURVE",
"262 610 OFFCURVE",
"262 678 QCURVE SMOOTH",
"262 726 OFFCURVE",
"235 761 QCURVE SMOOTH",
"204 800 OFFCURVE",
"158 794 QCURVE SMOOTH",
"83 784 OFFCURVE",
"78 699 QCURVE SMOOTH",
"75 649 OFFCURVE",
"127 611 QCURVE SMOOTH",
"144 599 OFFCURVE"
);
},
{
closed = 1;
nodes = (
"171 524 QCURVE",
"18 612 OFFCURVE",
"20 702 QCURVE SMOOTH",
"22 766 OFFCURVE",
"105 853 OFFCURVE",
"168 853 QCURVE SMOOTH",
"231 853 OFFCURVE",
"277 796 QCURVE SMOOTH",
"320 743 OFFCURVE",
"320 678 QCURVE SMOOTH",
"320 531 OFFCURVE",
"114 404 QCURVE",
"169 274 OFFCURVE",
"278 274 QCURVE SMOOTH",
"334 274 OFFCURVE",
"380 297 QCURVE SMOOTH",
"403 308 OFFCURVE",
"468 355 QCURVE SMOOTH",
"471 358 OFFCURVE",
"475 358 QCURVE",
"475 358 LINE",
"489 358 OFFCURVE",
"516 320 OFFCURVE",
"505 311 QCURVE SMOOTH",
"389 216 OFFCURVE",
"278 216 QCURVE SMOOTH",
"191 216 OFFCURVE",
"127 282 QCURVE SMOOTH",
"70 341 OFFCURVE",
"48 433 QCURVE",
"98 454 OFFCURVE"
);
},
{
closed = 1;
nodes = (
"750 88 QCURVE SMOOTH",
"686 -20 OFFCURVE",
"624 -20 QCURVE SMOOTH",
"555 -20 OFFCURVE",
"471 53 OFFCURVE",
"471 122 QCURVE SMOOTH",
"471 788 LINE SMOOTH",
"471 805 OFFCURVE",
"500 805 QCURVE SMOOTH",
"529 805 OFFCURVE",
"529 788 QCURVE SMOOTH",
"529 122 LINE SMOOTH",
"529 38 OFFCURVE",
"624 38 QCURVE SMOOTH",
"650 38 OFFCURVE",
"696 111 QCURVE",
"702 117 OFFCURVE",
"712 117 QCURVE",
"712 117 LINE",
"726 117 OFFCURVE",
"740 110 QCURVE",
"757 100 OFFCURVE"
);
}
);
width = 904;
}
);
unicode = 0AA5;
},
{
glyphname = uni0AA6;
lastChange = "2017-06-08 06:27:28 +0000";
layers = (
{
anchors = (
{
name = "Anchor-0";
position = "{297, 748}";
},
{
name = "Anchor-2";
position = "{297, 748}";
},
{
name = "Anchor-6";
position = "{330, 0}";
},
{
name = "Anchor-7";
position = "{330, 0}";
}
);
layerId = "8D630CB6-6CFC-4A7D-AC95-7C82CE00D513";
paths = (
{
closed = 1;
nodes = (
"86 448 QCURVE",
"54 484 OFFCURVE",
"29 538 QCURVE SMOOTH",
"0 599 OFFCURVE",
"2 639 QCURVE SMOOTH",
"5 702 OFFCURVE",
"36 741 QCURVE SMOOTH",
"89 805 OFFCURVE",
"175 805 QCURVE SMOOTH",
"221 805 OFFCURVE",
"297 783 QCURVE SMOOTH",
"314 778 OFFCURVE",
"314 750 QCURVE SMOOTH",
"314 718 OFFCURVE",
"289 718 QCURVE SMOOTH",
"282 718 OFFCURVE",
"274 721 QCURVE SMOOTH",
"233 736 OFFCURVE",
"184 736 QCURVE SMOOTH",
"68 736 OFFCURVE",
"63 636 QCURVE SMOOTH",
"60 568 OFFCURVE",
"139 479 QCURVE",
"219 513 OFFCURVE",
"271 508 QCURVE SMOOTH",
"293 506 OFFCURVE",
"293 467 QCURVE SMOOTH",
"293 440 OFFCURVE",
"277 440 QCURVE SMOOTH",
"87 437 OFFCURVE",
"87 314 QCURVE SMOOTH",
"87 240 OFFCURVE",
"132 184 QCURVE SMOOTH",
"180 123 OFFCURVE",
"252 123 QCURVE SMOOTH",
"312 123 OFFCURVE",
"405 177 OFFCURVE",
"451 205 QCURVE",
"465 212 OFFCURVE",
"480 194 QCURVE",
"492 177 OFFCURVE",
"492 162 QCURVE SMOOTH",
"492 152 OFFCURVE",
"485 147 QCURVE SMOOTH",
"413 97 OFFCURVE",
"373 80 QCURVE SMOOTH",
"319 57 OFFCURVE",
"252 55 QCURVE SMOOTH",
"158 53 OFFCURVE",
"27 205 OFFCURVE",
"27 314 QCURVE SMOOTH",
"27 399 OFFCURVE"
);
}
);
width = 696;
}
);
unicode = 0AA6;
},
{
glyphname = uni0AA7;
lastChange = "2017-06-08 06:27:28 +0000";
layers = (
{
anchors = (
{
name = "Anchor-0";
position = "{550, 748}";
},
{
name = "Anchor-2";
position = "{550, 748}";
},
{
name = "Anchor-6";
position = "{517, 0}";
},
{
name = "Anchor-7";
position = "{517, 0}";
}
);
layerId = "8D630CB6-6CFC-4A7D-AC95-7C82CE00D513";
paths = (
{
closed = 1;
nodes = (
"100 513 QCURVE",
"28 598 OFFCURVE",
"28 679 QCURVE SMOOTH",
"28 813 OFFCURVE",
"171 919 QCURVE SMOOTH",
"222 957 OFFCURVE",
"232 957 QCURVE",
"232 957 LINE",
"245 957 OFFCURVE",
"255 937 QCURVE SMOOTH",
"265 915 OFFCURVE",
"255 906 QCURVE",
"85 794 OFFCURVE",
"85 679 QCURVE SMOOTH",
"85 609 OFFCURVE",
"151 540 QCURVE",
"174 549 OFFCURVE",
"307 571 QCURVE SMOOTH",
"327 574 OFFCURVE",
"327 539 QCURVE SMOOTH",
"327 515 OFFCURVE",
"313 513 QCURVE SMOOTH",
"279 508 OFFCURVE",
"178 492 QCURVE",
"103 471 OFFCURVE",
"103 405 QCURVE SMOOTH",
"103 339 OFFCURVE",
"190 239 OFFCURVE",
"256 239 QCURVE SMOOTH",
"317 239 OFFCURVE",
"429 288 QCURVE SMOOTH",
"524 330 OFFCURVE",
"524 336 QCURVE SMOOTH",
"524 337 OFFCURVE",
"521 337 QCURVE",
"521 337 LINE",
"536 337 OFFCURVE",
"534 304 QCURVE SMOOTH",
"533 271 OFFCURVE",
"515 262 QCURVE SMOOTH",
"356 181 OFFCURVE",
"256 181 QCURVE SMOOTH",
"164 181 OFFCURVE",
"45 312 OFFCURVE",
"45 405 QCURVE SMOOTH",
"45 475 OFFCURVE"
);
},
{
closed = 1;
nodes = (
"776 88 QCURVE SMOOTH",
"712 -20 OFFCURVE",
"650 -20 QCURVE SMOOTH",
"581 -20 OFFCURVE",
"497 53 OFFCURVE",
"497 122 QCURVE SMOOTH",
"497 788 LINE SMOOTH",
"497 805 OFFCURVE",
"526 805 QCURVE SMOOTH",
"555 805 OFFCURVE",
"555 788 QCURVE SMOOTH",
"555 122 LINE SMOOTH",
"555 38 OFFCURVE",
"650 38 QCURVE SMOOTH",
"676 38 OFFCURVE",
"723 111 QCURVE SMOOTH",
"728 117 OFFCURVE",
"738 117 QCURVE",
"738 117 LINE",
"752 117 OFFCURVE",
"766 110 QCURVE",
"783 100 OFFCURVE"
);
}
);
width = 904;
}
);
unicode = 0AA7;
},
{
glyphname = uni0AA8;
lastChange = "2017-06-08 06:27:28 +0000";
layers = (
{
anchors = (
{
name = "Anchor-0";
position = "{473, 759}";
},
{
name = "Anchor-2";
position = "{473, 759}";
},
{
name = "Anchor-6";
position = "{451, 0}";
},
{
name = "Anchor-7";
position = "{451, 0}";
}
);
layerId = "8D630CB6-6CFC-4A7D-AC95-7C82CE00D513";
paths = (
{
closed = 1;
nodes = (
"696 110 QCURVE SMOOTH",
"632 1 OFFCURVE",
"571 1 QCURVE SMOOTH",
"501 1 OFFCURVE",
"417 75 OFFCURVE",
"417 143 QCURVE SMOOTH",
"417 788 LINE SMOOTH",
"417 805 OFFCURVE",
"446 805 QCURVE SMOOTH",
"475 805 OFFCURVE",
"475 788 QCURVE SMOOTH",
"475 143 LINE SMOOTH",
"475 59 OFFCURVE",
"571 59 QCURVE SMOOTH",
"597 59 OFFCURVE",
"643 133 QCURVE",
"649 139 OFFCURVE",
"659 139 QCURVE",
"659 139 LINE",
"672 139 OFFCURVE",
"686 131 QCURVE SMOOTH",
"704 122 OFFCURVE"
);
},
{
closed = 1;
nodes = (
"127 492 LINE",
"87 492 LINE SMOOTH",
"64 492 OFFCURVE",
"64 465 QCURVE SMOOTH",
"64 420 OFFCURVE",
"96 420 QCURVE SMOOTH",
"127 420 OFFCURVE",
"127 453 QCURVE SMOOTH"
);
},
{
closed = 1;
nodes = (
"175 492 LINE",
"175 453 LINE SMOOTH",
"175 372 OFFCURVE",
"98 372 QCURVE SMOOTH",
"16 372 OFFCURVE",
"16 468 QCURVE SMOOTH",
"16 550 OFFCURVE",
"87 550 QCURVE SMOOTH",
"437 550 LINE",
"437 492 LINE"
);
}
);
width = 904;
}
);
unicode = 0AA8;
},
{
glyphname = uni0AAA;
lastChange = "2017-06-08 06:27:28 +0000";
layers = (
{
anchors = (
{
name = "Anchor-0";
position = "{550, 759}";
},
{
name = "Anchor-2";
position = "{550, 759}";
},
{
name = "Anchor-6";
position = "{517, 0}";
},
{
name = "Anchor-7";
position = "{517, 0}";
}
);
layerId = "8D630CB6-6CFC-4A7D-AC95-7C82CE00D513";
paths = (
{
closed = 1;
nodes = (
"513 333 QCURVE SMOOTH",
"437 266 OFFCURVE",
"353 266 QCURVE SMOOTH",
"267 266 OFFCURVE",
"204 308 QCURVE SMOOTH",
"132 356 OFFCURVE",
"132 437 QCURVE SMOOTH",
"132 744 LINE SMOOTH",
"132 779 OFFCURVE",
"75 779 QCURVE SMOOTH",
"68 779 OFFCURVE",
"31 760 OFFCURVE",
"23 760 QCURVE SMOOTH",
"11 760 OFFCURVE",
"-13 780 OFFCURVE",
"-13 792 QCURVE SMOOTH",
"-13 798 OFFCURVE",
"-9 802 QCURVE SMOOTH",
"27 837 OFFCURVE",
"75 837 QCURVE SMOOTH",
"121 837 OFFCURVE",
"153 814 QCURVE SMOOTH",
"190 788 OFFCURVE",
"190 744 QCURVE SMOOTH",
"190 437 LINE SMOOTH",
"190 379 OFFCURVE",
"246 349 QCURVE SMOOTH",
"291 324 OFFCURVE",
"355 324 QCURVE SMOOTH",
"427 324 OFFCURVE",
"478 379 QCURVE SMOOTH",
"481 382 OFFCURVE",
"485 382 QCURVE",
"485 382 LINE",
"498 382 OFFCURVE",
"523 342 OFFCURVE"
);
},
{
closed = 1;
nodes = (
"765 88 QCURVE SMOOTH",
"700 -20 OFFCURVE",
"639 -20 QCURVE SMOOTH",
"569 -20 OFFCURVE",
"485 53 OFFCURVE",
"485 122 QCURVE SMOOTH",
"485 788 LINE SMOOTH",
"485 805 OFFCURVE",
"514 805 QCURVE SMOOTH",
"543 805 OFFCURVE",
"543 788 QCURVE SMOOTH",
"543 122 LINE SMOOTH",
"543 38 OFFCURVE",
"639 38 QCURVE SMOOTH",
"665 38 OFFCURVE",
"711 111 QCURVE",
"717 117 OFFCURVE",
"727 117 QCURVE",
"727 117 LINE",
"740 117 OFFCURVE",
"754 110 QCURVE SMOOTH",
"772 100 OFFCURVE"
);
}
);
width = 904;
}
);
unicode = 0AAA;
},
{
glyphname = uni0AAB;
lastChange = "2017-06-08 06:27:28 +0000";
layers = (
{
anchors = (
{
name = "Anchor-0";
position = "{341, 781}";
},
{
name = "Anchor-2";
position = "{341, 781}";
},
{
name = "Anchor-6";
position = "{396, 0}";
},
{
name = "Anchor-7";
position = "{396, 0}";
}
);
layerId = "8D630CB6-6CFC-4A7D-AC95-7C82CE00D513";
paths = (
{
closed = 1;
nodes = (
"129 175 QCURVE",
"85 224 OFFCURVE",
"67 224 QCURVE SMOOTH",
"59 224 OFFCURVE",
"59 211 QCURVE SMOOTH",
"59 178 OFFCURVE"
);
},
{
closed = 1;
nodes = (
"290 498 QCURVE",
"265 485 OFFCURVE",
"28 433 QCURVE SMOOTH",
"14 430 OFFCURVE",
"-4 458 OFFCURVE",
"-4 472 QCURVE SMOOTH",
"-4 483 OFFCURVE",
"4 485 QCURVE SMOOTH",
"67 497 OFFCURVE",
"223 536 QCURVE",
"68 621 OFFCURVE",
"68 699 QCURVE SMOOTH",
"68 769 OFFCURVE",
"162 810 QCURVE SMOOTH",
"237 843 OFFCURVE",
"317 843 QCURVE SMOOTH",
"340 843 OFFCURVE",
"349 833 OFFCURVE",
"349 815 QCURVE SMOOTH",
"349 790 OFFCURVE",
"291 783 QCURVE SMOOTH",
"126 764 OFFCURVE",
"126 699 QCURVE SMOOTH",
"126 649 OFFCURVE",
"187 607 QCURVE",
"187 607 OFFCURVE",
"292 552 QCURVE",
"319 553 OFFCURVE",
"407 573 QCURVE SMOOTH",
"521 600 OFFCURVE",
"559 605 QCURVE SMOOTH",
"571 607 OFFCURVE",
"589 579 OFFCURVE",
"589 566 QCURVE SMOOTH",
"589 553 OFFCURVE",
"579 553 QCURVE SMOOTH",
"536 553 OFFCURVE",
"356 510 QCURVE",
"495 384 OFFCURVE",
"495 303 QCURVE SMOOTH",
"495 139 OFFCURVE",
"251 122 QCURVE",
"293 81 OFFCURVE",
"336 41 QCURVE",
"403 -24 OFFCURVE",
"403 -42 QCURVE",
"403 -42 LINE",
"403 -62 OFFCURVE",
"392 -68 QCURVE SMOOTH",
"371 -80 OFFCURVE",
"362 -68 QCURVE SMOOTH",
"340 -38 OFFCURVE",
"279 24 QCURVE SMOOTH",
"212 91 OFFCURVE",
"185 125 QCURVE",
"1 145 OFFCURVE",
"1 211 QCURVE SMOOTH",
"1 285 OFFCURVE",
"67 285 QCURVE SMOOTH",
"133 285 OFFCURVE",
"204 177 QCURVE",
"281 175 OFFCURVE",
"348 200 QCURVE SMOOTH",
"437 233 OFFCURVE",
"437 303 QCURVE SMOOTH",
"437 392 OFFCURVE"
);
}
);
width = 696;
}
);
unicode = 0AAB;
},
{
glyphname = uni0AAC;
lastChange = "2017-06-08 06:27:28 +0000";
layers = (
{
anchors = (
{
name = "Anchor-0";
position = "{660, 759}";
},
{
name = "Anchor-2";
position = "{660, 759}";
},
{
name = "Anchor-6";
position = "{649, 0}";
},
{
name = "Anchor-7";
position = "{649, 0}";
}
);
layerId = "8D630CB6-6CFC-4A7D-AC95-7C82CE00D513";
paths = (
{
closed = 1;
nodes = (
"391 411 QCURVE",
"391 414 OFFCURVE",
"394 424 OFFCURVE",
"394 426 QCURVE SMOOTH",
"394 475 OFFCURVE",
"379 475 QCURVE SMOOTH",
"365 475 OFFCURVE",
"365 446 QCURVE SMOOTH",
"365 427 OFFCURVE"
);
},
{
closed = 1;
nodes = (
"382 353 QCURVE",
"307 394 OFFCURVE",
"307 446 QCURVE SMOOTH",
"307 481 OFFCURVE",
"346 533 OFFCURVE",
"379 533 QCURVE SMOOTH",
"413 533 OFFCURVE",
"433 494 QCURVE SMOOTH",
"449 463 OFFCURVE",
"449 426 QCURVE SMOOTH",
"449 404 OFFCURVE",
"447 392 QCURVE",
"482 385 OFFCURVE",
"523 391 QCURVE SMOOTH",
"577 398 OFFCURVE",
"613 418 QCURVE SMOOTH",
"626 426 OFFCURVE",
"644 397 OFFCURVE",
"644 382 QCURVE SMOOTH",
"644 372 OFFCURVE",
"639 366 QCURVE",
"613 343 OFFCURVE",
"531 333 QCURVE SMOOTH",
"484 327 OFFCURVE",
"436 334 QCURVE",
"414 257 OFFCURVE",
"365 208 QCURVE SMOOTH",
"309 153 OFFCURVE",
"233 153 QCURVE SMOOTH",
"128 153 OFFCURVE",
"61 251 QCURVE",
"1 336 OFFCURVE",
"1 446 QCURVE SMOOTH",
"1 621 OFFCURVE",
"224 746 QCURVE SMOOTH",
"227 747 OFFCURVE",
"232 747 QCURVE",
"232 747 LINE",
"247 747 OFFCURVE",
"258 727 QCURVE SMOOTH",
"270 705 OFFCURVE",
"256 696 QCURVE SMOOTH",
"161 634 OFFCURVE",
"124 595 QCURVE SMOOTH",
"59 527 OFFCURVE",
"59 446 QCURVE SMOOTH",
"59 358 OFFCURVE",
"101 291 QCURVE SMOOTH",
"151 211 OFFCURVE",
"233 211 QCURVE SMOOTH",
"345 211 OFFCURVE"
);
},
{
closed = 1;
nodes = (
"895 88 QCURVE SMOOTH",
"831 -20 OFFCURVE",
"769 -20 QCURVE SMOOTH",
"699 -20 OFFCURVE",
"615 53 OFFCURVE",
"615 122 QCURVE SMOOTH",
"615 788 LINE SMOOTH",
"615 805 OFFCURVE",
"644 805 QCURVE SMOOTH",
"673 805 OFFCURVE",
"673 788 QCURVE SMOOTH",
"673 122 LINE SMOOTH",
"673 38 OFFCURVE",
"769 38 QCURVE SMOOTH",
"795 38 OFFCURVE",
"841 111 QCURVE",
"847 117 OFFCURVE",
"857 117 QCURVE",
"857 117 LINE",
"871 117 OFFCURVE",
"885 110 QCURVE",
"902 100 OFFCURVE"
);
}
);
width = 1008;
}
);
unicode = 0AAC;
},
{
glyphname = uni0AAD;
lastChange = "2017-06-08 06:27:28 +0000";
layers = (
{
anchors = (
{
name = "Anchor-0";
position = "{814, 759}";
},
{
name = "Anchor-2";
position = "{814, 759}";
},
{
name = "Anchor-6";
position = "{781, 0}";
},
{
name = "Anchor-7";
position = "{781, 0}";
}
);
layerId = "8D630CB6-6CFC-4A7D-AC95-7C82CE00D513";
paths = (
{
closed = 1;
nodes = (
"437 424 LINE",
"408 424 LINE SMOOTH",
"391 424 OFFCURVE",
"391 420 QCURVE SMOOTH",
"391 416 OFFCURVE",
"419 396 OFFCURVE",
"420 394 QCURVE SMOOTH",
"432 377 OFFCURVE",
"434 375 QCURVE",
"437 376 OFFCURVE",
"437 382 QCURVE SMOOTH"
);
},
{
closed = 1;
nodes = (
"437 482 LINE",
"437 675 LINE SMOOTH",
"437 726 OFFCURVE",
"390 755 QCURVE",
"349 779 OFFCURVE",
"295 779 QCURVE SMOOTH",
"199 779 OFFCURVE",
"55 635 OFFCURVE",
"55 539 QCURVE SMOOTH",
"55 429 OFFCURVE",
"123 333 QCURVE SMOOTH",
"158 283 OFFCURVE",
"274 169 QCURVE SMOOTH",
"278 165 OFFCURVE",
"278 156 QCURVE",
"278 156 LINE",
"278 143 OFFCURVE",
"254 110 OFFCURVE",
"242 120 QCURVE SMOOTH",
"-3 322 OFFCURVE",
"-3 539 QCURVE SMOOTH",
"-3 657 OFFCURVE",
"177 837 OFFCURVE",
"295 837 QCURVE SMOOTH",
"372 837 OFFCURVE",
"430 795 QCURVE SMOOTH",
"495 749 OFFCURVE",
"495 675 QCURVE SMOOTH",
"495 482 LINE",
"750 482 LINE SMOOTH",
"767 482 OFFCURVE",
"767 453 QCURVE SMOOTH",
"767 424 OFFCURVE",
"750 424 QCURVE SMOOTH",
"495 424 LINE",
"495 382 LINE SMOOTH",
"495 308 OFFCURVE",
"455 308 QCURVE SMOOTH",
"411 308 OFFCURVE",
"339 400 QCURVE SMOOTH",
"317 427 OFFCURVE",
"317 446 QCURVE SMOOTH",
"317 482 OFFCURVE",
"408 482 QCURVE SMOOTH"
);
},
{
closed = 1;
nodes = (
"1028 88 QCURVE SMOOTH",
"964 -20 OFFCURVE",
"902 -20 QCURVE SMOOTH",
"833 -20 OFFCURVE",
"749 53 OFFCURVE",
"749 122 QCURVE SMOOTH",
"749 788 LINE SMOOTH",
"749 805 OFFCURVE",
"778 805 QCURVE SMOOTH",
"807 805 OFFCURVE",
"807 788 QCURVE SMOOTH",
"807 122 LINE SMOOTH",
"807 38 OFFCURVE",
"902 38 QCURVE SMOOTH",
"928 38 OFFCURVE",
"975 111 QCURVE SMOOTH",
"980 117 OFFCURVE",
"990 117 QCURVE",
"990 117 LINE",
"1004 117 OFFCURVE",
"1018 110 QCURVE",
"1035 100 OFFCURVE"
);
}
);
width = 1112;
}
);
unicode = 0AAD;
},
{
glyphname = uni0AAE;
lastChange = "2017-06-08 06:27:28 +0000";
layers = (
{
anchors = (
{
name = "Anchor-0";
position = "{572, 770}";
},
{
name = "Anchor-2";
position = "{572, 770}";
},
{
name = "Anchor-6";
position = "{539, 0}";
},
{
name = "Anchor-7";
position = "{539, 0}";
}
);
layerId = "8D630CB6-6CFC-4A7D-AC95-7C82CE00D513";
paths = (
{
closed = 1;
nodes = (
"507 408 QCURVE SMOOTH",
"142 408 LINE SMOOTH",
"127 408 OFFCURVE",
"127 404 QCURVE",
"132 400 OFFCURVE",
"148 382 QCURVE",
"158 366 OFFCURVE",
"169 349 QCURVE",
"172 350 OFFCURVE",
"172 359 QCURVE SMOOTH",
"174 710 LINE SMOOTH",
"174 745 OFFCURVE",
"171 759 QCURVE SMOOTH",
"165 785 OFFCURVE",
"139 785 QCURVE SMOOTH",
"90 785 OFFCURVE",
"39 727 QCURVE SMOOTH",
"36 725 OFFCURVE",
"32 725 QCURVE SMOOTH",
"20 725 OFFCURVE",
"-4 751 OFFCURVE",
"-4 763 QCURVE SMOOTH",
"-4 770 OFFCURVE",
"1 773 QCURVE",
"74 843 OFFCURVE",
"139 843 QCURVE SMOOTH",
"187 843 OFFCURVE",
"201 830 QCURVE SMOOTH",
"230 804 OFFCURVE",
"230 710 QCURVE SMOOTH",
"230 359 LINE SMOOTH",
"230 282 OFFCURVE",
"193 282 QCURVE SMOOTH",
"157 282 OFFCURVE",
"104 345 QCURVE SMOOTH",
"62 394 OFFCURVE",
"62 421 QCURVE SMOOTH",
"62 459 OFFCURVE",
"142 459 QCURVE SMOOTH",
"507 460 LINE SMOOTH",
"524 461 OFFCURVE",
"524 434 QCURVE SMOOTH",
"524 408 OFFCURVE"
);
},
{
closed = 1;
nodes = (
"779 88 QCURVE SMOOTH",
"715 -20 OFFCURVE",
"653 -20 QCURVE SMOOTH",
"584 -20 OFFCURVE",
"500 53 OFFCURVE",
"500 122 QCURVE SMOOTH",
"500 788 LINE SMOOTH",
"500 805 OFFCURVE",
"529 805 QCURVE SMOOTH",
"557 805 OFFCURVE",
"557 788 QCURVE SMOOTH",
"557 122 LINE SMOOTH",
"557 38 OFFCURVE",
"653 38 QCURVE SMOOTH",
"679 38 OFFCURVE",
"725 111 QCURVE",
"731 117 OFFCURVE",
"741 117 QCURVE",
"741 117 LINE",
"755 117 OFFCURVE",
"769 110 QCURVE",
"786 100 OFFCURVE"
);
}
);
width = 904;
}
);
unicode = 0AAE;
},
{
glyphname = uni0AAF;
lastChange = "2017-06-08 06:27:28 +0000";
layers = (
{
anchors = (
{
name = "Anchor-0";
position = "{517, 759}";
},
{
name = "Anchor-2";
position = "{517, 759}";
},
{
name = "Anchor-6";
position = "{495, 0}";
},
{
name = "Anchor-7";
position = "{495, 0}";
}
);
layerId = "8D630CB6-6CFC-4A7D-AC95-7C82CE00D513";
paths = (
{
closed = 1;
nodes = (
"482 355 QCURVE SMOOTH",
"406 306 OFFCURVE",
"382 296 QCURVE SMOOTH",
"334 275 OFFCURVE",
"266 275 QCURVE SMOOTH",
"170 275 OFFCURVE",
"30 417 OFFCURVE",
"30 523 QCURVE",
"95 549 OFFCURVE",
"175 651 OFFCURVE",
"175 707 QCURVE SMOOTH",
"175 739 OFFCURVE",
"126 783 OFFCURVE",
"94 783 QCURVE SMOOTH",
"86 783 OFFCURVE",
"56 770 OFFCURVE",
"51 770 QCURVE SMOOTH",
"29 770 OFFCURVE",
"29 809 QCURVE SMOOTH",
"29 831 OFFCURVE",
"74 831 QCURVE SMOOTH",
"134 831 OFFCURVE",
"181 800 QCURVE",
"233 764 OFFCURVE",
"233 707 QCURVE SMOOTH",
"233 646 OFFCURVE",
"145 510 OFFCURVE",
"91 488 QCURVE",
"103 422 OFFCURVE",
"212 327 OFFCURVE",
"266 333 QCURVE SMOOTH",
"359 344 OFFCURVE",
"450 404 QCURVE SMOOTH",
"453 407 OFFCURVE",
"458 407 QCURVE",
"458 407 LINE",
"474 407 OFFCURVE",
"484 385 QCURVE SMOOTH",
"494 362 OFFCURVE"
);
},
{
closed = 1;
nodes = (
"734 88 QCURVE SMOOTH",
"670 -20 OFFCURVE",
"608 -20 QCURVE SMOOTH",
"539 -20 OFFCURVE",
"455 53 OFFCURVE",
"455 122 QCURVE SMOOTH",
"455 788 LINE SMOOTH",
"455 805 OFFCURVE",
"484 805 QCURVE SMOOTH",
"513 805 OFFCURVE",
"513 788 QCURVE SMOOTH",
"513 122 LINE SMOOTH",
"513 38 OFFCURVE",
"608 38 QCURVE SMOOTH",
"634 38 OFFCURVE",
"681 111 QCURVE SMOOTH",
"686 117 OFFCURVE",
"696 117 QCURVE",
"696 117 LINE",
"710 117 OFFCURVE",
"724 110 QCURVE",
"741 100 OFFCURVE"
);
}
);
width = 904;
}
);
unicode = 0AAF;
},
{
glyphname = uni0AB0;
lastChange = "2017-06-08 06:27:28 +0000";
layers = (
{
anchors = (
{
name = "Anchor-0";
position = "{330, 770}";
},
{
name = "Anchor-2";
position = "{330, 770}";
},
{
name = "Anchor-6";
position = "{396, 0}";
},
{
name = "Anchor-7";
position = "{396, 0}";
}
);
layerId = "8D630CB6-6CFC-4A7D-AC95-7C82CE00D513";
paths = (
{
closed = 1;
nodes = (
"197 332 QCURVE",
"180 374 OFFCURVE",
"152 381 QCURVE SMOOTH",
"140 384 OFFCURVE",
"115 371 OFFCURVE",
"114 359 QCURVE SMOOTH",
"112 332 OFFCURVE"
);
},
{
closed = 1;
nodes = (
"81 805 QCURVE SMOOTH",
"138 828 OFFCURVE",
"194 828 QCURVE SMOOTH",
"314 828 OFFCURVE",
"471 676 OFFCURVE",
"471 552 QCURVE SMOOTH",
"471 452 OFFCURVE",
"360 304 OFFCURVE",
"264 281 QCURVE",
"273 250 OFFCURVE",
"287 214 QCURVE SMOOTH",
"350 48 OFFCURVE",
"433 48 QCURVE SMOOTH",
"509 48 OFFCURVE",
"569 83 QCURVE SMOOTH",
"572 84 OFFCURVE",
"576 84 QCURVE",
"576 84 LINE",
"591 84 OFFCURVE",
"601 67 QCURVE SMOOTH",
"611 49 OFFCURVE",
"601 41 QCURVE SMOOTH",
"542 -7 OFFCURVE",
"433 -7 QCURVE SMOOTH",
"371 -7 OFFCURVE",
"310 65 QCURVE SMOOTH",
"263 120 OFFCURVE",
"235 194 QCURVE SMOOTH",
"225 220 OFFCURVE",
"213 274 QCURVE",
"177 274 OFFCURVE",
"133 282 QCURVE SMOOTH",
"59 297 OFFCURVE",
"62 359 QCURVE SMOOTH",
"64 394 OFFCURVE",
"112 431 OFFCURVE",
"148 429 QCURVE SMOOTH",
"209 424 OFFCURVE",
"243 337 QCURVE",
"322 352 OFFCURVE",
"413 470 OFFCURVE",
"413 552 QCURVE SMOOTH",
"413 650 OFFCURVE",
"288 770 OFFCURVE",
"194 770 QCURVE SMOOTH",
"164 770 OFFCURVE",
"117 753 QCURVE SMOOTH",
"111 751 OFFCURVE",
"105 751 QCURVE SMOOTH",
"72 751 OFFCURVE",
"72 787 QCURVE SMOOTH",
"72 801 OFFCURVE"
);
}
);
width = 696;
}
);
unicode = 0AB0;
},
{
glyphname = uni0AB2;
lastChange = "2017-06-08 06:27:28 +0000";
layers = (
{
anchors = (
{
name = "Anchor-0";
position = "{572, 770}";
},
{
name = "Anchor-2";
position = "{572, 770}";
},
{
name = "Anchor-6";
position = "{539, 0}";
},
{
name = "Anchor-7";
position = "{539, 0}";
}
);
layerId = "8D630CB6-6CFC-4A7D-AC95-7C82CE00D513";
paths = (
{
closed = 1;
nodes = (
"524 475 LINE",
"461 454 OFFCURVE",
"403 440 QCURVE SMOOTH",
"286 412 OFFCURVE",
"246 405 QCURVE",
"226 466 LINE",
"297 466 OFFCURVE",
"362 484 QCURVE",
"384 489 LINE SMOOTH",
"420 498 OFFCURVE",
"524 524 QCURVE"
);
},
{
closed = 1;
nodes = (
"334 122 QCURVE SMOOTH",
"203 122 OFFCURVE",
"-3 313 OFFCURVE",
"-3 443 QCURVE SMOOTH",
"-3 578 OFFCURVE",
"123 682 QCURVE SMOOTH",
"219 762 OFFCURVE",
"339 794 QCURVE SMOOTH",
"361 799 OFFCURVE",
"361 765 QCURVE SMOOTH",
"361 742 OFFCURVE",
"348 736 QCURVE SMOOTH",
"307 716 OFFCURVE",
"222 670 QCURVE",
"55 582 OFFCURVE",
"55 443 QCURVE SMOOTH",
"55 334 OFFCURVE",
"153 253 QCURVE SMOOTH",
"247 175 OFFCURVE",
"358 181 QCURVE SMOOTH",
"378 182 OFFCURVE",
"378 148 QCURVE SMOOTH",
"378 125 OFFCURVE",
"349 122 OFFCURVE"
);
},
{
closed = 1;
nodes = (
"796 88 QCURVE SMOOTH",
"732 -20 OFFCURVE",
"670 -20 QCURVE SMOOTH",
"601 -20 OFFCURVE",
"517 53 OFFCURVE",
"517 122 QCURVE SMOOTH",
"517 788 LINE SMOOTH",
"517 805 OFFCURVE",
"546 805 QCURVE SMOOTH",
"575 805 OFFCURVE",
"575 788 QCURVE SMOOTH",
"575 122 LINE SMOOTH",
"575 38 OFFCURVE",
"670 38 QCURVE SMOOTH",
"696 38 OFFCURVE",
"743 111 QCURVE",
"749 117 OFFCURVE",
"759 117 QCURVE",
"759 117 LINE",
"772 117 OFFCURVE",
"786 110 QCURVE SMOOTH",
"804 100 OFFCURVE"
);
}
);
width = 904;
}
);
unicode = 0AB2;
},
{
glyphname = uni0AB3;
lastChange = "2017-06-08 06:27:28 +0000";
layers = (
{
anchors = (
{
name = "Anchor-0";
position = "{638, 792}";
},
{
name = "Anchor-2";
position = "{638, 792}";
},
{
name = "Anchor-6";
position = "{594, 0}";
},
{
name = "Anchor-7";
position = "{594, 0}";
}
);
layerId = "8D630CB6-6CFC-4A7D-AC95-7C82CE00D513";
paths = (
{
closed = 1;
nodes = (
"495 805 QCURVE SMOOTH",
"371 805 OFFCURVE",
"371 571 QCURVE SMOOTH",
"371 399 OFFCURVE",
"358 348 QCURVE SMOOTH",
"329 233 OFFCURVE",
"217 235 QCURVE SMOOTH",
"115 236 OFFCURVE",
"54 322 QCURVE SMOOTH",
"0 398 OFFCURVE",
"0 504 QCURVE SMOOTH",
"0 607 OFFCURVE",
"42 688 QCURVE SMOOTH",
"65 733 OFFCURVE",
"138 821 QCURVE",
"140 825 OFFCURVE",
"148 825 QCURVE",
"148 825 LINE",
"162 825 OFFCURVE",
"190 793 OFFCURVE",
"181 780 QCURVE SMOOTH",
"104 680 OFFCURVE",
"91 656 QCURVE SMOOTH",
"58 593 OFFCURVE",
"58 504 QCURVE SMOOTH",
"58 424 OFFCURVE",
"97 363 QCURVE SMOOTH",
"141 294 OFFCURVE",
"217 292 QCURVE SMOOTH",
"319 290 OFFCURVE",
"319 432 QCURVE SMOOTH",
"319 455 OFFCURVE",
"313 547 OFFCURVE",
"313 571 QCURVE SMOOTH",
"313 863 OFFCURVE",
"495 863 QCURVE SMOOTH",
"571 863 OFFCURVE",
"607 809 QCURVE SMOOTH",
"635 768 OFFCURVE",
"630 723 QCURVE",
"573 723 LINE",
"569 759 OFFCURVE",
"565 768 QCURVE SMOOTH",
"548 805 OFFCURVE"
);
},
{
closed = 1;
nodes = (
"851 103 QCURVE SMOOTH",
"787 -6 OFFCURVE",
"725 -6 QCURVE SMOOTH",
"656 -6 OFFCURVE",
"572 68 OFFCURVE",
"572 136 QCURVE SMOOTH",
"572 744 LINE SMOOTH",
"572 762 OFFCURVE",
"601 762 QCURVE SMOOTH",
"630 762 OFFCURVE",
"630 744 QCURVE SMOOTH",
"630 136 LINE SMOOTH",
"630 52 OFFCURVE",
"725 52 QCURVE SMOOTH",
"752 52 OFFCURVE",
"798 126 QCURVE",
"804 132 OFFCURVE",
"814 132 QCURVE",
"814 132 LINE",
"827 132 OFFCURVE",
"841 124 QCURVE SMOOTH",
"859 115 OFFCURVE"
);
}
);
width = 1008;
}
);
unicode = 0AB3;
},
{
glyphname = uni0AB5;
lastChange = "2017-06-08 06:27:28 +0000";
layers = (
{
anchors = (
{
name = "Anchor-0";
position = "{506, 759}";
},
{
name = "Anchor-2";
position = "{506, 759}";
},
{
name = "Anchor-6";
position = "{484, 0}";
},
{
name = "Anchor-7";
position = "{484, 0}";
}
);
layerId = "8D630CB6-6CFC-4A7D-AC95-7C82CE00D513";
paths = (
{
closed = 1;
nodes = (
"468 264 QCURVE SMOOTH",
"371 201 OFFCURVE",
"272 201 QCURVE SMOOTH",
"170 201 OFFCURVE",
"88 268 QCURVE SMOOTH",
"1 339 OFFCURVE",
"4 449 QCURVE SMOOTH",
"7 550 OFFCURVE",
"73 622 QCURVE",
"141 698 OFFCURVE",
"237 698 QCURVE SMOOTH",
"324 698 OFFCURVE",
"346 675 QCURVE SMOOTH",
"352 669 OFFCURVE",
"352 658 QCURVE",
"352 658 LINE",
"352 644 OFFCURVE",
"344 631 QCURVE SMOOTH",
"333 615 OFFCURVE",
"320 623 QCURVE SMOOTH",
"292 640 OFFCURVE",
"237 640 QCURVE SMOOTH",
"164 640 OFFCURVE",
"113 580 QCURVE SMOOTH",
"65 524 OFFCURVE",
"62 446 QCURVE SMOOTH",
"59 362 OFFCURVE",
"130 308 QCURVE SMOOTH",
"196 259 OFFCURVE",
"275 259 QCURVE SMOOTH",
"328 259 OFFCURVE",
"380 282 QCURVE",
"416 303 OFFCURVE",
"458 325 QCURVE",
"478 330 OFFCURVE",
"478 291 QCURVE SMOOTH",
"478 270 OFFCURVE"
);
},
{
closed = 1;
nodes = (
"731 88 QCURVE SMOOTH",
"696 29 OFFCURVE",
"672 7 QCURVE SMOOTH",
"643 -20 OFFCURVE",
"605 -20 QCURVE SMOOTH",
"536 -20 OFFCURVE",
"452 53 OFFCURVE",
"452 122 QCURVE SMOOTH",
"452 788 LINE SMOOTH",
"452 805 OFFCURVE",
"481 805 QCURVE SMOOTH",
"510 805 OFFCURVE",
"510 788 QCURVE SMOOTH",
"510 122 LINE SMOOTH",
"510 33 OFFCURVE",
"605 38 QCURVE SMOOTH",
"632 39 OFFCURVE",
"678 111 QCURVE SMOOTH",
"683 117 OFFCURVE",
"694 117 QCURVE",
"694 117 LINE",
"707 117 OFFCURVE",
"721 110 QCURVE",
"738 100 OFFCURVE"
);
}
);
width = 904;
}
);
unicode = 0AB5;
},
{
glyphname = uni0AB6;
lastChange = "2017-06-08 06:27:28 +0000";
layers = (
{
anchors = (
{
name = "Anchor-0";
position = "{671, 748}";
},
{
name = "Anchor-2";
position = "{671, 748}";
},
{
name = "Anchor-6";
position = "{649, 0}";
},
{
name = "Anchor-7";
position = "{649, 0}";
}
);
layerId = "8D630CB6-6CFC-4A7D-AC95-7C82CE00D513";
paths = (
{
closed = 1;
nodes = (
"355 569 QCURVE SMOOTH",
"355 670 OFFCURVE",
"327 714 QCURVE SMOOTH",
"288 776 OFFCURVE",
"178 776 QCURVE SMOOTH",
"134 776 OFFCURVE",
"113 727 QCURVE SMOOTH",
"95 687 OFFCURVE",
"100 640 QCURVE SMOOTH",
"108 549 OFFCURVE",
"282 549 QCURVE SMOOTH",
"324 549 OFFCURVE",
"350 555 QCURVE",
"355 560 OFFCURVE"
);
},
{
closed = 1;
nodes = (
"182 304 QCURVE",
"238 332 OFFCURVE",
"330 437 OFFCURVE",
"345 494 QCURVE",
"258 488 OFFCURVE",
"168 515 QCURVE",
"50 552 OFFCURVE",
"42 634 QCURVE SMOOTH",
"35 707 OFFCURVE",
"69 766 QCURVE SMOOTH",
"108 834 OFFCURVE",
"178 834 QCURVE SMOOTH",
"323 834 OFFCURVE",
"375 756 QCURVE SMOOTH",
"413 699 OFFCURVE",
"413 569 QCURVE SMOOTH",
"413 479 OFFCURVE",
"368 394 QCURVE SMOOTH",
"311 287 OFFCURVE",
"204 252 QCURVE",
"234 164 OFFCURVE",
"272 125 QCURVE SMOOTH",
"331 63 OFFCURVE",
"379 61 QCURVE SMOOTH",
"437 58 OFFCURVE",
"481 97 QCURVE SMOOTH",
"484 100 OFFCURVE",
"488 100 QCURVE",
"488 100 LINE",
"498 100 OFFCURVE",
"504 77 QCURVE SMOOTH",
"510 53 OFFCURVE",
"501 42 QCURVE SMOOTH",
"468 0 OFFCURVE",
"376 3 QCURVE SMOOTH",
"332 4 OFFCURVE",
"297 26 QCURVE SMOOTH",
"273 41 OFFCURVE",
"232 84 QCURVE SMOOTH",
"201 116 OFFCURVE",
"187 142 QCURVE SMOOTH",
"178 157 OFFCURVE",
"149 235 QCURVE",
"117 223 OFFCURVE",
"98 223 QCURVE SMOOTH",
"77 223 OFFCURVE",
"58 236 QCURVE SMOOTH",
"-3 278 OFFCURVE",
"-3 324 QCURVE SMOOTH",
"-3 345 OFFCURVE",
"29 372 OFFCURVE",
"49 372 QCURVE SMOOTH",
"83 372 OFFCURVE",
"162 332 OFFCURVE"
);
},
{
closed = 1;
nodes = (
"895 88 QCURVE SMOOTH",
"831 -20 OFFCURVE",
"769 -20 QCURVE SMOOTH",
"699 -20 OFFCURVE",
"615 53 OFFCURVE",
"615 122 QCURVE SMOOTH",
"615 788 LINE SMOOTH",
"615 805 OFFCURVE",
"644 805 QCURVE SMOOTH",
"673 805 OFFCURVE",
"673 788 QCURVE SMOOTH",
"673 122 LINE SMOOTH",
"673 38 OFFCURVE",
"769 38 QCURVE SMOOTH",
"795 38 OFFCURVE",
"841 111 QCURVE",
"847 117 OFFCURVE",
"857 117 QCURVE",
"857 117 LINE",
"871 117 OFFCURVE",
"885 110 QCURVE",
"902 100 OFFCURVE"
);
}
);
width = 1008;
}
);
unicode = 0AB6;
},
{
glyphname = uni0AB7;
lastChange = "2017-06-08 06:27:28 +0000";
layers = (
{
anchors = (
{
name = "Anchor-0";
position = "{506, 759}";
},
{
name = "Anchor-2";
position = "{506, 759}";
},
{
name = "Anchor-6";
position = "{473, 0}";
},
{
name = "Anchor-7";
position = "{473, 0}";
}
);
layerId = "8D630CB6-6CFC-4A7D-AC95-7C82CE00D513";
paths = (
{
closed = 1;
nodes = (
"188 760 QCURVE",
"495 411 LINE",
"495 319 LINE",
"429 266 OFFCURVE",
"353 266 QCURVE SMOOTH",
"267 266 OFFCURVE",
"204 308 QCURVE SMOOTH",
"132 356 OFFCURVE",
"132 437 QCURVE SMOOTH",
"132 744 LINE SMOOTH",
"132 779 OFFCURVE",
"75 779 QCURVE SMOOTH",
"68 779 OFFCURVE",
"31 760 OFFCURVE",
"23 760 QCURVE SMOOTH",
"11 760 OFFCURVE",
"-13 780 OFFCURVE",
"-13 792 QCURVE SMOOTH",
"-13 798 OFFCURVE",
"-9 802 QCURVE SMOOTH",
"27 837 OFFCURVE",
"75 837 QCURVE SMOOTH",
"115 837 OFFCURVE",
"146 818 QCURVE SMOOTH",
"181 797 OFFCURVE"
);
},
{
closed = 1;
nodes = (
"460 365 QCURVE",
"190 672 LINE",
"190 437 LINE SMOOTH",
"190 345 OFFCURVE",
"330 326 QCURVE SMOOTH",
"385 318 OFFCURVE"
);
},
{
closed = 1;
nodes = (
"721 88 QCURVE SMOOTH",
"657 -20 OFFCURVE",
"595 -20 QCURVE SMOOTH",
"526 -20 OFFCURVE",
"442 53 OFFCURVE",
"442 122 QCURVE SMOOTH",
"442 788 LINE SMOOTH",
"442 805 OFFCURVE",
"471 805 QCURVE SMOOTH",
"500 805 OFFCURVE",
"500 788 QCURVE SMOOTH",
"500 122 LINE SMOOTH",
"500 38 OFFCURVE",
"595 38 QCURVE SMOOTH",
"621 38 OFFCURVE",
"668 111 QCURVE SMOOTH",
"673 117 OFFCURVE",
"683 117 QCURVE",
"683 117 LINE",
"697 117 OFFCURVE",
"711 110 QCURVE",
"728 100 OFFCURVE"
);
}
);
width = 904;
}
);
unicode = 0AB7;
},
{
glyphname = uni0AB8;
lastChange = "2017-06-08 06:27:28 +0000";
layers = (
{
anchors = (
{
name = "Anchor-0";
position = "{605, 748}";
},
{
name = "Anchor-2";
position = "{605, 748}";
},
{
name = "Anchor-6";
position = "{572, 0}";
},
{
name = "Anchor-7";
position = "{572, 0}";
}
);
layerId = "8D630CB6-6CFC-4A7D-AC95-7C82CE00D513";
paths = (
{
closed = 1;
nodes = (
"93 339 QCURVE",
"85 362 OFFCURVE",
"65 362 QCURVE SMOOTH",
"45 362 OFFCURVE",
"48 346 QCURVE SMOOTH",
"50 334 OFFCURVE",
"64 333 QCURVE",
"78 330 OFFCURVE"
);
},
{
closed = 1;
nodes = (
"359 510 QCURVE",
"407 478 OFFCURVE",
"440 475 QCURVE SMOOTH",
"474 472 OFFCURVE",
"549 508 QCURVE SMOOTH",
"561 514 OFFCURVE",
"589 487 OFFCURVE",
"589 473 QCURVE SMOOTH",
"589 468 OFFCURVE",
"586 465 QCURVE SMOOTH",
"536 416 OFFCURVE",
"459 416 QCURVE SMOOTH",
"411 416 OFFCURVE",
"345 453 QCURVE",
"321 391 OFFCURVE",
"271 345 QCURVE",
"217 297 OFFCURVE",
"155 287 QCURVE",
"180 216 OFFCURVE",
"203 145 QCURVE",
"248 45 OFFCURVE",
"311 45 QCURVE SMOOTH",
"343 45 OFFCURVE",
"384 65 QCURVE SMOOTH",
"421 84 LINE",
"436 84 OFFCURVE",
"445 62 QCURVE",
"453 39 OFFCURVE",
"442 30 QCURVE SMOOTH",
"407 5 OFFCURVE",
"358 -8 OFFCURVE",
"311 -7 QCURVE SMOOTH",
"237 -5 OFFCURVE",
"175 116 QCURVE SMOOTH",
"132 201 OFFCURVE",
"117 271 QCURVE",
"-4 271 OFFCURVE",
"-4 368 QCURVE SMOOTH",
"-4 393 OFFCURVE",
"19 407 QCURVE SMOOTH",
"39 420 OFFCURVE",
"65 420 QCURVE SMOOTH",
"111 420 OFFCURVE",
"140 348 QCURVE",
"211 350 OFFCURVE",
"259 415 QCURVE SMOOTH",
"304 475 OFFCURVE",
"304 547 QCURVE SMOOTH",
"304 660 OFFCURVE",
"272 714 QCURVE SMOOTH",
"230 783 OFFCURVE",
"125 783 QCURVE SMOOTH",
"101 783 OFFCURVE",
"80 769 QCURVE SMOOTH",
"36 740 LINE SMOOTH",
"33 738 OFFCURVE",
"29 738 QCURVE SMOOTH",
"17 738 OFFCURVE",
"-6 761 OFFCURVE",
"-6 773 QCURVE SMOOTH",
"-6 806 OFFCURVE",
"45 825 QCURVE SMOOTH",
"87 841 OFFCURVE",
"125 841 QCURVE SMOOTH",
"261 841 OFFCURVE",
"317 759 QCURVE",
"362 691 OFFCURVE",
"362 547 QCURVE SMOOTH",
"362 533 OFFCURVE"
);
},
{
closed = 1;
nodes = (
"822 88 QCURVE SMOOTH",
"758 -20 OFFCURVE",
"696 -20 QCURVE SMOOTH",
"627 -20 OFFCURVE",
"543 53 OFFCURVE",
"543 122 QCURVE SMOOTH",
"543 788 LINE SMOOTH",
"543 805 OFFCURVE",
"572 805 QCURVE SMOOTH",
"601 805 OFFCURVE",
"601 788 QCURVE SMOOTH",
"601 122 LINE SMOOTH",
"601 38 OFFCURVE",
"696 38 QCURVE SMOOTH",
"723 38 OFFCURVE",
"769 111 QCURVE",
"775 117 OFFCURVE",
"785 117 QCURVE",
"785 117 LINE",
"798 117 OFFCURVE",
"812 110 QCURVE SMOOTH",
"830 100 OFFCURVE"
);
}
);
width = 904;
}
);
unicode = 0AB8;
},
{
glyphname = uni0AB9;
lastChange = "2017-06-08 06:27:28 +0000";
layers = (
{
anchors = (
{
name = "Anchor-0";
position = "{484, 737}";
},
{
name = "Anchor-2";
position = "{484, 737}";
},
{
name = "Anchor-6";
position = "{506, 0}";
},
{
name = "Anchor-7";
position = "{506, 0}";
}
);
layerId = "8D630CB6-6CFC-4A7D-AC95-7C82CE00D513";
paths = (
{
closed = 1;
nodes = (
"438 798 QCURVE",
"438 798 LINE",
"447 798 OFFCURVE",
"464 778 QCURVE SMOOTH",
"477 762 OFFCURVE",
"469 750 QCURVE",
"439 726 OFFCURVE",
"406 690 QCURVE SMOOTH",
"368 647 OFFCURVE",
"368 630 QCURVE SMOOTH",
"368 608 OFFCURVE",
"475 524 OFFCURVE",
"530 481 QCURVE",
"585 420 OFFCURVE",
"585 353 QCURVE SMOOTH",
"585 286 OFFCURVE",
"488 200 OFFCURVE",
"420 200 QCURVE SMOOTH",
"326 200 OFFCURVE",
"256 262 QCURVE SMOOTH",
"217 297 OFFCURVE",
"125 426 QCURVE SMOOTH",
"122 429 OFFCURVE",
"122 433 QCURVE",
"122 433 LINE",
"122 448 OFFCURVE",
"142 460 QCURVE",
"161 473 OFFCURVE",
"171 460 QCURVE SMOOTH",
"275 326 LINE",
"342 258 OFFCURVE",
"420 258 QCURVE SMOOTH",
"462 258 OFFCURVE",
"527 312 OFFCURVE",
"527 353 QCURVE SMOOTH",
"527 403 OFFCURVE",
"456 468 QCURVE",
"400 510 OFFCURVE",
"344 552 QCURVE",
"301 586 OFFCURVE",
"301 615 QCURVE SMOOTH",
"301 654 OFFCURVE",
"334 698 QCURVE",
"365 733 OFFCURVE",
"396 768 QCURVE SMOOTH",
"398 771 OFFCURVE",
"436 798 OFFCURVE"
);
},
{
closed = 1;
nodes = (
"683 114 QCURVE",
"692 109 OFFCURVE",
"704 89 QCURVE",
"705 81 OFFCURVE",
"681 60 QCURVE SMOOTH",
"648 30 OFFCURVE",
"591 10 QCURVE SMOOTH",
"491 -25 OFFCURVE",
"417 -25 QCURVE SMOOTH",
"372 -25 OFFCURVE",
"334 -17 QCURVE SMOOTH",
"118 25 OFFCURVE",
"29 220 QCURVE SMOOTH",
"-1 287 OFFCURVE",
"-1 358 QCURVE SMOOTH",
"-1 450 OFFCURVE",
"56 581 QCURVE SMOOTH",
"60 588 OFFCURVE",
"68 588 QCURVE SMOOTH",
"82 588 OFFCURVE",
"110 562 OFFCURVE",
"106 549 QCURVE SMOOTH",
"59 420 OFFCURVE",
"59 346 QCURVE SMOOTH",
"59 291 OFFCURVE",
"81 243 QCURVE SMOOTH",
"151 91 OFFCURVE",
"337 41 QCURVE SMOOTH",
"391 26 OFFCURVE",
"434 26 QCURVE SMOOTH",
"498 26 OFFCURVE",
"581 67 QCURVE",
"605 81 OFFCURVE",
"630 95 QCURVE SMOOTH",
"668 116 OFFCURVE",
"679 116 QCURVE SMOOTH",
"682 116 OFFCURVE"
);
}
);
width = 904;
}
);
unicode = 0AB9;
},
{
glyphname = uni0AE0;
lastChange = "2017-06-08 06:27:28 +0000";
layers = (
{
anchors = (
{
name = "Anchor-4";
position = "{539, 759}";
}
);
layerId = "8D630CB6-6CFC-4A7D-AC95-7C82CE00D513";
paths = (
{
closed = 1;
nodes = (
"481 385 QCURVE",
"475 391 OFFCURVE",
"439 435 QCURVE SMOOTH",
"416 463 OFFCURVE",
"389 479 QCURVE SMOOTH",
"301 533 OFFCURVE",
"243 531 QCURVE SMOOTH",
"200 530 OFFCURVE",
"165 511 QCURVE SMOOTH",
"148 502 OFFCURVE",
"101 465 QCURVE SMOOTH",
"98 463 OFFCURVE",
"95 463 QCURVE SMOOTH",
"85 463 OFFCURVE",
"69 492 OFFCURVE",
"69 502 QCURVE SMOOTH",
"69 511 OFFCURVE",
"74 514 QCURVE SMOOTH",
"98 529 OFFCURVE",
"146 562 QCURVE",
"194 588 OFFCURVE",
"243 589 QCURVE SMOOTH",
"311 591 OFFCURVE",
"404 534 QCURVE SMOOTH",
"433 517 OFFCURVE",
"456 488 QCURVE SMOOTH",
"496 439 OFFCURVE",
"498 437 QCURVE",
"498 332 LINE",
"454 300 OFFCURVE",
"367 221 QCURVE SMOOTH",
"260 124 OFFCURVE",
"195 71 QCURVE SMOOTH",
"192 68 OFFCURVE",
"190 68 QCURVE SMOOTH",
"180 68 OFFCURVE",
"163 98 OFFCURVE",
"163 109 QCURVE SMOOTH",
"163 116 OFFCURVE",
"167 120 QCURVE SMOOTH",
"280 240 OFFCURVE"
);
},
{
closed = 1;
nodes = (
"748 455 QCURVE",
"863 512 OFFCURVE",
"863 597 QCURVE SMOOTH",
"863 625 OFFCURVE",
"835 642 QCURVE SMOOTH",
"811 657 OFFCURVE",
"781 657 QCURVE SMOOTH",
"742 657 OFFCURVE",
"688 598 OFFCURVE",
"688 558 QCURVE SMOOTH",
"688 507 OFFCURVE"
);
},
{
closed = 1;
nodes = (
"538 405 LINE",
"605 401 OFFCURVE",
"700 436 QCURVE",
"632 495 OFFCURVE",
"632 558 QCURVE SMOOTH",
"632 621 OFFCURVE",
"719 708 OFFCURVE",
"781 708 QCURVE SMOOTH",
"834 708 OFFCURVE",
"874 680 QCURVE SMOOTH",
"918 648 OFFCURVE",
"918 597 QCURVE SMOOTH",
"918 493 OFFCURVE",
"794 423 QCURVE",
"857 383 OFFCURVE",
"874 375 QCURVE SMOOTH",
"905 360 OFFCURVE",
"936 361 QCURVE SMOOTH",
"947 362 OFFCURVE",
"964 332 OFFCURVE",
"964 320 QCURVE SMOOTH",
"964 309 OFFCURVE",
"955 313 QCURVE SMOOTH",
"935 322 OFFCURVE",
"895 315 QCURVE SMOOTH",
"799 299 OFFCURVE",
"799 167 QCURVE SMOOTH",
"799 123 OFFCURVE",
"877 62 OFFCURVE",
"922 64 QCURVE SMOOTH",
"935 65 OFFCURVE",
"1005 107 OFFCURVE",
"1014 107 QCURVE",
"1014 107 LINE",
"1028 107 OFFCURVE",
"1054 77 OFFCURVE",
"1043 67 QCURVE SMOOTH",
"994 17 OFFCURVE",
"925 13 QCURVE SMOOTH",
"857 9 OFFCURVE",
"743 100 OFFCURVE",
"743 167 QCURVE SMOOTH",
"743 291 OFFCURVE",
"835 343 QCURVE",
"809 354 OFFCURVE",
"787 371 QCURVE SMOOTH",
"751 399 OFFCURVE",
"748 401 QCURVE",
"642 354 OFFCURVE",
"538 354 QCURVE"
);
},
{
closed = 0;
nodes = (
"536 415 LINE SMOOTH"
);
},
{
closed = 1;
nodes = (
"698 117 QCURVE SMOOTH",
"694 64 OFFCURVE",
"635 -1 OFFCURVE",
"593 -1 QCURVE SMOOTH",
"491 -1 OFFCURVE",
"491 122 QCURVE SMOOTH",
"491 788 LINE SMOOTH",
"491 805 OFFCURVE",
"520 805 QCURVE SMOOTH",
"549 805 OFFCURVE",
"549 788 QCURVE SMOOTH",
"549 122 LINE SMOOTH",
"549 51 OFFCURVE",
"586 51 QCURVE SMOOTH",
"593 51 OFFCURVE",
"601 52 QCURVE SMOOTH",
"628 57 OFFCURVE",
"638 103 QCURVE SMOOTH",
"647 146 OFFCURVE",
"661 146 QCURVE",
"661 146 LINE",
"674 146 OFFCURVE",
"690 138 QCURVE SMOOTH",
"700 132 OFFCURVE"
);
}
);
width = 1112;
}
);
unicode = 0AE0;
},
{
glyphname = uni0AE1;
lastChange = "2017-06-08 06:27:28 +0000";
layers = (
{
anchors = (
{
name = "Anchor-4";
position = "{737, 781}";
}
);
layerId = "8D630CB6-6CFC-4A7D-AC95-7C82CE00D513";
paths = (
{
closed = 1;
nodes = (
"733 530 LINE",
"675 557 LINE",
"675 799 LINE SMOOTH",
"675 817 OFFCURVE",
"704 817 QCURVE SMOOTH",
"733 817 OFFCURVE",
"733 799 QCURVE SMOOTH"
);
},
{
closed = 1;
nodes = (
"859 330 QCURVE SMOOTH",
"859 312 OFFCURVE",
"846 308 QCURVE SMOOTH",
"801 293 LINE SMOOTH",
"765 281 OFFCURVE",
"727 255 QCURVE SMOOTH",
"685 227 OFFCURVE",
"667 219 QCURVE SMOOTH",
"617 198 OFFCURVE",
"617 158 QCURVE SMOOTH",
"617 55 OFFCURVE",
"720 55 QCURVE SMOOTH",
"765 55 OFFCURVE",
"792 76 QCURVE SMOOTH",
"807 88 OFFCURVE",
"820 88 QCURVE SMOOTH",
"849 88 OFFCURVE",
"849 50 QCURVE SMOOTH",
"849 22 OFFCURVE",
"829 27 QCURVE",
"782 8 OFFCURVE",
"731 8 QCURVE SMOOTH",
"659 8 OFFCURVE",
"612 44 QCURVE SMOOTH",
"559 85 OFFCURVE",
"559 158 QCURVE SMOOTH",
"559 209 OFFCURVE",
"625 249 QCURVE",
"631 260 OFFCURVE",
"694 297 QCURVE",
"795 346 OFFCURVE",
"830 360 QCURVE SMOOTH",
"841 365 OFFCURVE",
"859 341 OFFCURVE"
);
},
{
closed = 1;
nodes = (
"857 330 QCURVE",
"799 330 LINE",
"799 404 OFFCURVE",
"692 505 OFFCURVE",
"618 505 QCURVE SMOOTH",
"568 505 OFFCURVE",
"461 459 OFFCURVE",
"427 423 QCURVE",
"458 372 OFFCURVE",
"458 339 QCURVE SMOOTH",
"458 303 OFFCURVE",
"446 273 QCURVE SMOOTH",
"430 233 OFFCURVE",
"401 233 QCURVE SMOOTH",
"370 233 OFFCURVE",
"348 262 QCURVE",
"327 288 OFFCURVE",
"327 320 QCURVE SMOOTH",
"327 378 OFFCURVE",
"361 427 QCURVE",
"306 504 OFFCURVE",
"239 504 QCURVE SMOOTH",
"165 504 OFFCURVE",
"77 420 OFFCURVE",
"77 346 QCURVE SMOOTH",
"77 317 OFFCURVE",
"136 187 QCURVE SMOOTH",
"192 64 OFFCURVE",
"216 35 QCURVE SMOOTH",
"219 32 OFFCURVE",
"219 28 QCURVE SMOOTH",
"219 17 OFFCURVE",
"190 -3 OFFCURVE",
"180 -3 QCURVE SMOOTH",
"171 -3 OFFCURVE",
"167 3 QCURVE SMOOTH",
"136 42 OFFCURVE",
"80 169 QCURVE SMOOTH",
"19 306 OFFCURVE",
"19 346 QCURVE SMOOTH",
"19 448 OFFCURVE",
"137 562 OFFCURVE",
"239 562 QCURVE SMOOTH",
"321 562 OFFCURVE",
"395 469 QCURVE",
"436 509 OFFCURVE",
"563 563 OFFCURVE",
"618 563 QCURVE SMOOTH",
"714 563 OFFCURVE",
"857 426 OFFCURVE"
);
},
{
closed = 1;
nodes = (
"400 336 QCURVE SMOOTH",
"399 354 OFFCURVE",
"392 366 QCURVE",
"385 342 OFFCURVE",
"385 320 QCURVE SMOOTH",
"385 290 OFFCURVE",
"395 275 QCURVE",
"401 286 OFFCURVE"
);
},
{
closed = 1;
nodes = (
"818 -190 QCURVE SMOOTH",
"745 -190 OFFCURVE",
"664 -104 OFFCURVE",
"664 -37 QCURVE SMOOTH",
"664 5 OFFCURVE",
"709 37 QCURVE SMOOTH",
"726 48 OFFCURVE",
"785 77 QCURVE SMOOTH",
"791 79 OFFCURVE",
"795 79 QCURVE SMOOTH",
"813 79 OFFCURVE",
"813 47 QCURVE SMOOTH",
"813 35 OFFCURVE",
"803 30 QCURVE SMOOTH",
"776 17 OFFCURVE",
"744 4 QCURVE",
"715 -13 OFFCURVE",
"715 -37 QCURVE SMOOTH",
"715 -79 OFFCURVE",
"740 -107 QCURVE SMOOTH",
"768 -139 OFFCURVE",
"818 -139 QCURVE SMOOTH",
"844 -139 OFFCURVE",
"876 -118 QCURVE SMOOTH",
"903 -100 OFFCURVE",
"929 -82 QCURVE",
"943 -82 OFFCURVE",
"966 -106 OFFCURVE",
"957 -119 QCURVE SMOOTH",
"907 -190 OFFCURVE"
);
}
);
width = 1008;
}
);
unicode = 0AE1;
},
{
glyphname = uni0ABD;
lastChange = "2017-06-08 06:27:28 +0000";
layers = (
{
layerId = "8D630CB6-6CFC-4A7D-AC95-7C82CE00D513";
paths = (
{
closed = 1;
nodes = (
"694 334 QCURVE SMOOTH",
"694 217 OFFCURVE",
"630 133 QCURVE SMOOTH",
"561 41 OFFCURVE",
"447 41 QCURVE SMOOTH",
"249 41 OFFCURVE",
"120 255 QCURVE SMOOTH",
"95 297 OFFCURVE",
"20 427 QCURVE SMOOTH",
"19 430 OFFCURVE",
"19 434 QCURVE",
"19 434 LINE",
"19 449 OFFCURVE",
"41 460 QCURVE",
"62 472 OFFCURVE",
"70 459 QCURVE SMOOTH",
"158 301 LINE SMOOTH",
"271 98 OFFCURVE",
"447 98 QCURVE SMOOTH",
"535 98 OFFCURVE",
"588 175 QCURVE SMOOTH",
"636 243 OFFCURVE",
"636 334 QCURVE SMOOTH",
"636 443 OFFCURVE",
"505 443 QCURVE SMOOTH",
"478 443 OFFCURVE",
"408 437 QCURVE SMOOTH",
"395 436 OFFCURVE",
"381 436 QCURVE SMOOTH",
"285 436 OFFCURVE",
"159 555 OFFCURVE",
"159 652 QCURVE SMOOTH",
"159 720 OFFCURVE",
"199 768 QCURVE SMOOTH",
"241 820 OFFCURVE",
"308 820 QCURVE SMOOTH",
"607 820 LINE SMOOTH",
"624 820 OFFCURVE",
"624 791 QCURVE SMOOTH",
"624 762 OFFCURVE",
"607 762 QCURVE SMOOTH",
"308 762 LINE SMOOTH",
"266 762 OFFCURVE",
"217 695 OFFCURVE",
"217 652 QCURVE SMOOTH",
"217 574 OFFCURVE",
"272 531 QCURVE",
"324 489 OFFCURVE",
"403 495 QCURVE SMOOTH",
"461 500 OFFCURVE",
"489 500 QCURVE SMOOTH",
"588 500 OFFCURVE",
"636 468 QCURVE SMOOTH",
"694 429 OFFCURVE"
);
}
);
width = 776;
}
);
unicode = 0ABD;
},
{
glyphname = uni0AD0;
lastChange = "2017-06-08 06:27:28 +0000";
layers = (
{
layerId = "8D630CB6-6CFC-4A7D-AC95-7C82CE00D513";
paths = (
{
closed = 1;
nodes = (
"408 456 QCURVE",
"362 421 OFFCURVE",
"261 387 QCURVE SMOOTH",
"248 382 OFFCURVE",
"241 398 QCURVE",
"235 409 OFFCURVE",
"235 423 QCURVE SMOOTH",
"235 438 OFFCURVE",
"243 442 QCURVE SMOOTH",
"373 499 OFFCURVE",
"382 505 QCURVE SMOOTH",
"469 560 OFFCURVE",
"469 637 QCURVE SMOOTH",
"469 696 OFFCURVE",
"372 776 OFFCURVE",
"313 776 QCURVE SMOOTH",
"278 776 OFFCURVE",
"227 749 QCURVE SMOOTH",
"169 717 OFFCURVE",
"146 712 QCURVE SMOOTH",
"133 710 OFFCURVE",
"107 737 OFFCURVE",
"107 750 QCURVE SMOOTH",
"107 759 OFFCURVE",
"114 762 QCURVE SMOOTH",
"251 834 OFFCURVE",
"313 834 QCURVE SMOOTH",
"398 834 OFFCURVE",
"461 779 QCURVE SMOOTH",
"527 721 OFFCURVE",
"527 637 QCURVE SMOOTH",
"527 560 OFFCURVE",
"456 492 QCURVE",
"458 489 OFFCURVE",
"527 476 QCURVE",
"578 476 OFFCURVE",
"624 517 QCURVE",
"694 591 LINE SMOOTH",
"763 664 OFFCURVE",
"794 686 QCURVE SMOOTH",
"850 727 OFFCURVE",
"918 727 QCURVE SMOOTH",
"1021 727 OFFCURVE",
"1083 646 QCURVE",
"1141 572 OFFCURVE",
"1141 466 QCURVE SMOOTH",
"1141 349 OFFCURVE",
"1068 262 QCURVE SMOOTH",
"990 170 OFFCURVE",
"875 171 QCURVE SMOOTH",
"710 172 OFFCURVE",
"623 359 QCURVE SMOOTH",
"614 378 OFFCURVE",
"650 378 QCURVE SMOOTH",
"675 378 OFFCURVE",
"681 365 QCURVE SMOOTH",
"713 293 OFFCURVE",
"754 263 QCURVE SMOOTH",
"800 229 OFFCURVE",
"875 229 QCURVE SMOOTH",
"967 229 OFFCURVE",
"1027 303 QCURVE SMOOTH",
"1083 372 OFFCURVE",
"1083 466 QCURVE SMOOTH",
"1083 546 OFFCURVE",
"1041 604 QCURVE SMOOTH",
"995 669 OFFCURVE",
"918 669 QCURVE SMOOTH",
"865 669 OFFCURVE",
"818 633 QCURVE SMOOTH",
"799 618 OFFCURVE",
"657 463 QCURVE",
"605 417 OFFCURVE",
"546 417 QCURVE SMOOTH",
"530 417 OFFCURVE",
"513 420 QCURVE",
"571 332 OFFCURVE",
"571 246 QCURVE SMOOTH",
"571 148 OFFCURVE",
"442 9 OFFCURVE",
"345 9 QCURVE SMOOTH",
"210 9 OFFCURVE",
"109 158 QCURVE SMOOTH",
"39 261 OFFCURVE",
"6 388 QCURVE SMOOTH",
"0 411 OFFCURVE",
"41 411 QCURVE SMOOTH",
"59 411 OFFCURVE",
"64 400 QCURVE SMOOTH",
"90 330 OFFCURVE",
"135 220 QCURVE SMOOTH",
"197 67 OFFCURVE",
"345 67 QCURVE SMOOTH",
"419 67 OFFCURVE",
"513 171 OFFCURVE",
"513 246 QCURVE SMOOTH",
"513 352 OFFCURVE"
);
},
{
closed = 1;
nodes = (
"782 1082 QCURVE SMOOTH",
"782 1054 OFFCURVE",
"739 1012 OFFCURVE",
"711 1012 QCURVE SMOOTH",
"683 1012 OFFCURVE",
"640 1054 OFFCURVE",
"640 1082 QCURVE SMOOTH",
"640 1111 OFFCURVE",
"682 1153 OFFCURVE",
"711 1153 QCURVE SMOOTH",
"740 1153 OFFCURVE",
"782 1111 OFFCURVE"
);
},
{
closed = 1;
nodes = (
"1047 1037 QCURVE SMOOTH",
"1033 945 OFFCURVE",
"909 876 QCURVE SMOOTH",
"798 814 OFFCURVE",
"698 817 QCURVE SMOOTH",
"583 820 OFFCURVE",
"485 898 QCURVE SMOOTH",
"399 967 OFFCURVE",
"390 1032 QCURVE SMOOTH",
"388 1042 OFFCURVE",
"414 1060 OFFCURVE",
"424 1060 QCURVE SMOOTH",
"431 1060 OFFCURVE",
"433 1056 QCURVE SMOOTH",
"507 863 OFFCURVE",
"698 866 QCURVE SMOOTH",
"867 869 OFFCURVE",
"992 1048 QCURVE SMOOTH",
"995 1054 OFFCURVE",
"1008 1054 QCURVE SMOOTH",
"1049 1054 OFFCURVE"
);
}
);
width = 1228;
}
);
unicode = 0AD0;
},
{
glyphname = uni0A95_uni0AB0_uni0ACD.zz04.zz05_uni0ABC.zz07;
lastChange = "2017-06-08 06:27:27 +0000";
layers = (
{
anchors = (
{
name = "Anchor-0";
position = "{418, 781}";
},
{
name = "Anchor-2";
position = "{418, 781}";
},
{
name = "Anchor-6";
position = "{407, -11}";
},
{
name = "Anchor-7";
position = "{407, -11}";
}
);
layerId = "8D630CB6-6CFC-4A7D-AC95-7C82CE00D513";
paths = (
{
closed = 1;
nodes = (
"332 465 QCURVE",
"245 447 OFFCURVE",
"125 404 QCURVE SMOOTH",
"112 400 OFFCURVE",
"90 429 OFFCURVE",
"90 442 QCURVE SMOOTH",
"90 450 OFFCURVE",
"96 453 QCURVE SMOOTH",
"129 469 OFFCURVE",
"285 498 QCURVE",
"236 537 OFFCURVE",
"226 552 QCURVE SMOOTH",
"209 576 OFFCURVE",
"209 621 QCURVE SMOOTH",
"209 687 OFFCURVE",
"322 824 OFFCURVE",
"387 824 QCURVE",
"387 824 LINE",
"401 824 OFFCURVE",
"410 804 QCURVE SMOOTH",
"414 794 OFFCURVE",
"414 786 QCURVE SMOOTH",
"414 778 OFFCURVE",
"410 773 QCURVE",
"390 757 OFFCURVE",
"316 698 QCURVE SMOOTH",
"266 659 OFFCURVE",
"266 621 QCURVE SMOOTH",
"266 582 OFFCURVE",
"278 562 QCURVE SMOOTH",
"286 548 OFFCURVE",
"320 518 QCURVE",
"486 534 OFFCURVE",
"547 562 QCURVE SMOOTH",
"557 566 OFFCURVE",
"576 541 OFFCURVE",
"576 530 QCURVE SMOOTH",
"576 521 OFFCURVE",
"571 518 QCURVE SMOOTH",
"520 487 OFFCURVE",
"379 478 QCURVE",
"572 334 OFFCURVE",
"572 203 QCURVE SMOOTH",
"572 111 OFFCURVE",
"496 48 QCURVE SMOOTH",
"424 -12 OFFCURVE",
"330 -12 QCURVE SMOOTH",
"242 -12 OFFCURVE",
"181 13 QCURVE SMOOTH",
"152 25 OFFCURVE",
"42 90 QCURVE SMOOTH",
"36 94 OFFCURVE",
"36 103 QCURVE SMOOTH",
"36 116 OFFCURVE",
"59 149 OFFCURVE",
"71 142 QCURVE SMOOTH",
"165 88 OFFCURVE",
"194 75 QCURVE SMOOTH",
"259 46 OFFCURVE",
"330 46 QCURVE SMOOTH",
"401 46 OFFCURVE",
"455 88 QCURVE SMOOTH",
"514 134 OFFCURVE",
"514 203 QCURVE SMOOTH",
"514 285 OFFCURVE",
"423 385 QCURVE",
"383 421 OFFCURVE"
);
},
{
closed = 1;
nodes = (
"387 453 QCURVE",
"321 328 OFFCURVE",
"247 200 QCURVE",
"237 197 OFFCURVE",
"210 218 OFFCURVE",
"206 228 QCURVE SMOOTH",
"204 233 OFFCURVE",
"208 240 QCURVE SMOOTH",
"238 287 OFFCURVE",
"331 470 QCURVE",
"327 471 OFFCURVE",
"325 472 QCURVE",
"325 472 LINE",
"327 472 OFFCURVE"
);
},
{
closed = 1;
nodes = (
"123 -78 QCURVE SMOOTH",
"123 -103 OFFCURVE",
"86 -139 OFFCURVE",
"61 -139 QCURVE SMOOTH",
"37 -139 OFFCURVE",
"0 -103 OFFCURVE",
"0 -78 QCURVE SMOOTH",
"0 -52 OFFCURVE",
"35 -15 OFFCURVE",
"61 -15 QCURVE SMOOTH",
"87 -15 OFFCURVE",
"123 -52 OFFCURVE"
);
}
);
width = 696;
}
);
},
{
glyphname = uni0A95_uni0AB0_uni0ACD.zz04.zz05_uni0ACD.zz09;
lastChange = "2017-06-08 06:27:27 +0000";
layers = (
{
layerId = "8D630CB6-6CFC-4A7D-AC95-7C82CE00D513";
paths = (
{
closed = 1;
nodes = (
"664 529 QCURVE",
"660 473 LINE",
"639 474 OFFCURVE",
"576 478 QCURVE SMOOTH",
"517 482 OFFCURVE",
"486 482 QCURVE SMOOTH",
"405 482 OFFCURVE",
"377 459 QCURVE",
"542 336 OFFCURVE",
"542 203 QCURVE SMOOTH",
"542 111 OFFCURVE",
"466 48 QCURVE SMOOTH",
"394 -12 OFFCURVE",
"300 -12 QCURVE SMOOTH",
"212 -12 OFFCURVE",
"151 13 QCURVE SMOOTH",
"122 25 OFFCURVE",
"12 90 QCURVE SMOOTH",
"7 94 OFFCURVE",
"7 103 QCURVE SMOOTH",
"7 116 OFFCURVE",
"29 149 OFFCURVE",
"41 142 QCURVE SMOOTH",
"135 88 OFFCURVE",
"164 75 QCURVE SMOOTH",
"230 46 OFFCURVE",
"300 46 QCURVE SMOOTH",
"371 46 OFFCURVE",
"426 88 QCURVE",
"484 134 OFFCURVE",
"484 203 QCURVE SMOOTH",
"484 285 OFFCURVE",
"393 385 QCURVE",
"353 421 OFFCURVE",
"302 465 QCURVE",
"215 447 OFFCURVE",
"95 404 QCURVE SMOOTH",
"83 400 OFFCURVE",
"60 429 OFFCURVE",
"60 442 QCURVE SMOOTH",
"60 450 OFFCURVE",
"66 453 QCURVE SMOOTH",
"99 469 OFFCURVE",
"256 498 QCURVE",
"206 537 OFFCURVE",
"196 552 QCURVE SMOOTH",
"179 576 OFFCURVE",
"179 621 QCURVE SMOOTH",
"179 687 OFFCURVE",
"292 824 OFFCURVE",
"357 824 QCURVE",
"357 824 LINE",
"371 824 OFFCURVE",
"380 804 QCURVE SMOOTH",
"384 794 OFFCURVE",
"384 786 QCURVE SMOOTH",
"384 778 OFFCURVE",
"380 773 QCURVE",
"360 757 OFFCURVE",
"286 698 QCURVE SMOOTH",
"237 659 OFFCURVE",
"237 621 QCURVE SMOOTH",
"237 582 OFFCURVE",
"248 562 QCURVE SMOOTH",
"255 551 OFFCURVE",
"312 501 QCURVE",
"372 533 OFFCURVE",
"545 533 QCURVE SMOOTH",
"606 533 OFFCURVE"
);
},
{
closed = 1;
nodes = (
"357 453 QCURVE",
"291 328 OFFCURVE",
"217 200 QCURVE",
"208 197 OFFCURVE",
"194 207 QCURVE SMOOTH",
"176 221 OFFCURVE",
"176 228 QCURVE SMOOTH",
"176 233 OFFCURVE",
"178 240 QCURVE",
"208 287 OFFCURVE",
"301 470 QCURVE",
"297 471 OFFCURVE",
"295 472 QCURVE",
"295 472 LINE",
"298 472 OFFCURVE"
);
}
);
width = 568;
}
);
},
{
glyphname = uni0A95_uni0AB0_uni0ACD.zz04.zz05_uni0ACD.zz28;
lastChange = "2017-06-08 06:27:27 +0000";
layers = (
{
layerId = "8D630CB6-6CFC-4A7D-AC95-7C82CE00D513";
paths = (
{
closed = 1;
nodes = (
"332 465 QCURVE",
"245 447 OFFCURVE",
"125 404 QCURVE SMOOTH",
"112 400 OFFCURVE",
"90 429 OFFCURVE",
"90 442 QCURVE SMOOTH",
"90 450 OFFCURVE",
"96 453 QCURVE SMOOTH",
"129 469 OFFCURVE",
"285 498 QCURVE",
"236 537 OFFCURVE",
"226 552 QCURVE SMOOTH",
"209 576 OFFCURVE",
"209 621 QCURVE SMOOTH",
"209 687 OFFCURVE",
"322 824 OFFCURVE",
"387 824 QCURVE",
"387 824 LINE",
"401 824 OFFCURVE",
"410 804 QCURVE SMOOTH",
"414 794 OFFCURVE",
"414 786 QCURVE SMOOTH",
"414 778 OFFCURVE",
"410 773 QCURVE",
"390 757 OFFCURVE",
"316 698 QCURVE SMOOTH",
"266 659 OFFCURVE",
"266 621 QCURVE SMOOTH",
"266 582 OFFCURVE",
"278 562 QCURVE SMOOTH",
"286 548 OFFCURVE",
"320 518 QCURVE",
"486 534 OFFCURVE",
"547 562 QCURVE SMOOTH",
"557 566 OFFCURVE",
"576 541 OFFCURVE",
"576 530 QCURVE SMOOTH",
"576 521 OFFCURVE",
"571 518 QCURVE SMOOTH",
"520 487 OFFCURVE",
"379 478 QCURVE",
"572 334 OFFCURVE",
"572 203 QCURVE SMOOTH",
"572 111 OFFCURVE",
"496 48 QCURVE SMOOTH",
"424 -12 OFFCURVE",
"330 -12 QCURVE SMOOTH",
"242 -12 OFFCURVE",
"181 13 QCURVE SMOOTH",
"152 25 OFFCURVE",
"42 90 QCURVE SMOOTH",
"36 94 OFFCURVE",
"36 103 QCURVE SMOOTH",
"36 116 OFFCURVE",
"59 149 OFFCURVE",
"71 142 QCURVE SMOOTH",
"165 88 OFFCURVE",
"194 75 QCURVE SMOOTH",
"259 46 OFFCURVE",
"330 46 QCURVE SMOOTH",
"401 46 OFFCURVE",
"455 88 QCURVE SMOOTH",
"514 134 OFFCURVE",
"514 203 QCURVE SMOOTH",
"514 332 OFFCURVE"
);
},
{
closed = 1;
nodes = (
"744 -356 QCURVE",
"744 -356 LINE",
"744 -371 OFFCURVE",
"723 -381 QCURVE SMOOTH",
"701 -391 OFFCURVE",
"693 -379 QCURVE SMOOTH",
"493 -96 OFFCURVE",
"396 -96 QCURVE SMOOTH",
"336 -96 OFFCURVE",
"247 -130 QCURVE SMOOTH",
"235 -135 OFFCURVE",
"217 -105 OFFCURVE",
"217 -93 QCURVE SMOOTH",
"217 -81 OFFCURVE",
"224 -78 QCURVE SMOOTH",
"320 -38 OFFCURVE",
"396 -38 QCURVE SMOOTH",
"457 -38 OFFCURVE",
"577 -158 QCURVE SMOOTH",
"604 -185 OFFCURVE",
"668 -258 QCURVE SMOOTH",
"744 -343 OFFCURVE"
);
},
{
closed = 1;
nodes = (
"372 453 QCURVE",
"306 328 OFFCURVE",
"233 200 QCURVE",
"223 197 OFFCURVE",
"195 218 OFFCURVE",
"191 228 QCURVE SMOOTH",
"190 233 OFFCURVE",
"193 240 QCURVE",
"223 287 OFFCURVE",
"316 470 QCURVE",
"313 471 OFFCURVE",
"311 472 QCURVE",
"311 472 LINE",
"313 472 OFFCURVE"
);
}
);
width = 696;
}
);
},
{
glyphname = uni0A95_uni0ACD_uni0AB7.zz01_uni0AB0_uni0ACD.zz04.zz05;
lastChange = "2017-06-08 06:27:27 +0000";
layers = (
{
anchors = (
{
name = "Anchor-0";
position = "{638, 759}";
},
{
name = "Anchor-2";
position = "{638, 759}";
},
{
name = "Anchor-6";
position = "{583, 0}";
},
{
name = "Anchor-7";
position = "{583, 0}";
}
);
layerId = "8D630CB6-6CFC-4A7D-AC95-7C82CE00D513";
paths = (
{
closed = 1;
nodes = (
"857 88 QCURVE SMOOTH",
"793 -20 OFFCURVE",
"731 -20 QCURVE SMOOTH",
"662 -20 OFFCURVE",
"578 53 OFFCURVE",
"578 122 QCURVE SMOOTH",
"578 788 LINE SMOOTH",
"578 805 OFFCURVE",
"607 805 QCURVE SMOOTH",
"636 805 OFFCURVE",
"636 788 QCURVE SMOOTH",
"636 122 LINE SMOOTH",
"636 38 OFFCURVE",
"731 38 QCURVE SMOOTH",
"757 38 OFFCURVE",
"804 111 QCURVE",
"810 117 OFFCURVE",
"820 117 QCURVE",
"820 117 LINE",
"833 117 OFFCURVE",
"847 110 QCURVE",
"864 100 OFFCURVE"
);
},
{
closed = 1;
nodes = (
"615 484 LINE",
"547 395 OFFCURVE",
"470 303 QCURVE",
"457 299 OFFCURVE",
"427 314 OFFCURVE",
"423 327 QCURVE",
"425 322 OFFCURVE",
"425 322 QCURVE",
"469 384 OFFCURVE",
"589 529 QCURVE"
);
},
{
closed = 1;
nodes = (
"371 193 QCURVE",
"404 204 OFFCURVE",
"404 217 QCURVE SMOOTH",
"404 245 OFFCURVE",
"381 245 QCURVE SMOOTH",
"368 245 OFFCURVE",
"362 226 QCURVE SMOOTH",
"359 217 OFFCURVE"
);
},
{
closed = 1;
nodes = (
"224 573 LINE",
"295 624 OFFCURVE",
"308 635 QCURVE SMOOTH",
"340 664 OFFCURVE",
"340 689 QCURVE SMOOTH",
"340 731 OFFCURVE",
"283 789 OFFCURVE",
"240 791 QCURVE",
"196 792 OFFCURVE",
"133 739 OFFCURVE",
"133 695 QCURVE SMOOTH",
"133 636 OFFCURVE",
"223 573 QCURVE"
);
},
{
closed = 1;
nodes = (
"114 1 QCURVE SMOOTH",
"114 24 OFFCURVE",
"136 29 QCURVE",
"211 5 OFFCURVE",
"267 5 QCURVE SMOOTH",
"349 5 OFFCURVE",
"349 62 QCURVE SMOOTH",
"349 89 OFFCURVE",
"330 129 QCURVE",
"291 114 OFFCURVE",
"261 114 QCURVE SMOOTH",
"161 114 OFFCURVE",
"97 166 QCURVE SMOOTH",
"28 222 OFFCURVE",
"28 320 QCURVE SMOOTH",
"28 378 OFFCURVE",
"80 448 QCURVE SMOOTH",
"123 505 OFFCURVE",
"174 539 QCURVE",
"75 614 OFFCURVE",
"75 695 QCURVE SMOOTH",
"75 763 OFFCURVE",
"172 850 OFFCURVE",
"240 849 QCURVE",
"307 847 OFFCURVE",
"398 756 OFFCURVE",
"398 689 QCURVE SMOOTH",
"398 628 OFFCURVE",
"268 539 QCURVE",
"337 499 OFFCURVE",
"411 502 QCURVE SMOOTH",
"500 506 OFFCURVE",
"589 572 QCURVE SMOOTH",
"592 575 OFFCURVE",
"597 575 QCURVE",
"597 575 LINE",
"611 575 OFFCURVE",
"621 553 QCURVE SMOOTH",
"631 533 OFFCURVE",
"621 523 QCURVE SMOOTH",
"547 449 OFFCURVE",
"414 445 QCURVE SMOOTH",
"308 441 OFFCURVE",
"217 504 QCURVE",
"85 411 OFFCURVE",
"85 320 QCURVE SMOOTH",
"85 249 OFFCURVE",
"139 208 QCURVE SMOOTH",
"187 172 OFFCURVE",
"261 172 QCURVE SMOOTH",
"294 172 OFFCURVE",
"317 177 QCURVE",
"297 203 OFFCURVE",
"304 235 QCURVE SMOOTH",
"321 305 OFFCURVE",
"382 303 QCURVE SMOOTH",
"414 301 OFFCURVE",
"452 261 OFFCURVE",
"452 233 QCURVE SMOOTH",
"452 204 OFFCURVE",
"411 161 OFFCURVE",
"382 156 QCURVE",
"409 95 OFFCURVE",
"409 50 QCURVE SMOOTH",
"409 -59 OFFCURVE",
"267 -59 QCURVE SMOOTH",
"221 -59 OFFCURVE",
"176 -47 QCURVE SMOOTH",
"135 -36 OFFCURVE",
"114 -11 OFFCURVE"
);
}
);
width = 938;
}
);
},
{
glyphname = uni0A95_uni0ACD_uni0AB7.zz01_uni0AB0_uni0ACD.zz04.zz05_uni0ABC.zz07;
lastChange = "2017-06-08 06:27:27 +0000";
layers = (
{
anchors = (
{
name = "Anchor-0";
position = "{638, 759}";
},
{
name = "Anchor-2";
position = "{638, 759}";
},
{
name = "Anchor-6";
position = "{572, -88}";
},
{
name = "Anchor-7";
position = "{572, -88}";
}
);
layerId = "8D630CB6-6CFC-4A7D-AC95-7C82CE00D513";
paths = (
{
closed = 1;
nodes = (
"857 88 QCURVE SMOOTH",
"793 -20 OFFCURVE",
"731 -20 QCURVE SMOOTH",
"662 -20 OFFCURVE",
"578 53 OFFCURVE",
"578 122 QCURVE SMOOTH",
"578 788 LINE SMOOTH",
"578 805 OFFCURVE",
"607 805 QCURVE SMOOTH",
"636 805 OFFCURVE",
"636 788 QCURVE SMOOTH",
"636 122 LINE SMOOTH",
"636 38 OFFCURVE",
"731 38 QCURVE SMOOTH",
"757 38 OFFCURVE",
"804 111 QCURVE",
"810 117 OFFCURVE",
"820 117 QCURVE",
"820 117 LINE",
"833 117 OFFCURVE",
"847 110 QCURVE",
"864 100 OFFCURVE"
);
},
{
closed = 1;
nodes = (
"615 484 LINE",
"547 395 OFFCURVE",
"470 303 QCURVE",
"457 299 OFFCURVE",
"427 314 OFFCURVE",
"423 327 QCURVE",
"425 322 OFFCURVE",
"425 322 QCURVE",
"469 384 OFFCURVE",
"589 529 QCURVE"
);
},
{
closed = 1;
nodes = (
"371 193 QCURVE",
"404 204 OFFCURVE",
"404 217 QCURVE SMOOTH",
"404 245 OFFCURVE",
"381 245 QCURVE SMOOTH",
"368 245 OFFCURVE",
"362 226 QCURVE SMOOTH",
"359 217 OFFCURVE"
);
},
{
closed = 1;
nodes = (
"224 573 LINE",
"295 624 OFFCURVE",
"308 635 QCURVE SMOOTH",
"340 664 OFFCURVE",
"340 689 QCURVE SMOOTH",
"340 731 OFFCURVE",
"283 789 OFFCURVE",
"240 791 QCURVE",
"196 792 OFFCURVE",
"133 739 OFFCURVE",
"133 695 QCURVE SMOOTH",
"133 636 OFFCURVE",
"223 573 QCURVE"
);
},
{
closed = 1;
nodes = (
"114 1 QCURVE SMOOTH",
"114 24 OFFCURVE",
"136 29 QCURVE",
"211 5 OFFCURVE",
"267 5 QCURVE SMOOTH",
"349 5 OFFCURVE",
"349 62 QCURVE SMOOTH",
"349 89 OFFCURVE",
"330 129 QCURVE",
"291 114 OFFCURVE",
"261 114 QCURVE SMOOTH",
"161 114 OFFCURVE",
"97 166 QCURVE SMOOTH",
"28 222 OFFCURVE",
"28 320 QCURVE SMOOTH",
"28 378 OFFCURVE",
"80 448 QCURVE SMOOTH",
"123 505 OFFCURVE",
"174 539 QCURVE",
"75 614 OFFCURVE",
"75 695 QCURVE SMOOTH",
"75 763 OFFCURVE",
"172 850 OFFCURVE",
"240 849 QCURVE",
"307 847 OFFCURVE",
"398 756 OFFCURVE",
"398 689 QCURVE SMOOTH",
"398 628 OFFCURVE",
"268 539 QCURVE",
"337 499 OFFCURVE",
"411 502 QCURVE SMOOTH",
"500 506 OFFCURVE",
"589 572 QCURVE SMOOTH",
"592 575 OFFCURVE",
"597 575 QCURVE",
"597 575 LINE",
"611 575 OFFCURVE",
"621 553 QCURVE SMOOTH",
"631 533 OFFCURVE",
"621 523 QCURVE SMOOTH",
"547 449 OFFCURVE",
"414 445 QCURVE SMOOTH",
"308 441 OFFCURVE",
"217 504 QCURVE",
"85 411 OFFCURVE",
"85 320 QCURVE SMOOTH",
"85 249 OFFCURVE",
"139 208 QCURVE SMOOTH",
"187 172 OFFCURVE",
"261 172 QCURVE SMOOTH",
"294 172 OFFCURVE",
"317 177 QCURVE",
"297 203 OFFCURVE",
"304 235 QCURVE SMOOTH",
"321 305 OFFCURVE",
"382 303 QCURVE SMOOTH",
"414 301 OFFCURVE",
"452 261 OFFCURVE",
"452 233 QCURVE SMOOTH",
"452 204 OFFCURVE",
"411 161 OFFCURVE",
"382 156 QCURVE",
"409 95 OFFCURVE",
"409 50 QCURVE SMOOTH",
"409 -59 OFFCURVE",
"267 -59 QCURVE SMOOTH",
"221 -59 OFFCURVE",
"176 -47 QCURVE SMOOTH",
"135 -36 OFFCURVE",
"114 -11 OFFCURVE"
);
},
{
closed = 1;
nodes = (
"137 -136 QCURVE SMOOTH",
"137 -160 OFFCURVE",
"100 -197 OFFCURVE",
"76 -197 QCURVE SMOOTH",
"51 -197 OFFCURVE",
"14 -160 OFFCURVE",
"14 -136 QCURVE SMOOTH",
"14 -110 OFFCURVE",
"50 -73 OFFCURVE",
"76 -73 QCURVE SMOOTH",
"101 -73 OFFCURVE",
"137 -110 OFFCURVE"
);
}
);
width = 938;
}
);
},
{
glyphname = uni0A95_uni0ACD_uni0AB7.zz01_uni0AB0_uni0ACD.zz04.zz05_uni0ACD.zz09;
lastChange = "2017-06-08 06:27:27 +0000";
layers = (
{
layerId = "8D630CB6-6CFC-4A7D-AC95-7C82CE00D513";
paths = (
{
closed = 1;
nodes = (
"615 484 LINE",
"547 395 OFFCURVE",
"470 303 QCURVE",
"457 299 OFFCURVE",
"427 314 OFFCURVE",
"423 327 QCURVE",
"425 322 OFFCURVE",
"425 322 QCURVE",
"469 384 OFFCURVE",
"589 529 QCURVE"
);
},
{
closed = 1;
nodes = (
"371 193 QCURVE",
"404 204 OFFCURVE",
"404 217 QCURVE SMOOTH",
"404 245 OFFCURVE",
"381 245 QCURVE SMOOTH",
"368 245 OFFCURVE",
"362 226 QCURVE SMOOTH",
"359 217 OFFCURVE"
);
},
{
closed = 1;
nodes = (
"224 573 LINE",
"295 624 OFFCURVE",
"308 635 QCURVE SMOOTH",
"340 664 OFFCURVE",
"340 689 QCURVE SMOOTH",
"340 731 OFFCURVE",
"283 789 OFFCURVE",
"240 791 QCURVE",
"196 792 OFFCURVE",
"133 739 OFFCURVE",
"133 695 QCURVE SMOOTH",
"133 636 OFFCURVE",
"223 573 QCURVE"
);
},
{
closed = 1;
nodes = (
"114 1 QCURVE SMOOTH",
"114 24 OFFCURVE",
"136 29 QCURVE",
"211 5 OFFCURVE",
"267 5 QCURVE SMOOTH",
"349 5 OFFCURVE",
"349 62 QCURVE SMOOTH",
"349 89 OFFCURVE",
"330 129 QCURVE",
"291 114 OFFCURVE",
"261 114 QCURVE SMOOTH",
"161 114 OFFCURVE",
"97 166 QCURVE SMOOTH",
"28 222 OFFCURVE",
"28 320 QCURVE SMOOTH",
"28 378 OFFCURVE",
"80 448 QCURVE SMOOTH",
"123 505 OFFCURVE",
"174 539 QCURVE",
"75 614 OFFCURVE",
"75 695 QCURVE SMOOTH",
"75 763 OFFCURVE",
"172 850 OFFCURVE",
"240 849 QCURVE",
"307 847 OFFCURVE",
"398 756 OFFCURVE",
"398 689 QCURVE SMOOTH",
"398 628 OFFCURVE",
"268 539 QCURVE",
"337 499 OFFCURVE",
"411 502 QCURVE SMOOTH",
"500 506 OFFCURVE",
"589 572 QCURVE SMOOTH",
"592 575 OFFCURVE",
"597 575 QCURVE",
"597 575 LINE",
"611 575 OFFCURVE",
"621 553 QCURVE SMOOTH",
"631 533 OFFCURVE",
"621 523 QCURVE SMOOTH",
"547 449 OFFCURVE",
"414 445 QCURVE SMOOTH",
"308 441 OFFCURVE",
"217 504 QCURVE",
"85 411 OFFCURVE",
"85 320 QCURVE SMOOTH",
"85 249 OFFCURVE",
"139 208 QCURVE SMOOTH",
"187 172 OFFCURVE",
"261 172 QCURVE SMOOTH",
"294 172 OFFCURVE",
"317 177 QCURVE",
"297 203 OFFCURVE",
"304 235 QCURVE SMOOTH",
"321 305 OFFCURVE",
"382 303 QCURVE SMOOTH",
"414 301 OFFCURVE",
"452 261 OFFCURVE",
"452 233 QCURVE SMOOTH",
"452 204 OFFCURVE",
"411 161 OFFCURVE",
"382 156 QCURVE",
"409 95 OFFCURVE",
"409 50 QCURVE SMOOTH",
"409 -59 OFFCURVE",
"267 -59 QCURVE SMOOTH",
"221 -59 OFFCURVE",
"176 -47 QCURVE SMOOTH",
"135 -36 OFFCURVE",
"114 -11 OFFCURVE"
);
}
);
width = 568;
}
);
},
{
glyphname = uni0A95_uni0ACD_uni0AB7.zz01_uni0AB0_uni0ACD.zz04.zz05_uni0ACD.zz28;
lastChange = "2017-06-08 06:27:27 +0000";
layers = (
{
layerId = "8D630CB6-6CFC-4A7D-AC95-7C82CE00D513";
paths = (
{
closed = 1;
nodes = (
"615 484 LINE",
"547 395 OFFCURVE",
"470 303 QCURVE",
"457 299 OFFCURVE",
"427 314 OFFCURVE",
"423 327 QCURVE",
"425 322 OFFCURVE",
"425 322 QCURVE",
"469 384 OFFCURVE",
"589 529 QCURVE"
);
},
{
closed = 1;
nodes = (
"635 3 LINE",
"577 3 LINE",
"578 59 OFFCURVE",
"578 788 QCURVE SMOOTH",
"578 805 OFFCURVE",
"607 805 QCURVE SMOOTH",
"636 805 OFFCURVE",
"636 788 QCURVE SMOOTH"
);
},
{
closed = 1;
nodes = (
"1001 -304 QCURVE",
"1001 -304 LINE",
"1001 -319 OFFCURVE",
"981 -329 QCURVE SMOOTH",
"959 -339 OFFCURVE",
"950 -327 QCURVE SMOOTH",
"750 -43 OFFCURVE",
"653 -43 QCURVE SMOOTH",
"593 -43 OFFCURVE",
"504 -78 QCURVE SMOOTH",
"492 -83 OFFCURVE",
"474 -53 OFFCURVE",
"474 -41 QCURVE SMOOTH",
"474 -29 OFFCURVE",
"481 -26 QCURVE SMOOTH",
"577 14 OFFCURVE",
"653 14 QCURVE SMOOTH",
"714 14 OFFCURVE",
"834 -106 QCURVE SMOOTH",
"862 -133 OFFCURVE",
"926 -206 QCURVE SMOOTH",
"1001 -291 OFFCURVE"
);
},
{
closed = 1;
nodes = (
"371 193 QCURVE",
"404 204 OFFCURVE",
"404 217 QCURVE SMOOTH",
"404 245 OFFCURVE",
"381 245 QCURVE SMOOTH",
"368 245 OFFCURVE",
"362 226 QCURVE SMOOTH",
"359 217 OFFCURVE"
);
},
{
closed = 1;
nodes = (
"224 573 LINE",
"295 624 OFFCURVE",
"308 635 QCURVE SMOOTH",
"340 664 OFFCURVE",
"340 689 QCURVE SMOOTH",
"340 731 OFFCURVE",
"283 789 OFFCURVE",
"240 791 QCURVE",
"196 792 OFFCURVE",
"133 739 OFFCURVE",
"133 695 QCURVE SMOOTH",
"133 636 OFFCURVE",
"223 573 QCURVE"
);
},
{
closed = 1;
nodes = (
"114 1 QCURVE SMOOTH",
"114 24 OFFCURVE",
"136 29 QCURVE",
"211 5 OFFCURVE",
"267 5 QCURVE SMOOTH",
"349 5 OFFCURVE",
"349 62 QCURVE SMOOTH",
"349 89 OFFCURVE",
"330 129 QCURVE",
"291 114 OFFCURVE",
"261 114 QCURVE SMOOTH",
"161 114 OFFCURVE",
"97 166 QCURVE SMOOTH",
"28 222 OFFCURVE",
"28 320 QCURVE SMOOTH",
"28 378 OFFCURVE",
"80 448 QCURVE SMOOTH",
"123 505 OFFCURVE",
"174 539 QCURVE",
"75 614 OFFCURVE",
"75 695 QCURVE SMOOTH",
"75 763 OFFCURVE",
"172 850 OFFCURVE",
"240 849 QCURVE",
"307 847 OFFCURVE",
"398 756 OFFCURVE",
"398 689 QCURVE SMOOTH",
"398 628 OFFCURVE",
"268 539 QCURVE",
"337 499 OFFCURVE",
"411 502 QCURVE SMOOTH",
"500 506 OFFCURVE",
"589 572 QCURVE SMOOTH",
"592 575 OFFCURVE",
"597 575 QCURVE",
"597 575 LINE",
"611 575 OFFCURVE",
"621 553 QCURVE SMOOTH",
"631 533 OFFCURVE",
"621 523 QCURVE SMOOTH",
"547 449 OFFCURVE",
"414 445 QCURVE SMOOTH",
"308 441 OFFCURVE",
"217 504 QCURVE",
"85 411 OFFCURVE",
"85 320 QCURVE SMOOTH",
"85 249 OFFCURVE",
"139 208 QCURVE SMOOTH",
"187 172 OFFCURVE",
"261 172 QCURVE SMOOTH",
"294 172 OFFCURVE",
"317 177 QCURVE",
"297 203 OFFCURVE",
"304 235 QCURVE SMOOTH",
"321 305 OFFCURVE",
"382 303 QCURVE SMOOTH",
"414 301 OFFCURVE",
"452 261 OFFCURVE",
"452 233 QCURVE SMOOTH",
"452 204 OFFCURVE",
"411 161 OFFCURVE",
"382 156 QCURVE",
"409 95 OFFCURVE",
"409 50 QCURVE SMOOTH",
"409 -59 OFFCURVE",
"267 -59 QCURVE SMOOTH",
"221 -59 OFFCURVE",
"176 -47 QCURVE SMOOTH",
"135 -36 OFFCURVE",
"114 -11 OFFCURVE"
);
}
);
width = 938;
}
);
},
{
glyphname = uni0A95_uni0ACD_uni0AB7.zz01_uni0ACD_afii61664.zz02;
lastChange = "2017-06-08 06:27:27 +0000";
layers = (
{
layerId = "8D630CB6-6CFC-4A7D-AC95-7C82CE00D513";
paths = (
{
closed = 1;
nodes = (
"606 3 LINE",
"548 3 LINE",
"549 59 OFFCURVE",
"549 788 QCURVE SMOOTH",
"549 805 OFFCURVE",
"578 805 QCURVE SMOOTH",
"607 805 OFFCURVE",
"607 788 QCURVE SMOOTH"
);
},
{
closed = 1;
nodes = (
"972 -304 QCURVE",
"972 -304 LINE",
"972 -319 OFFCURVE",
"952 -329 QCURVE SMOOTH",
"930 -339 OFFCURVE",
"921 -327 QCURVE SMOOTH",
"721 -43 OFFCURVE",
"625 -43 QCURVE SMOOTH",
"564 -43 OFFCURVE",
"475 -78 QCURVE SMOOTH",
"463 -83 OFFCURVE",
"445 -53 OFFCURVE",
"445 -41 QCURVE SMOOTH",
"445 -29 OFFCURVE",
"452 -26 QCURVE SMOOTH",
"548 14 OFFCURVE",
"625 14 QCURVE SMOOTH",
"685 14 OFFCURVE",
"806 -106 QCURVE SMOOTH",
"833 -133 OFFCURVE",
"897 -206 QCURVE SMOOTH",
"972 -291 OFFCURVE"
);
},
{
closed = 1;
nodes = (
"342 193 QCURVE",
"375 204 OFFCURVE",
"375 217 QCURVE SMOOTH",
"375 245 OFFCURVE",
"352 245 QCURVE SMOOTH",
"339 245 OFFCURVE",
"333 226 QCURVE SMOOTH",
"330 217 OFFCURVE"
);
},
{
closed = 1;
nodes = (
"195 573 LINE",
"266 624 OFFCURVE",
"279 635 QCURVE SMOOTH",
"311 664 OFFCURVE",
"311 689 QCURVE SMOOTH",
"311 731 OFFCURVE",
"254 789 OFFCURVE",
"211 791 QCURVE",
"167 792 OFFCURVE",
"137 766 QCURVE",
"104 739 OFFCURVE",
"104 695 QCURVE SMOOTH",
"104 636 OFFCURVE",
"194 573 QCURVE"
);
},
{
closed = 1;
nodes = (
"85 1 QCURVE SMOOTH",
"85 24 OFFCURVE",
"107 29 QCURVE",
"182 5 OFFCURVE",
"238 5 QCURVE SMOOTH",
"320 5 OFFCURVE",
"320 62 QCURVE SMOOTH",
"320 89 OFFCURVE",
"301 129 QCURVE",
"262 114 OFFCURVE",
"232 114 QCURVE SMOOTH",
"132 114 OFFCURVE",
"68 166 QCURVE SMOOTH",
"-1 222 OFFCURVE",
"-1 320 QCURVE SMOOTH",
"-1 378 OFFCURVE",
"51 448 QCURVE SMOOTH",
"94 505 OFFCURVE",
"145 539 QCURVE",
"46 614 OFFCURVE",
"46 695 QCURVE SMOOTH",
"46 763 OFFCURVE",
"143 850 OFFCURVE",
"211 849 QCURVE",
"278 847 OFFCURVE",
"369 756 OFFCURVE",
"369 689 QCURVE SMOOTH",
"369 628 OFFCURVE",
"239 539 QCURVE",
"308 499 OFFCURVE",
"382 502 QCURVE SMOOTH",
"471 506 OFFCURVE",
"560 572 QCURVE SMOOTH",
"563 575 OFFCURVE",
"568 575 QCURVE",
"568 575 LINE",
"582 575 OFFCURVE",
"592 553 QCURVE SMOOTH",
"602 533 OFFCURVE",
"592 523 QCURVE SMOOTH",
"518 449 OFFCURVE",
"385 445 QCURVE SMOOTH",
"279 441 OFFCURVE",
"188 504 QCURVE",
"56 411 OFFCURVE",
"56 320 QCURVE SMOOTH",
"56 249 OFFCURVE",
"110 208 QCURVE SMOOTH",
"158 172 OFFCURVE",
"232 172 QCURVE SMOOTH",
"265 172 OFFCURVE",
"288 177 QCURVE",
"268 203 OFFCURVE",
"275 235 QCURVE SMOOTH",
"292 305 OFFCURVE",
"353 303 QCURVE SMOOTH",
"385 301 OFFCURVE",
"423 261 OFFCURVE",
"423 233 QCURVE SMOOTH",
"423 204 OFFCURVE",
"382 161 OFFCURVE",
"353 156 QCURVE",
"380 95 OFFCURVE",
"380 50 QCURVE SMOOTH",
"380 -59 OFFCURVE",
"238 -59 QCURVE SMOOTH",
"192 -59 OFFCURVE",
"147 -47 QCURVE SMOOTH",
"106 -36 OFFCURVE",
"85 -11 OFFCURVE"
);
}
);
width = 938;
}
);
},
{
glyphname = uni0A95_uni0ACD_uni0AB7.zz01_uni0ACD_afii61664.zz02_uni0ABC.zz07;
lastChange = "2017-06-08 06:27:27 +0000";
layers = (
{
layerId = "8D630CB6-6CFC-4A7D-AC95-7C82CE00D513";
paths = (
{
closed = 1;
nodes = (
"606 3 LINE",
"548 3 LINE",
"549 59 OFFCURVE",
"549 788 QCURVE SMOOTH",
"549 805 OFFCURVE",
"578 805 QCURVE SMOOTH",
"607 805 OFFCURVE",
"607 788 QCURVE SMOOTH"
);
},
{
closed = 1;
nodes = (
"972 -304 QCURVE",
"972 -304 LINE",
"972 -319 OFFCURVE",
"952 -329 QCURVE SMOOTH",
"930 -339 OFFCURVE",
"921 -327 QCURVE SMOOTH",
"721 -43 OFFCURVE",
"625 -43 QCURVE SMOOTH",
"564 -43 OFFCURVE",
"475 -78 QCURVE SMOOTH",
"463 -83 OFFCURVE",
"445 -53 OFFCURVE",
"445 -41 QCURVE SMOOTH",
"445 -29 OFFCURVE",
"452 -26 QCURVE SMOOTH",
"548 14 OFFCURVE",
"625 14 QCURVE SMOOTH",
"685 14 OFFCURVE",
"806 -106 QCURVE SMOOTH",
"833 -133 OFFCURVE",
"897 -206 QCURVE SMOOTH",
"972 -291 OFFCURVE"
);
},
{
closed = 1;
nodes = (
"342 193 QCURVE",
"375 204 OFFCURVE",
"375 217 QCURVE SMOOTH",
"375 245 OFFCURVE",
"352 245 QCURVE SMOOTH",
"339 245 OFFCURVE",
"333 226 QCURVE SMOOTH",
"330 217 OFFCURVE"
);
},
{
closed = 1;
nodes = (
"195 573 LINE",
"266 624 OFFCURVE",
"279 635 QCURVE SMOOTH",
"311 664 OFFCURVE",
"311 689 QCURVE SMOOTH",
"311 731 OFFCURVE",
"254 789 OFFCURVE",
"211 791 QCURVE",
"167 792 OFFCURVE",
"137 766 QCURVE",
"104 739 OFFCURVE",
"104 695 QCURVE SMOOTH",
"104 636 OFFCURVE",
"194 573 QCURVE"
);
},
{
closed = 1;
nodes = (
"85 1 QCURVE SMOOTH",
"85 24 OFFCURVE",
"107 29 QCURVE",
"182 5 OFFCURVE",
"238 5 QCURVE SMOOTH",
"320 5 OFFCURVE",
"320 62 QCURVE SMOOTH",
"320 89 OFFCURVE",
"301 129 QCURVE",
"262 114 OFFCURVE",
"232 114 QCURVE SMOOTH",
"132 114 OFFCURVE",
"68 166 QCURVE SMOOTH",
"-1 222 OFFCURVE",
"-1 320 QCURVE SMOOTH",
"-1 378 OFFCURVE",
"51 448 QCURVE SMOOTH",
"94 505 OFFCURVE",
"145 539 QCURVE",
"46 614 OFFCURVE",
"46 695 QCURVE SMOOTH",
"46 763 OFFCURVE",
"143 850 OFFCURVE",
"211 849 QCURVE",
"278 847 OFFCURVE",
"369 756 OFFCURVE",
"369 689 QCURVE SMOOTH",
"369 628 OFFCURVE",
"239 539 QCURVE",
"308 499 OFFCURVE",
"382 502 QCURVE SMOOTH",
"471 506 OFFCURVE",
"560 572 QCURVE SMOOTH",
"563 575 OFFCURVE",
"568 575 QCURVE",
"568 575 LINE",
"582 575 OFFCURVE",
"592 553 QCURVE SMOOTH",
"602 533 OFFCURVE",
"592 523 QCURVE SMOOTH",
"518 449 OFFCURVE",
"385 445 QCURVE SMOOTH",
"279 441 OFFCURVE",
"188 504 QCURVE",
"56 411 OFFCURVE",
"56 320 QCURVE SMOOTH",
"56 249 OFFCURVE",
"110 208 QCURVE SMOOTH",
"158 172 OFFCURVE",
"232 172 QCURVE SMOOTH",
"265 172 OFFCURVE",
"288 177 QCURVE",
"268 203 OFFCURVE",
"275 235 QCURVE SMOOTH",
"292 305 OFFCURVE",
"353 303 QCURVE SMOOTH",
"385 301 OFFCURVE",
"423 261 OFFCURVE",
"423 233 QCURVE SMOOTH",
"423 204 OFFCURVE",
"382 161 OFFCURVE",
"353 156 QCURVE",
"380 95 OFFCURVE",
"380 50 QCURVE SMOOTH",
"380 -59 OFFCURVE",
"238 -59 QCURVE SMOOTH",
"192 -59 OFFCURVE",
"147 -47 QCURVE SMOOTH",
"106 -36 OFFCURVE",
"85 -11 OFFCURVE"
);
},
{
closed = 1;
nodes = (
"137 -136 QCURVE SMOOTH",
"137 -160 OFFCURVE",
"100 -197 OFFCURVE",
"76 -197 QCURVE SMOOTH",
"51 -197 OFFCURVE",
"14 -160 OFFCURVE",
"14 -136 QCURVE SMOOTH",
"14 -110 OFFCURVE",
"50 -73 OFFCURVE",
"76 -73 QCURVE SMOOTH",
"101 -73 OFFCURVE",
"137 -110 OFFCURVE"
);
}
);
width = 938;
}
);
},
